<svg width="955" height="760" viewBox="0 0 955 760" fill="none" xmlns="http://www.w3.org/2000/svg">
<mask id="mask0_4_149" style="mask-type:alpha" maskUnits="userSpaceOnUse" x="56" y="33" width="445" height="438">
<path d="M56 33H500.5V280C395 280 309 364 310 470.5H56V33Z" fill="#C4C4C4"/>
</mask>
<g mask="url(#mask0_4_149)">
<circle cx="498.5" cy="475.5" r="442.5" fill="#FF0000"/>
<path d="M907 470.5C907 695.004 725.004 877 500.5 877C275.996 877 94 695.004 94 470.5C94 245.996 275.996 64 500.5 64C725.004 64 907 245.996 907 470.5Z" fill="#FF8000"/>
<circle cx="500.5" cy="470.5" r="370.5" fill="#FFE500"/>
<circle cx="500.5" cy="470.5" r="334.5" fill="#57C700"/>
<circle cx="500.5" cy="470.5" r="298.5" fill="#008AD4"/>
<circle cx="500.5" cy="470.5" r="262.5" fill="#5766AB"/>
<circle cx="500.5" cy="470.5" r="226.5" fill="#6D59A0"/>
</g>
<path d="M201 467C126 467 59 505 59 505C59 505 69.4159 557.5 99 606C128.584 654.5 172 689 172 689C172 689 191.5 634.5 244 576.5C296.5 518.5 349 496 349 496C349 496 277 464 201 467Z" fill="#D9D9D9"/>
<path d="M233.5 727.5L199.5 708.5C199.5 708.5 231 586 347.5 521C476.5 449.025 592 489 592 489C592 489 464 474 362.5 550C260 621.5 233.5 727.5 233.5 727.5Z" fill="#D9D9D9"/>
<path d="M313.5 754.235C313.5 754.235 281.778 749.155 268.5 741.735C268.5 741.735 307 612.305 423.5 547.305C538 477.5 647.5 501.5 647.5 501.5C647.5 501.5 540 500.305 438.5 576.305C337.5 648.5 313.5 754.235 313.5 754.235Z" fill="#D9D9D9"/>
<path d="M392.229 760H352C352 760 375 658.5 468 585C561 511.5 654 511 654 511L671 521C671 521 572.5 532.5 493 606C414 674 392.229 760 392.229 760Z" fill="#D9D9D9"/>
<path d="M503 734.5C476.5 745.5 472 746.5 442 753C442 753 468.5 673 535 612.5C604 548 685 530.5 685 530.5L681.5 539C681.5 539 630 561.5 573.5 622.5C526.725 673 503 734.5 503 734.5Z" fill="#D9D9D9"/>
<path d="M610.5 633C575.477 673.329 571 694.5 571 694.5C571 694.5 601 673 628 639.5C653 609.5 665 581 665 581C665 581 643.5 595 610.5 633Z" fill="#D9D9D9"/>
<path d="M586 481H582V430H586V481Z" fill="#D9D9D9"/>
<path d="M593.5 461C588.987 465.665 587.5 476.5 587.5 476.5C587.5 476.5 598.746 475.589 603.5 471C608.433 466.238 609.5 454.5 609.5 454.5C609.5 454.5 598.19 456.153 593.5 461Z" fill="#D9D9D9"/>
<path d="M573.5 441C578.523 445.667 579.5 457.5 579.5 457.5C579.5 457.5 568.59 456.09 564 451.5C559.41 446.91 557.5 435 557.5 435C557.5 435 568.841 436.671 573.5 441Z" fill="#D9D9D9"/>
<circle cx="583.5" cy="390.5" r="14.5" fill="#D9D9D9"/>
<path d="M588.5 416.5C588.5 407.5 583.5 406 583.5 406C583.5 406 579 407.5 579 416.5C579 425.5 583.5 427 583.5 427C583.5 427 588.5 425.5 588.5 416.5Z" fill="#D9D9D9"/>
<path d="M605.319 405.377C599.124 398.849 594.464 401.202 594.464 401.202C594.464 401.202 592.233 405.388 598.428 411.916C604.623 418.445 608.92 416.435 608.92 416.435C608.92 416.435 611.514 411.905 605.319 405.377Z" fill="#D9D9D9"/>
<path d="M609.602 396.064C601.513 392.119 597.973 395.955 597.973 395.955C597.973 395.955 597.348 400.658 605.438 404.603C613.527 408.548 616.848 405.161 616.848 405.161C616.848 405.161 617.691 400.01 609.602 396.064Z" fill="#D9D9D9"/>
<path d="M609.5 385.4C600.5 385.4 599 390.4 599 390.4C599 390.4 600.5 394.9 609.5 394.9C618.5 394.9 620 390.4 620 390.4C620 390.4 618.5 385.4 609.5 385.4Z" fill="#D9D9D9"/>
<path d="M598.232 412.356C594.146 404.336 589.01 405.27 589.01 405.27C589.01 405.27 585.681 408.649 589.767 416.668C593.853 424.687 598.544 423.981 598.544 423.981C598.544 423.981 602.318 420.375 598.232 412.356Z" fill="#D9D9D9"/>
<path d="M598.977 368.681C592.449 374.876 594.803 379.536 594.803 379.536C594.803 379.536 598.988 381.767 605.517 375.572C612.045 369.377 610.036 365.08 610.036 365.08C610.036 365.08 605.506 362.486 598.977 368.681Z" fill="#D9D9D9"/>
<path d="M589.665 364.398C585.719 372.487 589.556 376.027 589.556 376.027C589.556 376.027 594.258 376.652 598.203 368.563C602.148 360.474 598.761 357.153 598.761 357.153C598.761 357.153 593.61 356.309 589.665 364.398Z" fill="#D9D9D9"/>
<path d="M579 364.5C579 373.5 584 375 584 375C584 375 588.5 373.5 588.5 364.5C588.5 355.5 584 354 584 354C584 354 579 355.5 579 364.5Z" fill="#D9D9D9"/>
<path d="M605.356 375.767C597.337 379.853 598.27 384.989 598.27 384.989C598.27 384.989 601.65 388.317 609.669 384.232C617.688 380.146 616.981 375.455 616.981 375.455C616.981 375.455 613.375 371.681 605.356 375.767Z" fill="#D9D9D9"/>
<path d="M561.681 375.647C567.876 382.175 572.536 379.822 572.536 379.822C572.536 379.822 574.767 375.636 568.572 369.108C562.377 362.579 558.08 364.589 558.08 364.589C558.08 364.589 555.486 369.119 561.681 375.647Z" fill="#D9D9D9"/>
<path d="M557.398 384.96C565.487 388.905 569.027 385.069 569.027 385.069C569.027 385.069 569.652 380.367 561.563 376.421C553.474 372.476 550.153 375.863 550.153 375.863C550.153 375.863 549.309 381.014 557.398 384.96Z" fill="#D9D9D9"/>
<path d="M557.5 395.624C566.5 395.624 568 390.624 568 390.624C568 390.624 566.5 386.124 557.5 386.124C548.5 386.124 547 390.624 547 390.624C547 390.624 548.5 395.624 557.5 395.624Z" fill="#D9D9D9"/>
<path d="M569.169 368.668C573.254 376.688 578.39 375.754 578.39 375.754C578.39 375.754 581.719 372.375 577.633 364.356C573.547 356.337 568.857 357.043 568.857 357.043C568.857 357.043 565.083 360.649 569.169 368.668Z" fill="#D9D9D9"/>
<path d="M568.823 412.119C575.351 405.924 572.998 401.264 572.998 401.264C572.998 401.264 568.812 399.033 562.284 405.228C555.755 411.423 557.765 415.72 557.765 415.72C557.765 415.72 562.295 418.314 568.823 412.119Z" fill="#D9D9D9"/>
<path d="M577.936 416.602C581.881 408.513 578.045 404.973 578.045 404.973C578.045 404.973 573.342 404.348 569.397 412.437C565.452 420.526 568.839 423.847 568.839 423.847C568.839 423.847 573.99 424.691 577.936 416.602Z" fill="#D9D9D9"/>
<path d="M561.644 405.257C569.664 401.171 568.73 396.035 568.73 396.035C568.73 396.035 565.351 392.707 557.332 396.793C549.312 400.878 550.019 405.569 550.019 405.569C550.019 405.569 553.625 409.343 561.644 405.257Z" fill="#D9D9D9"/>
<mask id="mask1_4_149" style="mask-type:alpha" maskUnits="userSpaceOnUse" x="477" y="325" width="50" height="89">
<path d="M508.5 383L508 412L506.5 410V373.5C506.5 373.5 502.174 362.772 497 357.5C491.826 352.228 484.5 347 478 345.5L481.5 326H526.5V365.5C526.5 365.5 521.5 368 517.5 371.5C513.543 374.962 510.5 378.5 508.5 383Z" fill="#C4C4C4" stroke="black"/>
</mask>
<g mask="url(#mask1_4_149)">
<g filter="url(#filter0_f_4_149)">
<rect x="498" y="328.5" width="10" height="6" rx="1" fill="#D9D9D9"/>
</g>
<g filter="url(#filter1_f_4_149)">
<rect x="492" y="335.5" width="10" height="6" rx="1" fill="#D9D9D9"/>
</g>
<g filter="url(#filter2_f_4_149)">
<rect x="503" y="335.5" width="10" height="6" rx="1" fill="#D9D9D9"/>
</g>
<g filter="url(#filter3_f_4_149)">
<rect x="487" y="342.5" width="10" height="6" rx="1" fill="#D9D9D9"/>
</g>
<g filter="url(#filter4_f_4_149)">
<rect x="498" y="342.5" width="10" height="6" rx="1" fill="#D9D9D9"/>
</g>
<g filter="url(#filter5_f_4_149)">
<rect x="509" y="342.5" width="10" height="6" rx="1" fill="#D9D9D9"/>
</g>
<g filter="url(#filter6_f_4_149)">
<rect x="487" y="349.5" width="10" height="6" rx="1" fill="#D9D9D9"/>
</g>
<g filter="url(#filter7_f_4_149)">
<rect x="487" y="356.5" width="10" height="6" rx="1" fill="#D9D9D9"/>
</g>
<g filter="url(#filter8_f_4_149)">
<rect x="498" y="349.5" width="10" height="6" rx="1" fill="#D9D9D9"/>
</g>
<g filter="url(#filter9_f_4_149)">
<rect x="509" y="349.5" width="10" height="6" rx="1" fill="#D9D9D9"/>
</g>
<g filter="url(#filter10_f_4_149)">
<rect x="509" y="356.5" width="10" height="6" rx="1" fill="#D9D9D9"/>
</g>
<g filter="url(#filter11_f_4_149)">
<rect x="498" y="356.5" width="10" height="6" rx="1" fill="#D9D9D9"/>
</g>
<g filter="url(#filter12_f_4_149)">
<rect x="509" y="363.5" width="10" height="6" rx="1" fill="#D9D9D9"/>
</g>
<g filter="url(#filter13_f_4_149)">
<rect x="498" y="363.5" width="10" height="6" rx="1" fill="#D9D9D9"/>
</g>
<g filter="url(#filter14_f_4_149)">
<rect x="509" y="370.5" width="10" height="6" rx="1" fill="#D9D9D9"/>
</g>
<g filter="url(#filter15_f_4_149)">
<rect x="498" y="370.5" width="10" height="6" rx="1" fill="#D9D9D9"/>
</g>
<g filter="url(#filter16_f_4_149)">
<rect x="498" y="377.5" width="10" height="6" rx="1" fill="#D9D9D9"/>
</g>
<g filter="url(#filter17_f_4_149)">
<rect x="498" y="384.5" width="10" height="6" rx="1" fill="#D9D9D9"/>
</g>
<g filter="url(#filter18_f_4_149)">
<rect x="509" y="377.5" width="10" height="6" rx="1" fill="#D9D9D9"/>
</g>
</g>
<path d="M505 413.5V458.5H509V413.5H505Z" fill="#D9D9D9"/>
<path d="M513.5 421.5C510.216 425.605 510 434.5 510 434.5C510 434.5 513.793 431.716 517.5 430C521.8 428.009 527.064 426.617 530.5 425C535 422.5 536 410.5 536 410.5C536 410.5 530.271 412.888 524.5 415.5C519.9 417.582 515.5 419 513.5 421.5Z" fill="#D9D9D9"/>
<path d="M499.5 432.5C502.784 436.605 503 445.5 503 445.5C503 445.5 498.707 443.216 495 441.5C490.7 439.509 485.936 437.617 482.5 436C478 433.5 478 421.5 478 421.5C478 421.5 482.729 424.388 488.5 427C493.1 429.082 497.5 430 499.5 432.5Z" fill="#D9D9D9"/>
<path d="M509 386.5V412.5C509 412.5 515.593 409.522 519 406.5C522.974 402.975 524.803 400.336 527 395.5V367.5C527 367.5 519.585 371.234 516 375C512.375 378.808 510.863 381.584 509 386.5Z" fill="#D9D9D9"/>
<path d="M504.5 374V412C504.5 412 493.577 405.882 488.5 401C483.423 396.118 481.751 393.33 479 387.5L478.5 347.5C485 349 489.826 352.728 495 358C500.174 363.272 504.5 374 504.5 374Z" fill="#D9D9D9"/>
<path d="M414.178 437C420.155 441.545 429.886 446 429.886 446C429.886 446 430.993 435.956 427.431 431.5C424.961 428.41 422.032 427.5 418.105 425C414.178 422.5 411.724 421.5 410.252 420C409.761 420.5 410.057 428.5 410.548 430.5C411.039 432.5 411.548 435 414.178 437Z" fill="#D9D9D9"/>
<path d="M450.048 437C445.048 440.5 434.048 446 434.048 446C434.048 446 432.92 435.956 436.548 431.5C439.064 428.41 442.048 427.5 446.048 425C450.048 422.5 452.548 421.5 454.048 420C454.548 420.5 454.048 428 453.548 430C453.048 432 452.048 434.5 450.048 437Z" fill="#D9D9D9"/>
<path d="M414.227 420C420.204 424.545 429.934 429 429.934 429C429.934 429 431.041 418.956 427.48 414.5C425.01 411.41 422.08 410.5 418.153 408C414.227 405.5 411.772 404.5 410.3 403C409.809 403.5 410.106 411.5 410.597 413.5C411.087 415.5 411.597 418 414.227 420Z" fill="#D9D9D9"/>
<path d="M450.097 420C445.097 423.5 434.097 429 434.097 429C434.097 429 432.969 418.956 436.597 414.5C439.113 411.41 442.097 410.5 446.097 408C450.097 405.5 452.597 404.5 454.097 403C454.597 403.5 454.097 411 453.597 413C453.097 415 452.097 417.5 450.097 420Z" fill="#D9D9D9"/>
<path d="M414.227 403C420.204 407.545 429.934 412 429.934 412C429.934 412 431.041 401.956 427.48 397.5C425.01 394.41 422.08 393.5 418.154 391C414.227 388.5 411.772 387.5 410.3 386C409.809 386.5 410.106 394.5 410.597 396.5C411.087 398.5 411.597 401 414.227 403Z" fill="#D9D9D9"/>
<path d="M450.097 403C445.097 406.5 434.097 412 434.097 412C434.097 412 432.969 401.956 436.597 397.5C439.113 394.41 442.097 393.5 446.097 391C450.097 388.5 452.597 387.5 454.097 386C454.597 386.5 454.097 394 453.597 396C453.097 398 452.097 400.5 450.097 403Z" fill="#D9D9D9"/>
<path d="M434.048 468H430.048V447H434.048V468Z" fill="#D9D9D9"/>
<path d="M410.048 384C411.048 385 411.548 385 413.048 385V357C413.048 357 412.252 356 411.548 356C410.844 356 410.048 357 410.048 357V384Z" fill="#D9D9D9"/>
<path d="M418.048 388C418.548 389 420.048 389.5 421.048 390V347C421.048 347 420.252 346 419.548 346C418.844 346 418.048 347 418.048 347V388Z" fill="#D9D9D9"/>
<path d="M429.048 368C427.548 369 427.048 369.5 426.048 371V340C426.048 340 426.844 339 427.548 339C428.252 339 429.048 340 429.048 340V368Z" fill="#D9D9D9"/>
<path d="M454.048 384C453.048 385 452.548 385 451.048 385V357C451.048 357 451.844 356 452.548 356C453.252 356 454.048 357 454.048 357V384Z" fill="#D9D9D9"/>
<path d="M446.048 388C445.548 389 444.048 389.5 443.048 390V347C443.048 347 443.844 346 444.548 346C445.252 346 446.048 347 446.048 347V388Z" fill="#D9D9D9"/>
<path d="M435.048 368C436.548 369 437.048 369.5 438.048 371V340C438.048 340 437.252 339 436.548 339C435.844 339 435.048 340 435.048 340V368Z" fill="#D9D9D9"/>
<path d="M439.048 382.5C439.048 375.858 435.048 369.5 432.048 367C429.048 369.5 425.353 375.219 425.048 381.5C424.709 388.491 427.548 392.5 432.048 398C436.548 393 439.048 389.142 439.048 382.5Z" fill="#D9D9D9"/>
<path d="M180.5 441.5C105.5 441.5 38.5 479.5 38.5 479.5C38.5 479.5 48.9159 532 78.5 580.5C108.084 629 151.5 663.5 151.5 663.5C151.5 663.5 171 609 223.5 551C276 493 328.5 470.5 328.5 470.5C328.5 470.5 256.5 438.5 180.5 441.5Z" fill="#557C3C"/>
<path d="M213 702L179 683C179 683 210.5 560.5 327 495.5C456 423.525 571.5 463.5 571.5 463.5C571.5 463.5 443.5 448.5 342 524.5C239.5 596 213 702 213 702Z" fill="#729344"/>
<path d="M293 728.735C293 728.735 261.278 723.655 248 716.235C248 716.235 286.5 586.805 403 521.805C517.5 452 627 476 627 476C627 476 519.5 474.805 418 550.805C317 623 293 728.735 293 728.735Z" fill="#73A545"/>
<path d="M371.729 734.5H331.5C331.5 734.5 354.5 633 447.5 559.5C540.5 486 633.5 485.5 633.5 485.5L650.5 495.5C650.5 495.5 552 507 472.5 580.5C393.5 648.5 371.729 734.5 371.729 734.5Z" fill="#96B54F"/>
<path d="M482.5 709C456 720 451.5 721 421.5 727.5C421.5 727.5 448 647.5 514.5 587C583.5 522.5 664.5 505 664.5 505L661 513.5C661 513.5 609.5 536 553 597C506.225 647.5 482.5 709 482.5 709Z" fill="#BFD353"/>
<path d="M590 607.5C554.977 647.829 550.5 669 550.5 669C550.5 669 580.5 647.5 607.5 614C632.5 584 644.5 555.5 644.5 555.5C644.5 555.5 623 569.5 590 607.5Z" fill="#D9DF4D"/>
<path d="M578 472H574V421H578V472Z" fill="#557C3C"/>
<path d="M585.5 452C580.987 456.665 579.5 467.5 579.5 467.5C579.5 467.5 590.746 466.589 595.5 462C600.433 457.238 601.5 445.5 601.5 445.5C601.5 445.5 590.19 447.153 585.5 452Z" fill="#557C3C"/>
<path d="M565.5 432C570.523 436.667 571.5 448.5 571.5 448.5C571.5 448.5 560.59 447.09 556 442.5C551.41 437.91 549.5 426 549.5 426C549.5 426 560.841 427.671 565.5 432Z" fill="#557C3C"/>
<circle cx="575.5" cy="381.5" r="14.5" fill="#464512"/>
<path d="M580.5 407.5C580.5 398.5 575.5 397 575.5 397C575.5 397 571 398.5 571 407.5C571 416.5 575.5 418 575.5 418C575.5 418 580.5 416.5 580.5 407.5Z" fill="#FFA030"/>
<path d="M597.319 396.377C591.124 389.849 586.464 392.202 586.464 392.202C586.464 392.202 584.233 396.388 590.428 402.916C596.623 409.445 600.92 407.435 600.92 407.435C600.92 407.435 603.514 402.905 597.319 396.377Z" fill="#FFA030"/>
<path d="M601.602 387.064C593.513 383.119 589.973 386.955 589.973 386.955C589.973 386.955 589.348 391.658 597.438 395.603C605.527 399.548 608.848 396.161 608.848 396.161C608.848 396.161 609.691 391.01 601.602 387.064Z" fill="#FFA030"/>
<path d="M601.5 376.4C592.5 376.4 591 381.4 591 381.4C591 381.4 592.5 385.9 601.5 385.9C610.5 385.9 612 381.4 612 381.4C612 381.4 610.5 376.4 601.5 376.4Z" fill="#FFA030"/>
<path d="M590.232 403.356C586.146 395.336 581.01 396.27 581.01 396.27C581.01 396.27 577.681 399.649 581.767 407.668C585.853 415.687 590.544 414.981 590.544 414.981C590.544 414.981 594.318 411.375 590.232 403.356Z" fill="#FFA030"/>
<path d="M590.977 359.681C584.449 365.876 586.803 370.536 586.803 370.536C586.803 370.536 590.988 372.767 597.517 366.572C604.045 360.377 602.036 356.08 602.036 356.08C602.036 356.08 597.506 353.486 590.977 359.681Z" fill="#FFA030"/>
<path d="M581.665 355.398C577.719 363.487 581.556 367.027 581.556 367.027C581.556 367.027 586.258 367.652 590.203 359.563C594.148 351.474 590.761 348.153 590.761 348.153C590.761 348.153 585.61 347.309 581.665 355.398Z" fill="#FFA030"/>
<path d="M571 355.5C571 364.5 576 366 576 366C576 366 580.5 364.5 580.5 355.5C580.5 346.5 576 345 576 345C576 345 571 346.5 571 355.5Z" fill="#FFA030"/>
<path d="M597.356 366.767C589.337 370.853 590.27 375.989 590.27 375.989C590.27 375.989 593.65 379.317 601.669 375.231C609.688 371.146 608.981 366.455 608.981 366.455C608.981 366.455 605.375 362.681 597.356 366.767Z" fill="#FFA030"/>
<path d="M553.681 366.647C559.876 373.175 564.536 370.822 564.536 370.822C564.536 370.822 566.767 366.636 560.572 360.108C554.377 353.579 550.08 355.589 550.08 355.589C550.08 355.589 547.486 360.119 553.681 366.647Z" fill="#FFA030"/>
<path d="M549.398 375.96C557.487 379.905 561.027 376.069 561.027 376.069C561.027 376.069 561.652 371.367 553.563 367.421C545.474 363.476 542.153 366.863 542.153 366.863C542.153 366.863 541.309 372.014 549.398 375.96Z" fill="#FFA030"/>
<path d="M549.5 386.624C558.5 386.624 560 381.624 560 381.624C560 381.624 558.5 377.124 549.5 377.124C540.5 377.124 539 381.624 539 381.624C539 381.624 540.5 386.624 549.5 386.624Z" fill="#FFA030"/>
<path d="M561.169 359.668C565.254 367.688 570.39 366.754 570.39 366.754C570.39 366.754 573.719 363.375 569.633 355.356C565.547 347.337 560.857 348.043 560.857 348.043C560.857 348.043 557.083 351.649 561.169 359.668Z" fill="#FFA030"/>
<path d="M560.823 403.119C567.351 396.924 564.998 392.264 564.998 392.264C564.998 392.264 560.812 390.033 554.284 396.228C547.755 402.423 549.765 406.72 549.765 406.72C549.765 406.72 554.295 409.314 560.823 403.119Z" fill="#FFA030"/>
<path d="M569.936 407.602C573.881 399.513 570.045 395.973 570.045 395.973C570.045 395.973 565.342 395.348 561.397 403.437C557.452 411.526 560.839 414.847 560.839 414.847C560.839 414.847 565.99 415.691 569.936 407.602Z" fill="#FFA030"/>
<path d="M553.644 396.257C561.664 392.171 560.73 387.035 560.73 387.035C560.73 387.035 557.351 383.707 549.332 387.793C541.312 391.878 542.019 396.569 542.019 396.569C542.019 396.569 545.625 400.343 553.644 396.257Z" fill="#FFA030"/>
<mask id="mask2_4_149" style="mask-type:alpha" maskUnits="userSpaceOnUse" x="469" y="317" width="50" height="88">
<path d="M500.5 374.5L500 403.5L498.5 401.5V365C498.5 365 494.174 354.272 489 349C483.826 343.728 476.5 338.5 470 337L473.5 317.5H518.5V357C518.5 357 513.5 359.5 509.5 363C505.543 366.462 502.5 370 500.5 374.5Z" fill="#C4C4C4" stroke="black"/>
</mask>
<g mask="url(#mask2_4_149)">
<g filter="url(#filter19_f_4_149)">
<rect x="490" y="320" width="10" height="6" rx="1" fill="#FFA030"/>
</g>
<g filter="url(#filter20_f_4_149)">
<rect x="484" y="327" width="10" height="6" rx="1" fill="#FFA030"/>
</g>
<g filter="url(#filter21_f_4_149)">
<rect x="495" y="327" width="10" height="6" rx="1" fill="#FFA030"/>
</g>
<g filter="url(#filter22_f_4_149)">
<rect x="479" y="334" width="10" height="6" rx="1" fill="#FFA030"/>
</g>
<g filter="url(#filter23_f_4_149)">
<rect x="490" y="334" width="10" height="6" rx="1" fill="#FFA030"/>
</g>
<g filter="url(#filter24_f_4_149)">
<rect x="501" y="334" width="10" height="6" rx="1" fill="#FFA030"/>
</g>
<g filter="url(#filter25_f_4_149)">
<rect x="479" y="341" width="10" height="6" rx="1" fill="#FFA030"/>
</g>
<g filter="url(#filter26_f_4_149)">
<rect x="479" y="348" width="10" height="6" rx="1" fill="#FFA030"/>
</g>
<g filter="url(#filter27_f_4_149)">
<rect x="490" y="341" width="10" height="6" rx="1" fill="#FFA030"/>
</g>
<g filter="url(#filter28_f_4_149)">
<rect x="501" y="341" width="10" height="6" rx="1" fill="#FFA030"/>
</g>
<g filter="url(#filter29_f_4_149)">
<rect x="501" y="348" width="10" height="6" rx="1" fill="#FFA030"/>
</g>
<g filter="url(#filter30_f_4_149)">
<rect x="490" y="348" width="10" height="6" rx="1" fill="#FFA030"/>
</g>
<g filter="url(#filter31_f_4_149)">
<rect x="501" y="355" width="10" height="6" rx="1" fill="#FFA030"/>
</g>
<g filter="url(#filter32_f_4_149)">
<rect x="490" y="355" width="10" height="6" rx="1" fill="#FFA030"/>
</g>
<g filter="url(#filter33_f_4_149)">
<rect x="501" y="362" width="10" height="6" rx="1" fill="#FFA030"/>
</g>
<g filter="url(#filter34_f_4_149)">
<rect x="490" y="362" width="10" height="6" rx="1" fill="#FFA030"/>
</g>
<g filter="url(#filter35_f_4_149)">
<rect x="490" y="369" width="10" height="6" rx="1" fill="#FFA030"/>
</g>
<g filter="url(#filter36_f_4_149)">
<rect x="490" y="376" width="10" height="6" rx="1" fill="#FFA030"/>
</g>
<g filter="url(#filter37_f_4_149)">
<rect x="501" y="369" width="10" height="6" rx="1" fill="#FFA030"/>
</g>
</g>
<path d="M497 405V450H501V405H497Z" fill="#557C3C"/>
<path d="M505.5 413C502.216 417.105 502 426 502 426C502 426 505.793 423.216 509.5 421.5C513.8 419.509 519.064 418.117 522.5 416.5C527 414 528 402 528 402C528 402 522.271 404.388 516.5 407C511.9 409.082 507.5 410.5 505.5 413Z" fill="#557C3C"/>
<path d="M491.5 424C494.784 428.105 495 437 495 437C495 437 490.707 434.716 487 433C482.7 431.009 477.936 429.117 474.5 427.5C470 425 470 413 470 413C470 413 474.729 415.888 480.5 418.5C485.1 420.582 489.5 421.5 491.5 424Z" fill="#557C3C"/>
<path d="M501 378V404C501 404 507.593 401.022 511 398C514.974 394.475 516.803 391.836 519 387V359C519 359 511.585 362.734 508 366.5C504.375 370.308 502.863 373.084 501 378Z" fill="#557C3C"/>
<path d="M496.5 365.5V403.5C496.5 403.5 485.577 397.382 480.5 392.5C475.423 387.618 473.751 384.83 471 379L470.5 339C477 340.5 481.826 344.228 487 349.5C492.174 354.772 496.5 365.5 496.5 365.5Z" fill="#557C3C"/>
<path d="M406.13 428C412.107 432.545 421.837 437 421.837 437C421.837 437 422.945 426.956 419.383 422.5C416.913 419.41 413.984 418.5 410.057 416C406.13 413.5 403.676 412.5 402.203 411C401.712 411.5 402.009 419.5 402.5 421.5C402.991 423.5 403.5 426 406.13 428Z" fill="#FFA030"/>
<path d="M442 428C437 431.5 426 437 426 437C426 437 424.872 426.956 428.5 422.5C431.016 419.41 434 418.5 438 416C442 413.5 444.5 412.5 446 411C446.5 411.5 446 419 445.5 421C445 423 444 425.5 442 428Z" fill="#FFA030"/>
<path d="M406.178 411C412.155 415.545 421.885 420 421.885 420C421.885 420 422.993 409.956 419.431 405.5C416.961 402.41 414.032 401.5 410.105 399C406.178 396.5 403.724 395.5 402.252 394C401.761 394.5 402.057 402.5 402.548 404.5C403.039 406.5 403.548 409 406.178 411Z" fill="#FFA030"/>
<path d="M442.048 411C437.048 414.5 426.048 420 426.048 420C426.048 420 424.92 409.956 428.548 405.5C431.064 402.41 434.048 401.5 438.048 399C442.048 396.5 444.548 395.5 446.048 394C446.548 394.5 446.048 402 445.548 404C445.048 406 444.048 408.5 442.048 411Z" fill="#FFA030"/>
<path d="M406.178 394C412.155 398.545 421.886 403 421.886 403C421.886 403 422.993 392.956 419.431 388.5C416.961 385.41 414.032 384.5 410.105 382C406.178 379.5 403.724 378.5 402.252 377C401.761 377.5 402.057 385.5 402.548 387.5C403.039 389.5 403.548 392 406.178 394Z" fill="#FFA030"/>
<path d="M442.048 394C437.048 397.5 426.048 403 426.048 403C426.048 403 424.92 392.956 428.548 388.5C431.064 385.41 434.048 384.5 438.048 382C442.048 379.5 444.548 378.5 446.048 377C446.548 377.5 446.048 385 445.548 387C445.048 389 444.048 391.5 442.048 394Z" fill="#FFA030"/>
<path d="M426 459H422V438H426V459Z" fill="#FFA030"/>
<path d="M402 375C403 376 403.5 376 405 376V348C405 348 404.204 347 403.5 347C402.796 347 402 348 402 348V375Z" fill="#FFA030"/>
<path d="M410 379C410.5 380 412 380.5 413 381V338C413 338 412.204 337 411.5 337C410.796 337 410 338 410 338V379Z" fill="#FFA030"/>
<path d="M421 359C419.5 360 419 360.5 418 362V331C418 331 418.796 330 419.5 330C420.204 330 421 331 421 331V359Z" fill="#FFA030"/>
<path d="M446 375C445 376 444.5 376 443 376V348C443 348 443.796 347 444.5 347C445.204 347 446 348 446 348V375Z" fill="#FFA030"/>
<path d="M438 379C437.5 380 436 380.5 435 381V338C435 338 435.796 337 436.5 337C437.204 337 438 338 438 338V379Z" fill="#FFA030"/>
<path d="M427 359C428.5 360 429 360.5 430 362V331C430 331 429.204 330 428.5 330C427.796 330 427 331 427 331V359Z" fill="#FFA030"/>
<path d="M431 373.5C431 366.858 427 360.5 424 358C421 360.5 417.305 366.219 417 372.5C416.66 379.491 419.5 383.5 424 389C428.5 384 431 380.142 431 373.5Z" fill="#FFA030"/>
<path d="M33 0V106H50V91V16H60.5C60.5 16 63.6183 16.2662 65 17.5C66.4345 18.7809 67 22 67 22V85C67 85 66.1365 88.1792 64.5 89.5C62.9504 90.7507 60 91 60 91H50V106H66C66 106 73.8629 103.526 77.5 100C81.3267 96.2904 84 88 84 88V19C84 19 81.6124 10.71 78 7C74.3876 3.29002 70.7437 1.95086 65.5 0C64.5 5.72205e-06 33 0 33 0Z" fill="#6D59A0"/>
<path d="M0 0V16H33L9 106H25.5L50 16V0H0Z" fill="#D9DF4D"/>
<path d="M122.047 73L129.141 51.625H119.891V50.1562H130.688V51.4375L123.641 73H122.047ZM144.425 61.3594C144.425 69.1198 142.003 73 137.159 73H133.097V50.1562H137.253C139.607 50.1562 141.388 51.1094 142.597 53.0156C143.815 54.9115 144.425 57.6927 144.425 61.3594ZM142.815 61.4531C142.815 58.2344 142.341 55.7812 141.393 54.0938C140.445 52.4062 139.044 51.5625 137.19 51.5625H134.628V71.5938H137.065C139.044 71.5938 140.498 70.7292 141.425 69C142.352 67.2708 142.815 64.7552 142.815 61.4531ZM150.586 65.1562V63.5625H156.993V65.1562H150.586ZM174.951 73H173.42V51.625H165.451V73H163.92V50.1562H174.951V73ZM188.298 56.7188C188.298 59.0729 187.756 60.8021 186.673 61.9062C185.6 63.0104 184.006 63.5625 181.891 63.5625H180.266V73H178.735V50.1562H181.86C184.089 50.1562 185.72 50.6823 186.751 51.7344C187.782 52.7865 188.298 54.4479 188.298 56.7188ZM180.266 62.1562H181.798C183.589 62.1562 184.86 61.7344 185.61 60.8906C186.36 60.0469 186.735 58.6562 186.735 56.7188C186.735 54.875 186.345 53.5573 185.563 52.7656C184.793 51.9635 183.595 51.5625 181.97 51.5625H180.266V62.1562ZM198.925 73H190.644V50.1562H198.925V51.625H192.175V60.2969H198.55V61.7656H192.175V71.5312H198.925V73ZM212.772 73H211.241V51.625H203.272V73H201.741V50.1562H212.772V73ZM225.197 73L223.181 64.7188H217.634L215.65 73H214.056L219.556 50.1562H221.134L226.759 73H225.197ZM222.822 63.1719L220.806 54.6562C220.598 53.6979 220.436 52.7917 220.322 51.9375C220.228 52.8438 220.082 53.75 219.884 54.6562L217.931 63.1719H222.822ZM237.621 56.7188C237.621 59.0729 237.08 60.8021 235.996 61.9062C234.923 63.0104 233.33 63.5625 231.215 63.5625H229.59V73H228.059V50.1562H231.184C233.413 50.1562 235.043 50.6823 236.074 51.7344C237.106 52.7865 237.621 54.4479 237.621 56.7188ZM229.59 62.1562H231.121C232.913 62.1562 234.184 61.7344 234.934 60.8906C235.684 60.0469 236.059 58.6562 236.059 56.7188C236.059 54.875 235.668 53.5573 234.887 52.7656C234.116 51.9635 232.918 51.5625 231.293 51.5625H229.59V62.1562ZM248.608 73L246.593 64.7188H241.046L239.062 73H237.468L242.968 50.1562H244.546L250.171 73H248.608ZM246.233 63.1719L244.218 54.6562C244.009 53.6979 243.848 52.7917 243.733 51.9375C243.64 52.8438 243.494 53.75 243.296 54.6562L241.343 63.1719H246.233ZM255.267 73H253.736V51.625H249.189V50.1562H259.814V51.625H255.267V73ZM263.77 66.3125L258.88 50.1562H260.473L263.942 61.8594C264.057 62.2656 264.234 63.0156 264.473 64.1094H264.614C264.739 63.224 264.885 62.474 265.051 61.8594L268.005 50.1562H269.598L264.505 69.2188C264.119 70.6667 263.64 71.7135 263.067 72.3594C262.494 72.9948 261.749 73.3125 260.833 73.3125C260.333 73.3125 259.874 73.2083 259.458 73V71.5625C259.916 71.75 260.364 71.8438 260.801 71.8438C261.322 71.8438 261.76 71.6146 262.114 71.1562C262.468 70.6875 262.796 69.9167 263.098 68.8438L263.77 66.3125Z" fill="#656565"/>
<path d="M127.641 16.8281H129.172V19.6406C131.359 19.6406 133.068 20.3906 134.297 21.8906C135.536 23.3906 136.156 25.4375 136.156 28.0312C136.156 30.7292 135.536 32.8646 134.297 34.4375C133.057 36.0104 131.349 36.7969 129.172 36.7969V40.3125H127.641V36.7969C126.203 36.7969 124.958 36.4323 123.906 35.7031C122.854 34.9635 122.047 33.9271 121.484 32.5938C120.932 31.2604 120.656 29.7396 120.656 28.0312C120.656 26.4375 120.938 25 121.5 23.7188C122.073 22.4375 122.885 21.4375 123.938 20.7188C125 20 126.234 19.6406 127.641 19.6406V16.8281ZM129.172 35.3906C130.922 35.3906 132.255 34.7552 133.172 33.4844C134.089 32.2031 134.547 30.3854 134.547 28.0312C134.547 23.3854 132.755 21.0625 129.172 21.0625V35.3906ZM127.641 21.0625C125.901 21.0625 124.568 21.6719 123.641 22.8906C122.724 24.1094 122.266 25.8229 122.266 28.0312C122.266 30.3854 122.724 32.2031 123.641 33.4844C124.557 34.7552 125.891 35.3906 127.641 35.3906V21.0625ZM151.503 28.5469C151.503 32.3281 150.935 35.2344 149.8 37.2656C148.675 39.2969 147.044 40.3125 144.909 40.3125C142.753 40.3125 141.117 39.2917 140.003 37.25C138.888 35.1979 138.331 32.2865 138.331 28.5156C138.331 24.5781 138.883 21.6458 139.987 19.7188C141.091 17.7917 142.748 16.8281 144.956 16.8281C147.081 16.8281 148.701 17.8438 149.815 19.875C150.94 21.8958 151.503 24.7865 151.503 28.5469ZM139.925 28.5469C139.925 31.9427 140.347 34.5104 141.19 36.25C142.044 37.9792 143.284 38.8438 144.909 38.8438C146.544 38.8438 147.784 37.9844 148.628 36.2656C149.482 34.5469 149.909 31.974 149.909 28.5469C149.909 25.1615 149.492 22.6094 148.659 20.8906C147.826 19.1615 146.591 18.2969 144.956 18.2969C143.279 18.2969 142.018 19.1719 141.175 20.9219C140.341 22.6615 139.925 25.2031 139.925 28.5469ZM164.099 23.7188C164.099 26.0729 163.558 27.8021 162.474 28.9062C161.401 30.0104 159.808 30.5625 157.693 30.5625H156.068V40H154.537V17.1562H157.662C159.891 17.1562 161.521 17.6823 162.552 18.7344C163.584 19.7865 164.099 21.4479 164.099 23.7188ZM156.068 29.1562H157.599C159.391 29.1562 160.662 28.7344 161.412 27.8906C162.162 27.0469 162.537 25.6562 162.537 23.7188C162.537 21.875 162.146 20.5573 161.365 19.7656C160.594 18.9635 159.396 18.5625 157.771 18.5625H156.068V29.1562ZM173.961 40L167.883 19.2031H167.758C167.862 21.3906 167.915 22.776 167.915 23.3594V40H166.446V17.1562H168.711L173.836 34.625C174.295 36.1667 174.592 37.4792 174.727 38.5625H174.852C174.956 37.7917 175.279 36.4896 175.821 34.6562L180.899 17.1562H183.243V40H181.711V23.4844C181.711 22.8385 181.763 21.4219 181.868 19.2344H181.743L175.696 40H173.961ZM189.433 33.3125L184.542 17.1562H186.136L189.605 28.8594C189.719 29.2656 189.896 30.0156 190.136 31.1094H190.277C190.402 30.224 190.547 29.474 190.714 28.8594L193.667 17.1562H195.261L190.167 36.2188C189.782 37.6667 189.303 38.7135 188.73 39.3594C188.157 39.9948 187.412 40.3125 186.495 40.3125C185.995 40.3125 185.537 40.2083 185.12 40V38.5625C185.579 38.75 186.027 38.8438 186.464 38.8438C186.985 38.8438 187.422 38.6146 187.777 38.1562C188.131 37.6875 188.459 36.9167 188.761 35.8438L189.433 33.3125ZM206.076 40H204.545V18.625H200.061L199.451 26.0625C199.003 31.4792 198.634 34.8906 198.342 36.2969C198.05 37.7031 197.649 38.7083 197.139 39.3125C196.639 39.9167 195.894 40.2188 194.904 40.2188C194.425 40.2188 194.035 40.125 193.732 39.9375V38.5C193.972 38.6667 194.331 38.75 194.811 38.75C195.154 38.75 195.441 38.6823 195.67 38.5469C195.91 38.4115 196.123 38.151 196.311 37.7656C196.509 37.3698 196.68 36.8073 196.826 36.0781C196.982 35.349 197.128 34.3906 197.264 33.2031C197.41 32.0156 197.894 26.6667 198.717 17.1562H206.076V40ZM218.501 40L216.485 31.7188H210.938L208.954 40H207.36L212.86 17.1562H214.438L220.063 40H218.501ZM216.126 30.1719L214.11 21.6562C213.902 20.6979 213.74 19.7917 213.626 18.9375C213.532 19.8438 213.386 20.75 213.188 21.6562L211.235 30.1719H216.126Z" fill="#656565"/>
<path d="M531.062 44.7188C531.062 47.0729 530.521 48.8021 529.438 49.9062C528.365 51.0104 526.771 51.5625 524.656 51.5625H523.031V61H521.5V38.1562H524.625C526.854 38.1562 528.484 38.6823 529.516 39.7344C530.547 40.7865 531.062 42.4479 531.062 44.7188ZM523.031 50.1562H524.562C526.354 50.1562 527.625 49.7344 528.375 48.8906C529.125 48.0469 529.5 46.6562 529.5 44.7188C529.5 42.875 529.109 41.5573 528.328 40.7656C527.557 39.9635 526.359 39.5625 524.734 39.5625H523.031V50.1562ZM545.815 49.5469C545.815 53.3281 545.248 56.2344 544.112 58.2656C542.987 60.2969 541.357 61.3125 539.222 61.3125C537.065 61.3125 535.43 60.2917 534.315 58.25C533.201 56.1979 532.643 53.2865 532.643 49.5156C532.643 45.5781 533.195 42.6458 534.3 40.7188C535.404 38.7917 537.06 37.8281 539.268 37.8281C541.393 37.8281 543.013 38.8438 544.128 40.875C545.253 42.8958 545.815 45.7865 545.815 49.5469ZM534.237 49.5469C534.237 52.9427 534.659 55.5104 535.503 57.25C536.357 58.9792 537.597 59.8438 539.222 59.8438C540.857 59.8438 542.097 58.9844 542.94 57.2656C543.794 55.5469 544.222 52.974 544.222 49.5469C544.222 46.1615 543.805 43.6094 542.972 41.8906C542.138 40.1615 540.904 39.2969 539.268 39.2969C537.591 39.2969 536.331 40.1719 535.487 41.9219C534.654 43.6615 534.237 46.2031 534.237 49.5469ZM557.068 54.8906C557.068 56.9219 556.558 58.5 555.537 59.625C554.516 60.75 553.084 61.3125 551.24 61.3125C549.782 61.3125 548.448 61.026 547.24 60.4531V58.7656C547.771 59.099 548.391 59.3646 549.099 59.5625C549.808 59.75 550.521 59.8438 551.24 59.8438C554.063 59.8438 555.474 58.2031 555.474 54.9219C555.474 53.1927 555.068 51.9219 554.256 51.1094C553.443 50.2969 552.183 49.8906 550.474 49.8906H548.912V48.4219H550.568C552.037 48.4219 553.172 47.9948 553.974 47.1406C554.776 46.2865 555.177 45.0312 555.177 43.375C555.177 42 554.87 40.9792 554.256 40.3125C553.651 39.6354 552.797 39.2969 551.693 39.2969C551.078 39.2969 550.511 39.4323 549.99 39.7031C549.479 39.974 549.047 40.3229 548.693 40.75L547.662 39.6875C548.808 38.4479 550.193 37.8281 551.818 37.8281C553.37 37.8281 554.578 38.3229 555.443 39.3125C556.318 40.2917 556.756 41.6458 556.756 43.375C556.756 44.8646 556.401 46.1146 555.693 47.125C554.995 48.125 554.047 48.7812 552.849 49.0938V49.2188C554.235 49.3958 555.282 49.974 555.99 50.9531C556.709 51.9323 557.068 53.2448 557.068 54.8906ZM571.008 61H569.461V51.2031C567.711 52.1927 566.05 52.6875 564.477 52.6875C561.467 52.6875 559.961 50.776 559.961 46.9531V38.1562H561.493V47.0156C561.493 48.4219 561.743 49.474 562.243 50.1719C562.753 50.8594 563.54 51.2031 564.602 51.2031C565.404 51.2031 566.154 51.1198 566.852 50.9531C567.56 50.776 568.43 50.4115 569.461 49.8594V38.1562H571.008V61ZM574.792 38.1562H576.292V54.125C576.292 54.4792 576.287 54.8333 576.277 55.1875C576.277 55.5312 576.23 56.6042 576.136 58.4062H576.261L584.839 38.1562H586.824V61H585.324V44.6094C585.324 43.2969 585.386 41.9323 585.511 40.5156H585.386L576.745 61H574.792V38.1562ZM601.639 61H600.107V49.7656H592.139V61H590.607V38.1562H592.139V48.2969H600.107V38.1562H601.639V61ZM616.454 61H614.923V49.7656H606.954V61H605.423V38.1562H606.954V48.2969H614.923V38.1562H616.454V61ZM620.238 38.1562H621.738V54.125C621.738 54.4792 621.733 54.8333 621.722 55.1875C621.722 55.5312 621.675 56.6042 621.582 58.4062H621.707L630.285 38.1562H632.269V61H630.769V44.6094C630.769 43.2969 630.832 41.9323 630.957 40.5156H630.832L622.191 61H620.238V38.1562ZM637.585 49.1875L644.053 38.1562H645.71L639.178 49.1875L646.225 61H644.46L637.585 49.3125V61H636.053V38.1562H637.585V49.1875ZM647.525 38.1562H649.025V54.125C649.025 54.4792 649.02 54.8333 649.009 55.1875C649.009 55.5312 648.962 56.6042 648.868 58.4062H648.993L657.572 38.1562H659.556V61H658.056V44.6094C658.056 43.2969 658.118 41.9323 658.243 40.5156H658.118L649.478 61H647.525V38.1562ZM661.668 53.1562V51.5625H668.074V53.1562H661.668ZM678.827 61L676.811 52.7188H671.265L669.28 61H667.686L673.186 38.1562H674.765L680.39 61H678.827ZM676.452 51.1719L674.436 42.6562C674.228 41.6979 674.067 40.7917 673.952 39.9375C673.858 40.8438 673.713 41.75 673.515 42.6562L671.561 51.1719H676.452ZM693.205 66.7656H691.736V61H680.814V66.7656H679.346V59.5312H680.721C681.95 55.7917 682.819 52.3021 683.33 49.0625C683.851 45.8229 684.111 42.1875 684.111 38.1562H691.252V59.5312H693.205V66.7656ZM689.721 59.5312V39.625H685.658C685.429 46.9688 684.309 53.6042 682.299 59.5312H689.721ZM696.88 38.5C696.213 40.7708 695.348 43.099 694.286 45.4844H693.301C694.083 42.8281 694.603 40.3854 694.864 38.1562H696.661L696.88 38.5ZM716.257 49.5469C716.257 53.3073 715.736 56.2083 714.695 58.25C713.663 60.2917 712.169 61.3125 710.21 61.3125C708.283 61.3125 706.799 60.3281 705.757 58.3594C704.716 56.3906 704.184 53.526 704.163 49.7656H700.382V61H698.851V38.1562H700.382V48.2969H704.163C704.341 41.3177 706.367 37.8281 710.242 37.8281C712.179 37.8281 713.663 38.8333 714.695 40.8438C715.736 42.8542 716.257 45.7552 716.257 49.5469ZM705.757 49.5469C705.757 52.9427 706.137 55.5104 706.898 57.25C707.658 58.9792 708.762 59.8438 710.21 59.8438C711.669 59.8438 712.773 58.974 713.523 57.2344C714.273 55.4844 714.648 52.9219 714.648 49.5469C714.648 46.1406 714.273 43.5833 713.523 41.875C712.783 40.1562 711.69 39.2969 710.242 39.2969C708.762 39.2969 707.643 40.1667 706.882 41.9062C706.132 43.6354 705.757 46.1823 705.757 49.5469ZM719.26 38.1562H723.635C725.427 38.1562 726.802 38.6146 727.76 39.5312C728.729 40.4479 729.213 41.8021 729.213 43.5938C729.213 46.6875 728.083 48.4583 725.822 48.9062V49.0312C727.125 49.3021 728.093 49.8854 728.729 50.7812C729.364 51.6667 729.682 52.9062 729.682 54.5C729.682 56.5417 729.229 58.1354 728.322 59.2812C727.416 60.4271 726.145 61 724.51 61H719.26V38.1562ZM720.791 48.3281H723.666C725.093 48.3281 726.109 47.9375 726.713 47.1562C727.328 46.3646 727.635 45.1667 727.635 43.5625C727.635 42.2708 727.296 41.2812 726.619 40.5938C725.953 39.9062 724.958 39.5625 723.635 39.5625H720.791V48.3281ZM720.791 49.7344V59.5938H724.307C726.828 59.5938 728.088 57.8854 728.088 54.4688C728.088 52.9479 727.718 51.7812 726.979 50.9688C726.239 50.1458 725.203 49.7344 723.869 49.7344H720.791ZM740.872 61L738.857 52.7188H733.31L731.325 61H729.732L735.232 38.1562H736.81L742.435 61H740.872ZM738.497 51.1719L736.482 42.6562C736.273 41.6979 736.112 40.7917 735.997 39.9375C735.903 40.8438 735.758 41.75 735.56 42.6562L733.607 51.1719H738.497ZM754.766 61H753.234V49.7656H745.266V61H743.734V38.1562H745.266V48.2969H753.234V38.1562H754.766V61ZM762.346 61H760.815V39.625H756.268V38.1562H766.893V39.625H762.346V61ZM768.458 38.1562H769.958V54.125C769.958 54.4792 769.953 54.8333 769.943 55.1875C769.943 55.5312 769.896 56.6042 769.802 58.4062H769.927L778.505 38.1562H780.49V61H778.99V44.6094C778.99 43.2969 779.052 41.9323 779.177 40.5156H779.052L770.412 61H768.458V38.1562Z" fill="#656565"/>
<path d="M532.531 95H531V73.625H523.031V95H521.5V72.1562H532.531V95ZM545.878 78.7188C545.878 81.0729 545.336 82.8021 544.253 83.9062C543.18 85.0104 541.586 85.5625 539.472 85.5625H537.847V95H536.315V72.1562H539.44C541.669 72.1562 543.3 72.6823 544.331 73.7344C545.362 74.7865 545.878 76.4479 545.878 78.7188ZM537.847 84.1562H539.378C541.169 84.1562 542.44 83.7344 543.19 82.8906C543.94 82.0469 544.315 80.6562 544.315 78.7188C544.315 76.875 543.925 75.5573 543.143 74.7656C542.373 73.9635 541.175 73.5625 539.55 73.5625H537.847V84.1562ZM548.224 72.1562H549.724V88.125C549.724 88.4792 549.719 88.8333 549.709 89.1875C549.709 89.5312 549.662 90.6042 549.568 92.4062H549.693L558.271 72.1562H560.256V95H558.756V78.6094C558.756 77.2969 558.818 75.9323 558.943 74.5156H558.818L550.177 95H548.224V72.1562ZM573.571 95H572.04V73.625H567.555L566.946 81.0625C566.498 86.4792 566.128 89.8906 565.836 91.2969C565.545 92.7031 565.144 93.7083 564.633 94.3125C564.133 94.9167 563.388 95.2188 562.399 95.2188C561.92 95.2188 561.529 95.125 561.227 94.9375V93.5C561.467 93.6667 561.826 93.75 562.305 93.75C562.649 93.75 562.935 93.6823 563.165 93.5469C563.404 93.4115 563.618 93.151 563.805 92.7656C564.003 92.3698 564.175 91.8073 564.321 91.0781C564.477 90.349 564.623 89.3906 564.758 88.2031C564.904 87.0156 565.388 81.6667 566.211 72.1562H573.571V95ZM577.355 72.1562H578.855V88.125C578.855 88.4792 578.85 88.8333 578.839 89.1875C578.839 89.5312 578.792 90.6042 578.699 92.4062H578.824L587.402 72.1562H589.386V95H587.886V78.6094C587.886 77.2969 587.949 75.9323 588.074 74.5156H587.949L579.308 95H577.355V72.1562ZM604.201 95H602.67V73.625H594.701V95H593.17V72.1562H604.201V95ZM616.626 95L614.61 86.7188H609.063L607.079 95H605.485L610.985 72.1562H612.563L618.188 95H616.626ZM614.251 85.1719L612.235 76.6562C612.027 75.6979 611.865 74.7917 611.751 73.9375C611.657 74.8438 611.511 75.75 611.313 76.6562L609.36 85.1719H614.251ZM630.144 95H628.597V85.2031C626.847 86.1927 625.186 86.6875 623.613 86.6875C620.603 86.6875 619.097 84.776 619.097 80.9531V72.1562H620.629V81.0156C620.629 82.4219 620.879 83.474 621.379 84.1719C621.889 84.8594 622.675 85.2031 623.738 85.2031C624.54 85.2031 625.29 85.1198 625.988 84.9531C626.696 84.776 627.566 84.4115 628.597 83.8594V72.1562H630.144V95ZM633.928 95V72.1562H635.46V95H633.928ZM643.184 86.2344C643.184 83.5365 643.59 80.9635 644.403 78.5156C645.215 76.0573 646.356 73.9375 647.824 72.1562H649.074C647.679 74.2188 646.621 76.4583 645.903 78.875C645.184 81.2812 644.824 83.724 644.824 86.2031C644.824 88.7344 645.199 91.2292 645.949 93.6875C646.71 96.1458 647.741 98.2708 649.043 100.062H647.824C646.335 98.3229 645.189 96.2552 644.387 93.8594C643.585 91.4635 643.184 88.9219 643.184 86.2344ZM662.718 95H661.186V83.7656H653.218V95H651.686V72.1562H653.218V82.2969H661.186V72.1562H662.718V95ZM675.142 95L673.127 86.7188H667.58L665.596 95H664.002L669.502 72.1562H671.08L676.705 95H675.142ZM672.767 85.1719L670.752 76.6562C670.543 75.6979 670.382 74.7917 670.267 73.9375C670.174 74.8438 670.028 75.75 669.83 76.6562L667.877 85.1719H672.767ZM681.801 95H680.27V73.625H675.723V72.1562H686.348V73.625H681.801V95ZM692.07 85.0156L687.82 95H686.085L690.632 84.7969C689.486 84.4948 688.591 83.8073 687.945 82.7344C687.299 81.651 686.976 80.3125 686.976 78.7188C686.976 74.3438 688.95 72.1562 692.898 72.1562H696.617V95H695.07V85.0469L692.07 85.0156ZM695.07 73.5625H693.132C691.507 73.5625 690.341 73.9635 689.632 74.7656C688.934 75.5677 688.585 76.8594 688.585 78.6406C688.585 80.3698 688.913 81.6406 689.57 82.4531C690.226 83.2656 691.273 83.6719 692.71 83.6719H695.07V73.5625ZM708.385 72.1562V73.625H701.947V95H700.416V72.1562H708.385ZM712.31 88.3125L707.419 72.1562H709.013L712.482 83.8594C712.596 84.2656 712.773 85.0156 713.013 86.1094H713.153C713.278 85.224 713.424 84.474 713.591 83.8594L716.544 72.1562H718.138L713.044 91.2188C712.659 92.6667 712.179 93.7135 711.607 94.3594C711.034 94.9948 710.289 95.3125 709.372 95.3125C708.872 95.3125 708.414 95.2083 707.997 95V93.5625C708.455 93.75 708.903 93.8438 709.341 93.8438C709.862 93.8438 710.299 93.6146 710.653 93.1562C711.008 92.6875 711.336 91.9167 711.638 90.8438L712.31 88.3125ZM719.422 72.1562H723.797C725.588 72.1562 726.963 72.6146 727.922 73.5312C728.891 74.4479 729.375 75.8021 729.375 77.5938C729.375 80.6875 728.245 82.4583 725.984 82.9062V83.0312C727.286 83.3021 728.255 83.8854 728.891 84.7812C729.526 85.6667 729.844 86.9062 729.844 88.5C729.844 90.5417 729.391 92.1354 728.484 93.2812C727.578 94.4271 726.307 95 724.672 95H719.422V72.1562ZM720.953 82.3281H723.828C725.255 82.3281 726.271 81.9375 726.875 81.1562C727.489 80.3646 727.797 79.1667 727.797 77.5625C727.797 76.2708 727.458 75.2812 726.781 74.5938C726.114 73.9062 725.12 73.5625 723.797 73.5625H720.953V82.3281ZM720.953 83.7344V93.5938H724.469C726.989 93.5938 728.25 91.8854 728.25 88.4688C728.25 86.9479 727.88 85.7812 727.141 84.9688C726.401 84.1458 725.364 83.7344 724.031 83.7344H720.953ZM741.034 95L739.018 86.7188H733.471L731.487 95H729.893L735.393 72.1562H736.971L742.596 95H741.034ZM738.659 85.1719L736.643 76.6562C736.435 75.6979 736.273 74.7917 736.159 73.9375C736.065 74.8438 735.919 75.75 735.721 76.6562L733.768 85.1719H738.659ZM754.552 95H753.005V85.2031C751.255 86.1927 749.594 86.6875 748.021 86.6875C745.011 86.6875 743.505 84.776 743.505 80.9531V72.1562H745.037V81.0156C745.037 82.4219 745.287 83.474 745.787 84.1719C746.297 84.8594 747.083 85.2031 748.146 85.2031C748.948 85.2031 749.698 85.1198 750.396 84.9531C751.104 84.776 751.974 84.4115 753.005 83.8594V72.1562H754.552V95ZM758.336 95V72.1562H759.868V95H758.336ZM768.355 86.2344C768.355 88.9219 767.954 91.4688 767.152 93.875C766.36 96.2708 765.214 98.3333 763.714 100.062H762.495C763.839 98.1771 764.875 96.0156 765.605 93.5781C766.344 91.1406 766.714 88.6823 766.714 86.2031C766.714 83.7135 766.355 81.2708 765.636 78.875C764.917 76.4688 763.86 74.2292 762.464 72.1562H763.714C765.204 73.9271 766.349 76.0469 767.152 78.5156C767.954 80.9844 768.355 83.5573 768.355 86.2344Z" fill="#656565"/>
<path d="M532.531 131H531V109.625H523.031V131H521.5V108.156H532.531V131ZM548.722 119.547C548.722 123.328 548.154 126.234 547.018 128.266C545.893 130.297 544.263 131.312 542.128 131.312C539.972 131.312 538.336 130.292 537.222 128.25C536.107 126.198 535.55 123.286 535.55 119.516C535.55 115.578 536.102 112.646 537.206 110.719C538.31 108.792 539.966 107.828 542.175 107.828C544.3 107.828 545.919 108.844 547.034 110.875C548.159 112.896 548.722 115.786 548.722 119.547ZM537.143 119.547C537.143 122.943 537.565 125.51 538.409 127.25C539.263 128.979 540.503 129.844 542.128 129.844C543.763 129.844 545.003 128.984 545.847 127.266C546.701 125.547 547.128 122.974 547.128 119.547C547.128 116.161 546.711 113.609 545.878 111.891C545.044 110.161 543.81 109.297 542.175 109.297C540.498 109.297 539.237 110.172 538.393 111.922C537.56 113.661 537.143 116.203 537.143 119.547ZM561.287 131H559.756V109.625H555.271L554.662 117.062C554.214 122.479 553.844 125.891 553.552 127.297C553.261 128.703 552.86 129.708 552.349 130.312C551.849 130.917 551.104 131.219 550.115 131.219C549.636 131.219 549.245 131.125 548.943 130.938V129.5C549.183 129.667 549.542 129.75 550.021 129.75C550.365 129.75 550.651 129.682 550.881 129.547C551.12 129.411 551.334 129.151 551.521 128.766C551.719 128.37 551.891 127.807 552.037 127.078C552.193 126.349 552.339 125.391 552.474 124.203C552.62 123.016 553.104 117.667 553.927 108.156H561.287V131ZM565.071 131V108.156H566.602V131H565.071ZM576.839 109.266C575.12 109.266 573.751 110.177 572.73 112C571.719 113.812 571.214 116.328 571.214 119.547C571.214 121.641 571.449 123.464 571.917 125.016C572.386 126.568 573.058 127.76 573.933 128.594C574.808 129.427 575.824 129.844 576.98 129.844C578.167 129.844 579.188 129.63 580.042 129.203V130.609C579.23 131.078 578.162 131.312 576.839 131.312C575.391 131.312 574.12 130.844 573.027 129.906C571.943 128.969 571.105 127.615 570.511 125.844C569.917 124.062 569.62 121.953 569.62 119.516C569.62 115.87 570.266 113.005 571.558 110.922C572.86 108.839 574.631 107.797 576.87 107.797C578.266 107.797 579.485 108.12 580.527 108.766L579.824 110.109C578.949 109.547 577.954 109.266 576.839 109.266ZM591.248 131L589.233 122.719H583.686L581.701 131H580.108L585.608 108.156H587.186L592.811 131H591.248ZM588.873 121.172L586.858 112.656C586.649 111.698 586.488 110.792 586.373 109.938C586.279 110.844 586.134 111.75 585.936 112.656L583.983 121.172H588.873ZM602.454 131H600.86L597.438 120.5L593.47 131H591.923L596.704 118.875L592.595 108.156H594.204L597.595 117.656L600.892 108.156H602.454L598.423 119.219L602.454 131ZM612.722 131L610.707 122.719H605.16L603.175 131H601.582L607.082 108.156H608.66L614.285 131H612.722ZM610.347 121.172L608.332 112.656C608.123 111.698 607.962 110.792 607.847 109.938C607.754 110.844 607.608 111.75 607.41 112.656L605.457 121.172H610.347ZM625.147 114.719C625.147 117.073 624.605 118.802 623.522 119.906C622.449 121.01 620.855 121.562 618.741 121.562H617.116V131H615.585V108.156H618.71C620.939 108.156 622.569 108.682 623.6 109.734C624.631 110.786 625.147 112.448 625.147 114.719ZM617.116 120.156H618.647C620.439 120.156 621.71 119.734 622.46 118.891C623.21 118.047 623.585 116.656 623.585 114.719C623.585 112.875 623.194 111.557 622.413 110.766C621.642 109.964 620.444 109.562 618.819 109.562H617.116V120.156ZM627.493 108.156H628.993V124.125C628.993 124.479 628.988 124.833 628.978 125.188C628.978 125.531 628.931 126.604 628.837 128.406H628.962L637.54 108.156H639.525V131H638.025V114.609C638.025 113.297 638.087 111.932 638.212 110.516H638.087L629.447 131H627.493V108.156ZM654.824 136.766H653.356V131H642.434V136.766H640.965V129.531H642.34C643.569 125.792 644.439 122.302 644.949 119.062C645.47 115.823 645.731 112.188 645.731 108.156H652.871V129.531H654.824V136.766ZM651.34 129.531V109.625H647.278C647.048 116.969 645.929 123.604 643.918 129.531H651.34ZM656.749 108.156H658.249V124.125C658.249 124.479 658.244 124.833 658.233 125.188C658.233 125.531 658.186 126.604 658.093 128.406H658.218L666.796 108.156H668.78V131H667.28V114.609C667.28 113.297 667.343 111.932 667.468 110.516H667.343L658.702 131H656.749V108.156ZM685.598 124.891C685.598 126.922 685.088 128.5 684.067 129.625C683.046 130.75 681.614 131.312 679.77 131.312C678.312 131.312 676.978 131.026 675.77 130.453V128.766C676.301 129.099 676.921 129.365 677.63 129.562C678.338 129.75 679.051 129.844 679.77 129.844C682.593 129.844 684.005 128.203 684.005 124.922C684.005 123.193 683.598 121.922 682.786 121.109C681.973 120.297 680.713 119.891 679.005 119.891H677.442V118.422H679.098C680.567 118.422 681.702 117.995 682.505 117.141C683.307 116.286 683.708 115.031 683.708 113.375C683.708 112 683.4 110.979 682.786 110.312C682.182 109.635 681.327 109.297 680.223 109.297C679.609 109.297 679.041 109.432 678.52 109.703C678.01 109.974 677.577 110.323 677.223 110.75L676.192 109.688C677.338 108.448 678.723 107.828 680.348 107.828C681.9 107.828 683.109 108.323 683.973 109.312C684.848 110.292 685.286 111.646 685.286 113.375C685.286 114.865 684.932 116.115 684.223 117.125C683.525 118.125 682.577 118.781 681.38 119.094V119.219C682.765 119.396 683.812 119.974 684.52 120.953C685.239 121.932 685.598 123.245 685.598 124.891ZM699.838 107.828H701.369V110.641C703.557 110.641 705.265 111.391 706.494 112.891C707.734 114.391 708.354 116.438 708.354 119.031C708.354 121.729 707.734 123.865 706.494 125.438C705.255 127.01 703.546 127.797 701.369 127.797V131.312H699.838V127.797C698.401 127.797 697.156 127.432 696.104 126.703C695.052 125.964 694.244 124.927 693.682 123.594C693.13 122.26 692.854 120.74 692.854 119.031C692.854 117.438 693.135 116 693.697 114.719C694.27 113.438 695.083 112.438 696.135 111.719C697.197 111 698.432 110.641 699.838 110.641V107.828ZM701.369 126.391C703.119 126.391 704.453 125.755 705.369 124.484C706.286 123.203 706.744 121.385 706.744 119.031C706.744 114.385 704.953 112.062 701.369 112.062V126.391ZM699.838 112.062C698.099 112.062 696.765 112.672 695.838 113.891C694.921 115.109 694.463 116.823 694.463 119.031C694.463 121.385 694.921 123.203 695.838 124.484C696.755 125.755 698.088 126.391 699.838 126.391V112.062ZM720.857 114.719C720.857 117.073 720.315 118.802 719.232 119.906C718.159 121.01 716.565 121.562 714.45 121.562H712.825V131H711.294V108.156H714.419C716.648 108.156 718.278 108.682 719.31 109.734C720.341 110.786 720.857 112.448 720.857 114.719ZM712.825 120.156H714.357C716.148 120.156 717.419 119.734 718.169 118.891C718.919 118.047 719.294 116.656 719.294 114.719C719.294 112.875 718.903 111.557 718.122 110.766C717.351 109.964 716.153 109.562 714.528 109.562H712.825V120.156ZM731.844 131L729.828 122.719H724.281L722.297 131H720.703L726.203 108.156H727.781L733.406 131H731.844ZM729.469 121.172L727.453 112.656C727.245 111.698 727.083 110.792 726.969 109.938C726.875 110.844 726.729 111.75 726.531 112.656L724.578 121.172H729.469ZM742.674 108.156V109.625H736.237V131H734.706V108.156H742.674ZM751.724 131L745.646 110.203H745.521C745.625 112.391 745.677 113.776 745.677 114.359V131H744.208V108.156H746.474L751.599 125.625C752.057 127.167 752.354 128.479 752.49 129.562H752.615C752.719 128.792 753.042 127.49 753.583 125.656L758.662 108.156H761.005V131H759.474V114.484C759.474 113.839 759.526 112.422 759.63 110.234H759.505L753.458 131H751.724ZM773.086 131H764.805V108.156H773.086V109.625H766.336V118.297H772.711V119.766H766.336V129.531H773.086V131ZM786.933 131H785.402V119.766H777.433V131H775.902V108.156H777.433V118.297H785.402V108.156H786.933V131ZM794.514 131H792.982V109.625H788.435V108.156H799.06V109.625H794.514V131ZM809.266 131L807.251 122.719H801.704L799.72 131H798.126L803.626 108.156H805.204L810.829 131H809.266ZM806.891 121.172L804.876 112.656C804.667 111.698 804.506 110.792 804.391 109.938C804.298 110.844 804.152 111.75 803.954 112.656L802.001 121.172H806.891ZM819.644 131L813.566 110.203H813.441C813.545 112.391 813.597 113.776 813.597 114.359V131H812.129V108.156H814.394L819.519 125.625C819.977 127.167 820.274 128.479 820.41 129.562H820.535C820.639 128.792 820.962 127.49 821.504 125.656L826.582 108.156H828.925V131H827.394V114.484C827.394 113.839 827.446 112.422 827.55 110.234H827.425L821.379 131H819.644ZM832.725 108.156H834.225V124.125C834.225 124.479 834.22 124.833 834.209 125.188C834.209 125.531 834.163 126.604 834.069 128.406H834.194L842.772 108.156H844.756V131H843.256V114.609C843.256 113.297 843.319 111.932 843.444 110.516H843.319L834.678 131H832.725V108.156ZM853.355 108.156H857.73C859.522 108.156 860.897 108.615 861.855 109.531C862.824 110.448 863.309 111.802 863.309 113.594C863.309 116.688 862.178 118.458 859.918 118.906V119.031C861.22 119.302 862.189 119.885 862.824 120.781C863.46 121.667 863.777 122.906 863.777 124.5C863.777 126.542 863.324 128.135 862.418 129.281C861.512 130.427 860.241 131 858.605 131H853.355V108.156ZM854.887 118.328H857.762C859.189 118.328 860.204 117.938 860.809 117.156C861.423 116.365 861.73 115.167 861.73 113.562C861.73 112.271 861.392 111.281 860.715 110.594C860.048 109.906 859.053 109.562 857.73 109.562H854.887V118.328ZM854.887 119.734V129.594H858.402C860.923 129.594 862.184 127.885 862.184 124.469C862.184 122.948 861.814 121.781 861.074 120.969C860.335 120.146 859.298 119.734 857.965 119.734H854.887ZM866.327 131V108.156H867.858V131H866.327ZM875.439 131H873.908V109.625H869.361V108.156H879.986V109.625H875.439V131ZM890.192 131L888.176 122.719H882.629L880.645 131H879.051L884.551 108.156H886.129L891.754 131H890.192ZM887.817 121.172L885.801 112.656C885.593 111.698 885.431 110.792 885.317 109.938C885.223 110.844 885.077 111.75 884.879 112.656L882.926 121.172H887.817ZM900.57 131L894.492 110.203H894.367C894.471 112.391 894.523 113.776 894.523 114.359V131H893.054V108.156H895.32L900.445 125.625C900.903 127.167 901.2 128.479 901.335 129.562H901.46C901.564 128.792 901.887 127.49 902.429 125.656L907.507 108.156H909.851V131H908.32V114.484C908.32 113.839 908.372 112.422 908.476 110.234H908.351L902.304 131H900.57ZM913.651 131V108.156H915.182V131H913.651ZM929.997 131H928.466V119.766H920.497V131H918.966V108.156H920.497V118.297H928.466V108.156H929.997V131ZM933.781 131V108.156H935.312V131H933.781ZM939.096 108.156H943.471C945.263 108.156 946.638 108.615 947.596 109.531C948.565 110.448 949.049 111.802 949.049 113.594C949.049 116.688 947.919 118.458 945.659 118.906V119.031C946.961 119.302 947.93 119.885 948.565 120.781C949.2 121.667 949.518 122.906 949.518 124.5C949.518 126.542 949.065 128.135 948.159 129.281C947.253 130.427 945.982 131 944.346 131H939.096V108.156ZM940.628 118.328H943.503C944.93 118.328 945.945 117.938 946.549 117.156C947.164 116.365 947.471 115.167 947.471 113.562C947.471 112.271 947.133 111.281 946.456 110.594C945.789 109.906 944.794 109.562 943.471 109.562H940.628V118.328ZM940.628 119.734V129.594H944.143C946.664 129.594 947.924 127.885 947.924 124.469C947.924 122.948 947.555 121.781 946.815 120.969C946.075 120.146 945.039 119.734 943.706 119.734H940.628Z" fill="#656565"/>
<path d="M530.141 166L528.125 157.719H522.578L520.594 166H519L524.5 143.156H526.078L531.703 166H530.141ZM527.766 156.172L525.75 147.656C525.542 146.698 525.38 145.792 525.266 144.938C525.172 145.844 525.026 146.75 524.828 147.656L522.875 156.172H527.766ZM540.518 166L534.44 145.203H534.315C534.419 147.391 534.472 148.776 534.472 149.359V166H533.003V143.156H535.268L540.393 160.625C540.852 162.167 541.149 163.479 541.284 164.562H541.409C541.513 163.792 541.836 162.49 542.378 160.656L547.456 143.156H549.8V166H548.268V149.484C548.268 148.839 548.32 147.422 548.425 145.234H548.3L542.253 166H540.518ZM553.599 166V143.156H555.131V166H553.599ZM569.946 166H568.415V154.766H560.446V166H558.915V143.156H560.446V153.297H568.415V143.156H569.946V166ZM586.136 154.547C586.136 158.328 585.568 161.234 584.433 163.266C583.308 165.297 581.678 166.312 579.542 166.312C577.386 166.312 575.751 165.292 574.636 163.25C573.521 161.198 572.964 158.286 572.964 154.516C572.964 150.578 573.516 147.646 574.62 145.719C575.725 143.792 577.381 142.828 579.589 142.828C581.714 142.828 583.334 143.844 584.449 145.875C585.574 147.896 586.136 150.786 586.136 154.547ZM574.558 154.547C574.558 157.943 574.98 160.51 575.824 162.25C576.678 163.979 577.917 164.844 579.542 164.844C581.178 164.844 582.417 163.984 583.261 162.266C584.115 160.547 584.542 157.974 584.542 154.547C584.542 151.161 584.126 148.609 583.292 146.891C582.459 145.161 581.225 144.297 579.589 144.297C577.912 144.297 576.652 145.172 575.808 146.922C574.975 148.661 574.558 151.203 574.558 154.547ZM590.701 154.188L597.17 143.156H598.826L592.295 154.188L599.342 166H597.576L590.701 154.312V166H589.17V143.156H590.701V154.188ZM600.642 143.156H602.142V159.125C602.142 159.479 602.136 159.833 602.126 160.188C602.126 160.531 602.079 161.604 601.985 163.406H602.11L610.688 143.156H612.673V166H611.173V149.609C611.173 148.297 611.235 146.932 611.36 145.516H611.235L602.595 166H600.642V143.156ZM622.91 144.266C621.191 144.266 619.821 145.177 618.8 147C617.79 148.812 617.285 151.328 617.285 154.547C617.285 156.641 617.519 158.464 617.988 160.016C618.457 161.568 619.129 162.76 620.004 163.594C620.879 164.427 621.894 164.844 623.05 164.844C624.238 164.844 625.259 164.63 626.113 164.203V165.609C625.3 166.078 624.233 166.312 622.91 166.312C621.462 166.312 620.191 165.844 619.097 164.906C618.014 163.969 617.175 162.615 616.582 160.844C615.988 159.062 615.691 156.953 615.691 154.516C615.691 150.87 616.337 148.005 617.629 145.922C618.931 143.839 620.702 142.797 622.941 142.797C624.337 142.797 625.556 143.12 626.597 143.766L625.894 145.109C625.019 144.547 624.024 144.266 622.91 144.266ZM638.21 166H636.678V144.625H632.194L631.585 152.062C631.137 157.479 630.767 160.891 630.475 162.297C630.183 163.703 629.782 164.708 629.272 165.312C628.772 165.917 628.027 166.219 627.038 166.219C626.558 166.219 626.168 166.125 625.866 165.938V164.5C626.105 164.667 626.465 164.75 626.944 164.75C627.288 164.75 627.574 164.682 627.803 164.547C628.043 164.411 628.256 164.151 628.444 163.766C628.642 163.37 628.814 162.807 628.96 162.078C629.116 161.349 629.262 160.391 629.397 159.203C629.543 158.016 630.027 152.667 630.85 143.156H638.21V166ZM654.4 154.547C654.4 158.328 653.832 161.234 652.697 163.266C651.572 165.297 649.941 166.312 647.806 166.312C645.65 166.312 644.014 165.292 642.9 163.25C641.785 161.198 641.228 158.286 641.228 154.516C641.228 150.578 641.78 147.646 642.884 145.719C643.988 143.792 645.645 142.828 647.853 142.828C649.978 142.828 651.598 143.844 652.712 145.875C653.837 147.896 654.4 150.786 654.4 154.547ZM642.822 154.547C642.822 157.943 643.243 160.51 644.087 162.25C644.941 163.979 646.181 164.844 647.806 164.844C649.441 164.844 650.681 163.984 651.525 162.266C652.379 160.547 652.806 157.974 652.806 154.547C652.806 151.161 652.389 148.609 651.556 146.891C650.723 145.161 649.488 144.297 647.853 144.297C646.176 144.297 644.915 145.172 644.072 146.922C643.238 148.661 642.822 151.203 642.822 154.547ZM661.231 166H659.699V144.625H655.152V143.156H665.777V144.625H661.231V166ZM667.343 143.156H668.843V159.125C668.843 159.479 668.838 159.833 668.827 160.188C668.827 160.531 668.78 161.604 668.686 163.406H668.811L677.39 143.156H679.374V166H677.874V149.609C677.874 148.297 677.936 146.932 678.061 145.516H677.936L669.296 166H667.343V143.156Z" fill="#656565"/>
<path d="M529.844 202H528.25L524.828 191.5L520.859 202H519.312L524.094 189.875L519.984 179.156H521.594L524.984 188.656L528.281 179.156H529.844L525.812 190.219L529.844 202ZM539.753 202H531.472V179.156H539.753V180.625H533.003V189.297H539.378V190.766H533.003V200.531H539.753V202ZM552.099 202H550.568V180.625H546.084L545.474 188.062C545.026 193.479 544.657 196.891 544.365 198.297C544.073 199.703 543.672 200.708 543.162 201.312C542.662 201.917 541.917 202.219 540.927 202.219C540.448 202.219 540.058 202.125 539.756 201.938V200.5C539.995 200.667 540.354 200.75 540.834 200.75C541.177 200.75 541.464 200.682 541.693 200.547C541.933 200.411 542.146 200.151 542.334 199.766C542.532 199.37 542.703 198.807 542.849 198.078C543.006 197.349 543.151 196.391 543.287 195.203C543.433 194.016 543.917 188.667 544.74 179.156H552.099V202ZM564.524 202L562.508 193.719H556.961L554.977 202H553.383L558.883 179.156H560.461L566.086 202H564.524ZM562.149 192.172L560.133 183.656C559.925 182.698 559.763 181.792 559.649 180.938C559.555 181.844 559.409 182.75 559.211 183.656L557.258 192.172H562.149ZM571.183 202H569.652V180.625H565.105V179.156H575.73V180.625H571.183V202ZM588.326 202H586.795V190.766H578.826V202H577.295V179.156H578.826V189.297H586.795V179.156H588.326V202ZM592.11 202V179.156H593.642V202H592.11ZM603.772 190.188L610.241 179.156H611.897L605.366 190.188L612.413 202H610.647L603.772 190.312V202H602.241V179.156H603.772V190.188ZM626.118 190.547C626.118 194.328 625.551 197.234 624.415 199.266C623.29 201.297 621.66 202.312 619.525 202.312C617.368 202.312 615.733 201.292 614.618 199.25C613.504 197.198 612.947 194.286 612.947 190.516C612.947 186.578 613.499 183.646 614.603 181.719C615.707 179.792 617.363 178.828 619.572 178.828C621.697 178.828 623.316 179.844 624.431 181.875C625.556 183.896 626.118 186.786 626.118 190.547ZM614.54 190.547C614.54 193.943 614.962 196.51 615.806 198.25C616.66 199.979 617.9 200.844 619.525 200.844C621.16 200.844 622.4 199.984 623.243 198.266C624.098 196.547 624.525 193.974 624.525 190.547C624.525 187.161 624.108 184.609 623.275 182.891C622.441 181.161 621.207 180.297 619.572 180.297C617.895 180.297 616.634 181.172 615.79 182.922C614.957 184.661 614.54 187.203 614.54 190.547ZM636.668 202L630.59 181.203H630.465C630.569 183.391 630.621 184.776 630.621 185.359V202H629.153V179.156H631.418L636.543 196.625C637.001 198.167 637.298 199.479 637.434 200.562H637.559C637.663 199.792 637.986 198.49 638.528 196.656L643.606 179.156H645.949V202H644.418V185.484C644.418 184.839 644.47 183.422 644.574 181.234H644.449L638.403 202H636.668ZM660.78 202H659.249V180.625H651.28V202H649.749V179.156H660.78V202ZM674.096 202H672.564V180.625H668.08L667.471 188.062C667.023 193.479 666.653 196.891 666.361 198.297C666.069 199.703 665.668 200.708 665.158 201.312C664.658 201.917 663.913 202.219 662.924 202.219C662.444 202.219 662.054 202.125 661.752 201.938V200.5C661.991 200.667 662.351 200.75 662.83 200.75C663.174 200.75 663.46 200.682 663.689 200.547C663.929 200.411 664.142 200.151 664.33 199.766C664.528 199.37 664.7 198.807 664.846 198.078C665.002 197.349 665.148 196.391 665.283 195.203C665.429 194.016 665.913 188.667 666.736 179.156H674.096V202ZM686.161 202H677.88V179.156H686.161V180.625H679.411V189.297H685.786V190.766H679.411V200.531H686.161V202ZM690.507 190.188L696.976 179.156H698.632L692.101 190.188L699.148 202H697.382L690.507 190.312V202H688.976V179.156H690.507V190.188ZM706.901 180.266C705.182 180.266 703.812 181.177 702.791 183C701.781 184.812 701.276 187.328 701.276 190.547C701.276 192.641 701.51 194.464 701.979 196.016C702.447 197.568 703.119 198.76 703.994 199.594C704.869 200.427 705.885 200.844 707.041 200.844C708.229 200.844 709.25 200.63 710.104 200.203V201.609C709.291 202.078 708.224 202.312 706.901 202.312C705.453 202.312 704.182 201.844 703.088 200.906C702.005 199.969 701.166 198.615 700.572 196.844C699.979 195.062 699.682 192.953 699.682 190.516C699.682 186.87 700.328 184.005 701.619 181.922C702.921 179.839 704.692 178.797 706.932 178.797C708.328 178.797 709.546 179.12 710.588 179.766L709.885 181.109C709.01 180.547 708.015 180.266 706.901 180.266ZM712.669 179.156H714.169V195.125C714.169 195.479 714.164 195.833 714.153 196.188C714.153 196.531 714.107 197.604 714.013 199.406H714.138L722.716 179.156H724.7V202H723.2V185.609C723.2 184.297 723.263 182.932 723.388 181.516H723.263L714.622 202H712.669V179.156Z" fill="#656565"/>
<path d="M527.953 216.266C526.234 216.266 524.865 217.177 523.844 219C522.833 220.812 522.328 223.328 522.328 226.547C522.328 228.641 522.562 230.464 523.031 232.016C523.5 233.568 524.172 234.76 525.047 235.594C525.922 236.427 526.938 236.844 528.094 236.844C529.281 236.844 530.302 236.63 531.156 236.203V237.609C530.344 238.078 529.276 238.312 527.953 238.312C526.505 238.312 525.234 237.844 524.141 236.906C523.057 235.969 522.219 234.615 521.625 232.844C521.031 231.062 520.734 228.953 520.734 226.516C520.734 222.87 521.38 220.005 522.672 217.922C523.974 215.839 525.745 214.797 527.984 214.797C529.38 214.797 530.599 215.12 531.641 215.766L530.938 217.109C530.062 216.547 529.068 216.266 527.953 216.266ZM537.518 238H535.987V216.625H531.44V215.156H542.065V216.625H537.518V238ZM543.631 215.156H545.131V231.125C545.131 231.479 545.125 231.833 545.115 232.188C545.115 232.531 545.068 233.604 544.974 235.406H545.099L553.677 215.156H555.662V238H554.162V221.609C554.162 220.297 554.224 218.932 554.349 217.516H554.224L545.584 238H543.631V215.156ZM566.961 238L560.883 217.203H560.758C560.862 219.391 560.915 220.776 560.915 221.359V238H559.446V215.156H561.711L566.836 232.625C567.295 234.167 567.592 235.479 567.727 236.562H567.852C567.956 235.792 568.279 234.49 568.821 232.656L573.899 215.156H576.243V238H574.711V221.484C574.711 220.839 574.763 219.422 574.868 217.234H574.743L568.696 238H566.961ZM582.433 231.312L577.542 215.156H579.136L582.605 226.859C582.719 227.266 582.896 228.016 583.136 229.109H583.277C583.402 228.224 583.547 227.474 583.714 226.859L586.667 215.156H588.261L583.167 234.219C582.782 235.667 582.303 236.714 581.73 237.359C581.157 237.995 580.412 238.312 579.495 238.312C578.995 238.312 578.537 238.208 578.12 238V236.562C578.579 236.75 579.027 236.844 579.464 236.844C579.985 236.844 580.422 236.615 580.777 236.156C581.131 235.688 581.459 234.917 581.761 233.844L582.433 231.312ZM599.076 238H597.545V216.625H593.061L592.451 224.062C592.003 229.479 591.634 232.891 591.342 234.297C591.05 235.703 590.649 236.708 590.139 237.312C589.639 237.917 588.894 238.219 587.904 238.219C587.425 238.219 587.035 238.125 586.732 237.938V236.5C586.972 236.667 587.331 236.75 587.811 236.75C588.154 236.75 588.441 236.682 588.67 236.547C588.91 236.411 589.123 236.151 589.311 235.766C589.509 235.37 589.68 234.807 589.826 234.078C589.982 233.349 590.128 232.391 590.264 231.203C590.41 230.016 590.894 224.667 591.717 215.156H599.076V238ZM607.017 228.016L602.767 238H601.032L605.579 227.797C604.433 227.495 603.537 226.807 602.892 225.734C602.246 224.651 601.923 223.312 601.923 221.719C601.923 217.344 603.897 215.156 607.845 215.156H611.563V238H610.017V228.047L607.017 228.016ZM610.017 216.562H608.079C606.454 216.562 605.287 216.964 604.579 217.766C603.881 218.568 603.532 219.859 603.532 221.641C603.532 223.37 603.86 224.641 604.517 225.453C605.173 226.266 606.22 226.672 607.657 226.672H610.017V216.562ZM619.16 238H617.629V216.625H613.082V215.156H623.707V216.625H619.16V238ZM637.678 226.547C637.678 230.328 637.111 233.234 635.975 235.266C634.85 237.297 633.22 238.312 631.085 238.312C628.928 238.312 627.293 237.292 626.178 235.25C625.064 233.198 624.506 230.286 624.506 226.516C624.506 222.578 625.058 219.646 626.163 217.719C627.267 215.792 628.923 214.828 631.131 214.828C633.256 214.828 634.876 215.844 635.991 217.875C637.116 219.896 637.678 222.786 637.678 226.547ZM626.1 226.547C626.1 229.943 626.522 232.51 627.366 234.25C628.22 235.979 629.46 236.844 631.085 236.844C632.72 236.844 633.96 235.984 634.803 234.266C635.657 232.547 636.085 229.974 636.085 226.547C636.085 223.161 635.668 220.609 634.835 218.891C634.001 217.161 632.767 216.297 631.131 216.297C629.454 216.297 628.194 217.172 627.35 218.922C626.517 220.661 626.1 223.203 626.1 226.547ZM650.275 221.719C650.275 224.073 649.733 225.802 648.65 226.906C647.577 228.01 645.983 228.562 643.868 228.562H642.243V238H640.712V215.156H643.837C646.066 215.156 647.697 215.682 648.728 216.734C649.759 217.786 650.275 219.448 650.275 221.719ZM642.243 227.156H643.775C645.566 227.156 646.837 226.734 647.587 225.891C648.337 225.047 648.712 223.656 648.712 221.719C648.712 219.875 648.322 218.557 647.54 217.766C646.77 216.964 645.572 216.562 643.947 216.562H642.243V227.156ZM652.621 215.156H654.121V231.125C654.121 231.479 654.116 231.833 654.106 232.188C654.106 232.531 654.059 233.604 653.965 235.406H654.09L662.668 215.156H664.652V238H663.152V221.609C663.152 220.297 663.215 218.932 663.34 217.516H663.215L654.574 238H652.621V215.156ZM681.471 231.891C681.471 233.922 680.96 235.5 679.939 236.625C678.918 237.75 677.486 238.312 675.642 238.312C674.184 238.312 672.851 238.026 671.642 237.453V235.766C672.174 236.099 672.793 236.365 673.502 236.562C674.21 236.75 674.924 236.844 675.642 236.844C678.465 236.844 679.877 235.203 679.877 231.922C679.877 230.193 679.471 228.922 678.658 228.109C677.846 227.297 676.585 226.891 674.877 226.891H673.314V225.422H674.971C676.439 225.422 677.575 224.995 678.377 224.141C679.179 223.286 679.58 222.031 679.58 220.375C679.58 219 679.273 217.979 678.658 217.312C678.054 216.635 677.2 216.297 676.096 216.297C675.481 216.297 674.913 216.432 674.392 216.703C673.882 216.974 673.45 217.323 673.096 217.75L672.064 216.688C673.21 215.448 674.596 214.828 676.221 214.828C677.773 214.828 678.981 215.323 679.846 216.312C680.721 217.292 681.158 218.646 681.158 220.375C681.158 221.865 680.804 223.115 680.096 224.125C679.398 225.125 678.45 225.781 677.252 226.094V226.219C678.637 226.396 679.684 226.974 680.392 227.953C681.111 228.932 681.471 230.245 681.471 231.891ZM694.317 221.719C694.317 224.073 693.775 225.802 692.692 226.906C691.619 228.01 690.025 228.562 687.911 228.562H686.286V238H684.755V215.156H687.88C690.109 215.156 691.739 215.682 692.77 216.734C693.801 217.786 694.317 219.448 694.317 221.719ZM686.286 227.156H687.817C689.609 227.156 690.88 226.734 691.63 225.891C692.38 225.047 692.755 223.656 692.755 221.719C692.755 219.875 692.364 218.557 691.583 217.766C690.812 216.964 689.614 216.562 687.989 216.562H686.286V227.156ZM709.07 226.547C709.07 230.328 708.502 233.234 707.367 235.266C706.242 237.297 704.611 238.312 702.476 238.312C700.32 238.312 698.684 237.292 697.57 235.25C696.455 233.198 695.898 230.286 695.898 226.516C695.898 222.578 696.45 219.646 697.554 217.719C698.658 215.792 700.315 214.828 702.523 214.828C704.648 214.828 706.268 215.844 707.382 217.875C708.507 219.896 709.07 222.786 709.07 226.547ZM697.492 226.547C697.492 229.943 697.913 232.51 698.757 234.25C699.611 235.979 700.851 236.844 702.476 236.844C704.111 236.844 705.351 235.984 706.195 234.266C707.049 232.547 707.476 229.974 707.476 226.547C707.476 223.161 707.059 220.609 706.226 218.891C705.393 217.161 704.158 216.297 702.523 216.297C700.846 216.297 699.585 217.172 698.742 218.922C697.908 220.661 697.492 223.203 697.492 226.547ZM718.557 216.266C716.838 216.266 715.468 217.177 714.447 219C713.437 220.812 712.932 223.328 712.932 226.547C712.932 228.641 713.166 230.464 713.635 232.016C714.104 233.568 714.776 234.76 715.651 235.594C716.526 236.427 717.541 236.844 718.697 236.844C719.885 236.844 720.906 236.63 721.76 236.203V237.609C720.947 238.078 719.88 238.312 718.557 238.312C717.109 238.312 715.838 237.844 714.744 236.906C713.661 235.969 712.822 234.615 712.229 232.844C711.635 231.062 711.338 228.953 711.338 226.516C711.338 222.87 711.984 220.005 713.276 217.922C714.578 215.839 716.349 214.797 718.588 214.797C719.984 214.797 721.203 215.12 722.244 215.766L721.541 217.109C720.666 216.547 719.671 216.266 718.557 216.266ZM728.122 238H726.591V216.625H722.044V215.156H732.669V216.625H728.122V238ZM742.875 238L740.859 229.719H735.312L733.328 238H731.734L737.234 215.156H738.812L744.437 238H742.875ZM740.5 228.172L738.484 219.656C738.276 218.698 738.114 217.792 738 216.938C737.906 217.844 737.76 218.75 737.562 219.656L735.609 228.172H740.5ZM756.768 238H755.237V226.766H747.268V238H745.737V215.156H747.268V225.297H755.237V215.156H756.768V238ZM771.583 238H770.052V226.766H762.083V238H760.552V215.156H762.083V225.297H770.052V215.156H771.583V238ZM779.524 228.016L775.274 238H773.539L778.086 227.797C776.94 227.495 776.045 226.807 775.399 225.734C774.753 224.651 774.43 223.312 774.43 221.719C774.43 217.344 776.404 215.156 780.352 215.156H784.071V238H782.524V228.047L779.524 228.016ZM782.524 216.562H780.586C778.961 216.562 777.795 216.964 777.086 217.766C776.388 218.568 776.039 219.859 776.039 221.641C776.039 223.37 776.368 224.641 777.024 225.453C777.68 226.266 778.727 226.672 780.164 226.672H782.524V216.562Z" fill="#656565"/>
<path d="M521.5 274V251.156H523.031V274H521.5ZM534.331 274L528.253 253.203H528.128C528.232 255.391 528.284 256.776 528.284 257.359V274H526.815V251.156H529.081L534.206 268.625C534.664 270.167 534.961 271.479 535.096 272.562H535.221C535.326 271.792 535.649 270.49 536.19 268.656L541.268 251.156H543.612V274H542.081V257.484C542.081 256.839 542.133 255.422 542.237 253.234H542.112L536.065 274H534.331ZM549.802 267.312L544.912 251.156H546.506L549.974 262.859C550.089 263.266 550.266 264.016 550.506 265.109H550.646C550.771 264.224 550.917 263.474 551.084 262.859L554.037 251.156H555.631L550.537 270.219C550.151 271.667 549.672 272.714 549.099 273.359C548.526 273.995 547.782 274.312 546.865 274.312C546.365 274.312 545.907 274.208 545.49 274V272.562C545.948 272.75 546.396 272.844 546.834 272.844C547.354 272.844 547.792 272.615 548.146 272.156C548.5 271.688 548.828 270.917 549.131 269.844L549.802 267.312ZM567.946 274H566.415V262.766H558.446V274H556.915V251.156H558.446V261.297H566.415V251.156H567.946V274ZM584.136 262.547C584.136 266.328 583.568 269.234 582.433 271.266C581.308 273.297 579.678 274.312 577.542 274.312C575.386 274.312 573.751 273.292 572.636 271.25C571.521 269.198 570.964 266.286 570.964 262.516C570.964 258.578 571.516 255.646 572.62 253.719C573.725 251.792 575.381 250.828 577.589 250.828C579.714 250.828 581.334 251.844 582.449 253.875C583.574 255.896 584.136 258.786 584.136 262.547ZM572.558 262.547C572.558 265.943 572.98 268.51 573.824 270.25C574.678 271.979 575.917 272.844 577.542 272.844C579.178 272.844 580.417 271.984 581.261 270.266C582.115 268.547 582.542 265.974 582.542 262.547C582.542 259.161 582.126 256.609 581.292 254.891C580.459 253.161 579.225 252.297 577.589 252.297C575.912 252.297 574.652 253.172 573.808 254.922C572.975 256.661 572.558 259.203 572.558 262.547ZM588.701 262.188L595.17 251.156H596.826L590.295 262.188L597.342 274H595.576L588.701 262.312V274H587.17V251.156H588.701V262.188ZM611.048 262.547C611.048 266.328 610.48 269.234 609.345 271.266C608.22 273.297 606.589 274.312 604.454 274.312C602.298 274.312 600.662 273.292 599.548 271.25C598.433 269.198 597.876 266.286 597.876 262.516C597.876 258.578 598.428 255.646 599.532 253.719C600.636 251.792 602.293 250.828 604.501 250.828C606.626 250.828 608.246 251.844 609.36 253.875C610.485 255.896 611.048 258.786 611.048 262.547ZM599.47 262.547C599.47 265.943 599.892 268.51 600.735 270.25C601.589 271.979 602.829 272.844 604.454 272.844C606.089 272.844 607.329 271.984 608.173 270.266C609.027 268.547 609.454 265.974 609.454 262.547C609.454 259.161 609.037 256.609 608.204 254.891C607.371 253.161 606.136 252.297 604.501 252.297C602.824 252.297 601.563 253.172 600.72 254.922C599.886 256.661 599.47 259.203 599.47 262.547ZM623.644 257.719C623.644 260.073 623.103 261.802 622.019 262.906C620.946 264.01 619.353 264.562 617.238 264.562H615.613V274H614.082V251.156H617.207C619.436 251.156 621.066 251.682 622.097 252.734C623.129 253.786 623.644 255.448 623.644 257.719ZM615.613 263.156H617.144C618.936 263.156 620.207 262.734 620.957 261.891C621.707 261.047 622.082 259.656 622.082 257.719C622.082 255.875 621.691 254.557 620.91 253.766C620.139 252.964 618.941 252.562 617.316 252.562H615.613V263.156ZM634.272 274H625.991V251.156H634.272V252.625H627.522V261.297H633.897V262.766H627.522V272.531H634.272V274ZM638.618 262.188L645.087 251.156H646.743L640.212 262.188L647.259 274H645.493L638.618 262.312V274H637.087V251.156H638.618V262.188ZM652.356 274H650.824V252.625H646.278V251.156H656.903V252.625H652.356V274ZM670.874 262.547C670.874 266.328 670.306 269.234 669.171 271.266C668.046 273.297 666.416 274.312 664.28 274.312C662.124 274.312 660.489 273.292 659.374 271.25C658.259 269.198 657.702 266.286 657.702 262.516C657.702 258.578 658.254 255.646 659.358 253.719C660.463 251.792 662.119 250.828 664.327 250.828C666.452 250.828 668.072 251.844 669.186 253.875C670.311 255.896 670.874 258.786 670.874 262.547ZM659.296 262.547C659.296 265.943 659.718 268.51 660.561 270.25C661.416 271.979 662.655 272.844 664.28 272.844C665.916 272.844 667.155 271.984 667.999 270.266C668.853 268.547 669.28 265.974 669.28 262.547C669.28 259.161 668.864 256.609 668.03 254.891C667.197 253.161 665.963 252.297 664.327 252.297C662.65 252.297 661.39 253.172 660.546 254.922C659.713 256.661 659.296 259.203 659.296 262.547ZM683.471 257.719C683.471 260.073 682.929 261.802 681.846 262.906C680.773 264.01 679.179 264.562 677.064 264.562H675.439V274H673.908V251.156H677.033C679.262 251.156 680.892 251.682 681.924 252.734C682.955 253.786 683.471 255.448 683.471 257.719ZM675.439 263.156H676.971C678.762 263.156 680.033 262.734 680.783 261.891C681.533 261.047 681.908 259.656 681.908 257.719C681.908 255.875 681.517 254.557 680.736 253.766C679.965 252.964 678.767 252.562 677.142 252.562H675.439V263.156ZM685.817 251.156H687.317V267.125C687.317 267.479 687.312 267.833 687.301 268.188C687.301 268.531 687.255 269.604 687.161 271.406H687.286L695.864 251.156H697.848V274H696.348V257.609C696.348 256.297 696.411 254.932 696.536 253.516H696.411L687.77 274H685.817V251.156ZM705.572 265.234C705.572 262.536 705.979 259.964 706.791 257.516C707.604 255.057 708.744 252.938 710.213 251.156H711.463C710.067 253.219 709.01 255.458 708.291 257.875C707.572 260.281 707.213 262.724 707.213 265.203C707.213 267.734 707.588 270.229 708.338 272.688C709.099 275.146 710.13 277.271 711.432 279.062H710.213C708.724 277.323 707.578 275.255 706.776 272.859C705.974 270.464 705.572 267.922 705.572 265.234ZM714.075 274V251.156H715.607V274H714.075ZM726.906 274L720.828 253.203H720.703C720.807 255.391 720.859 256.776 720.859 257.359V274H719.391V251.156H721.656L726.781 268.625C727.239 270.167 727.536 271.479 727.672 272.562H727.797C727.901 271.792 728.224 270.49 728.766 268.656L733.844 251.156H736.187V274H734.656V257.484C734.656 256.839 734.708 255.422 734.812 253.234H734.687L728.641 274H726.906ZM742.378 267.312L737.487 251.156H739.081L742.549 262.859C742.664 263.266 742.841 264.016 743.081 265.109H743.221C743.346 264.224 743.492 263.474 743.659 262.859L746.612 251.156H748.206L743.112 270.219C742.727 271.667 742.247 272.714 741.674 273.359C741.102 273.995 740.357 274.312 739.44 274.312C738.94 274.312 738.482 274.208 738.065 274V272.562C738.523 272.75 738.971 272.844 739.409 272.844C739.93 272.844 740.367 272.615 740.721 272.156C741.076 271.688 741.404 270.917 741.706 269.844L742.378 267.312ZM760.521 274H758.99V262.766H751.021V274H749.49V251.156H751.021V261.297H758.99V251.156H760.521V274ZM776.711 262.547C776.711 266.328 776.144 269.234 775.008 271.266C773.883 273.297 772.253 274.312 770.118 274.312C767.961 274.312 766.326 273.292 765.211 271.25C764.097 269.198 763.539 266.286 763.539 262.516C763.539 258.578 764.091 255.646 765.196 253.719C766.3 251.792 767.956 250.828 770.164 250.828C772.289 250.828 773.909 251.844 775.024 253.875C776.149 255.896 776.711 258.786 776.711 262.547ZM765.133 262.547C765.133 265.943 765.555 268.51 766.399 270.25C767.253 271.979 768.493 272.844 770.118 272.844C771.753 272.844 772.993 271.984 773.836 270.266C774.69 268.547 775.118 265.974 775.118 262.547C775.118 259.161 774.701 256.609 773.868 254.891C773.034 253.161 771.8 252.297 770.164 252.297C768.487 252.297 767.227 253.172 766.383 254.922C765.55 256.661 765.133 259.203 765.133 262.547ZM787.261 274L781.183 253.203H781.058C781.162 255.391 781.214 256.776 781.214 257.359V274H779.745V251.156H782.011L787.136 268.625C787.594 270.167 787.891 271.479 788.026 272.562H788.151C788.256 271.792 788.579 270.49 789.12 268.656L794.198 251.156H796.542V274H795.011V257.484C795.011 256.839 795.063 255.422 795.167 253.234H795.042L788.995 274H787.261ZM812.748 262.547C812.748 266.328 812.18 269.234 811.045 271.266C809.92 273.297 808.29 274.312 806.154 274.312C803.998 274.312 802.363 273.292 801.248 271.25C800.133 269.198 799.576 266.286 799.576 262.516C799.576 258.578 800.128 255.646 801.232 253.719C802.337 251.792 803.993 250.828 806.201 250.828C808.326 250.828 809.946 251.844 811.06 253.875C812.185 255.896 812.748 258.786 812.748 262.547ZM801.17 262.547C801.17 265.943 801.592 268.51 802.435 270.25C803.29 271.979 804.529 272.844 806.154 272.844C807.79 272.844 809.029 271.984 809.873 270.266C810.727 268.547 811.154 265.974 811.154 262.547C811.154 259.161 810.738 256.609 809.904 254.891C809.071 253.161 807.837 252.297 806.201 252.297C804.524 252.297 803.264 253.172 802.42 254.922C801.587 256.661 801.17 259.203 801.17 262.547ZM827.298 279.766H825.829V274H814.907V279.766H813.438V272.531H814.813C816.042 268.792 816.912 265.302 817.423 262.062C817.943 258.823 818.204 255.188 818.204 251.156H825.345V272.531H827.298V279.766ZM823.813 272.531V252.625H819.751C819.522 259.969 818.402 266.604 816.391 272.531H823.813ZM831.613 267.312L826.722 251.156H828.316L831.785 262.859C831.899 263.266 832.076 264.016 832.316 265.109H832.457C832.582 264.224 832.727 263.474 832.894 262.859L835.847 251.156H837.441L832.347 270.219C831.962 271.667 831.483 272.714 830.91 273.359C830.337 273.995 829.592 274.312 828.675 274.312C828.175 274.312 827.717 274.208 827.3 274V272.562C827.759 272.75 828.207 272.844 828.644 272.844C829.165 272.844 829.602 272.615 829.957 272.156C830.311 271.688 830.639 270.917 830.941 269.844L831.613 267.312ZM848.256 274H846.725V252.625H842.241L841.631 260.062C841.183 265.479 840.814 268.891 840.522 270.297C840.23 271.703 839.829 272.708 839.319 273.312C838.819 273.917 838.074 274.219 837.084 274.219C836.605 274.219 836.215 274.125 835.913 273.938V272.5C836.152 272.667 836.511 272.75 836.991 272.75C837.334 272.75 837.621 272.682 837.85 272.547C838.09 272.411 838.303 272.151 838.491 271.766C838.689 271.37 838.86 270.807 839.006 270.078C839.163 269.349 839.308 268.391 839.444 267.203C839.59 266.016 840.074 260.667 840.897 251.156H848.256V274ZM856.197 264.016L851.947 274H850.212L854.759 263.797C853.613 263.495 852.717 262.807 852.072 261.734C851.426 260.651 851.103 259.312 851.103 257.719C851.103 253.344 853.077 251.156 857.025 251.156H860.743V274H859.197V264.047L856.197 264.016ZM859.197 252.562H857.259C855.634 252.562 854.467 252.964 853.759 253.766C853.061 254.568 852.712 255.859 852.712 257.641C852.712 259.37 853.04 260.641 853.697 261.453C854.353 262.266 855.4 262.672 856.837 262.672H859.197V252.562ZM868.34 274H866.809V252.625H862.262V251.156H872.887V252.625H868.34V274ZM886.858 262.547C886.858 266.328 886.291 269.234 885.155 271.266C884.03 273.297 882.4 274.312 880.264 274.312C878.108 274.312 876.473 273.292 875.358 271.25C874.244 269.198 873.686 266.286 873.686 262.516C873.686 258.578 874.238 255.646 875.343 253.719C876.447 251.792 878.103 250.828 880.311 250.828C882.436 250.828 884.056 251.844 885.171 253.875C886.296 255.896 886.858 258.786 886.858 262.547ZM875.28 262.547C875.28 265.943 875.702 268.51 876.546 270.25C877.4 271.979 878.639 272.844 880.264 272.844C881.9 272.844 883.139 271.984 883.983 270.266C884.837 268.547 885.264 265.974 885.264 262.547C885.264 259.161 884.848 256.609 884.014 254.891C883.181 253.161 881.947 252.297 880.311 252.297C878.634 252.297 877.374 253.172 876.53 254.922C875.697 256.661 875.28 259.203 875.28 262.547ZM899.455 257.719C899.455 260.073 898.913 261.802 897.83 262.906C896.757 264.01 895.163 264.562 893.048 264.562H891.423V274H889.892V251.156H893.017C895.246 251.156 896.877 251.682 897.908 252.734C898.939 253.786 899.455 255.448 899.455 257.719ZM891.423 263.156H892.955C894.746 263.156 896.017 262.734 896.767 261.891C897.517 261.047 897.892 259.656 897.892 257.719C897.892 255.875 897.502 254.557 896.72 253.766C895.95 252.964 894.752 252.562 893.127 252.562H891.423V263.156ZM901.801 251.156H903.301V267.125C903.301 267.479 903.296 267.833 903.286 268.188C903.286 268.531 903.239 269.604 903.145 271.406H903.27L911.848 251.156H913.832V274H912.332V257.609C912.332 256.297 912.395 254.932 912.52 253.516H912.395L903.754 274H901.801V251.156ZM922.32 265.234C922.32 267.922 921.919 270.469 921.117 272.875C920.325 275.271 919.179 277.333 917.679 279.062H916.46C917.804 277.177 918.84 275.016 919.57 272.578C920.309 270.141 920.679 267.682 920.679 265.203C920.679 262.714 920.32 260.271 919.601 257.875C918.882 255.469 917.825 253.229 916.429 251.156H917.679C919.169 252.927 920.314 255.047 921.117 257.516C921.919 259.984 922.32 262.557 922.32 265.234Z" fill="#656565"/>
<defs>
<filter id="filter0_f_4_149" x="497.5" y="328" width="11" height="7" filterUnits="userSpaceOnUse" color-interpolation-filters="sRGB">
<feFlood flood-opacity="0" result="BackgroundImageFix"/>
<feBlend mode="normal" in="SourceGraphic" in2="BackgroundImageFix" result="shape"/>
<feGaussianBlur stdDeviation="0.25" result="effect1_foregroundBlur_4_149"/>
</filter>
<filter id="filter1_f_4_149" x="491.5" y="335" width="11" height="7" filterUnits="userSpaceOnUse" color-interpolation-filters="sRGB">
<feFlood flood-opacity="0" result="BackgroundImageFix"/>
<feBlend mode="normal" in="SourceGraphic" in2="BackgroundImageFix" result="shape"/>
<feGaussianBlur stdDeviation="0.25" result="effect1_foregroundBlur_4_149"/>
</filter>
<filter id="filter2_f_4_149" x="502.5" y="335" width="11" height="7" filterUnits="userSpaceOnUse" color-interpolation-filters="sRGB">
<feFlood flood-opacity="0" result="BackgroundImageFix"/>
<feBlend mode="normal" in="SourceGraphic" in2="BackgroundImageFix" result="shape"/>
<feGaussianBlur stdDeviation="0.25" result="effect1_foregroundBlur_4_149"/>
</filter>
<filter id="filter3_f_4_149" x="486.5" y="342" width="11" height="7" filterUnits="userSpaceOnUse" color-interpolation-filters="sRGB">
<feFlood flood-opacity="0" result="BackgroundImageFix"/>
<feBlend mode="normal" in="SourceGraphic" in2="BackgroundImageFix" result="shape"/>
<feGaussianBlur stdDeviation="0.25" result="effect1_foregroundBlur_4_149"/>
</filter>
<filter id="filter4_f_4_149" x="497.5" y="342" width="11" height="7" filterUnits="userSpaceOnUse" color-interpolation-filters="sRGB">
<feFlood flood-opacity="0" result="BackgroundImageFix"/>
<feBlend mode="normal" in="SourceGraphic" in2="BackgroundImageFix" result="shape"/>
<feGaussianBlur stdDeviation="0.25" result="effect1_foregroundBlur_4_149"/>
</filter>
<filter id="filter5_f_4_149" x="508.5" y="342" width="11" height="7" filterUnits="userSpaceOnUse" color-interpolation-filters="sRGB">
<feFlood flood-opacity="0" result="BackgroundImageFix"/>
<feBlend mode="normal" in="SourceGraphic" in2="BackgroundImageFix" result="shape"/>
<feGaussianBlur stdDeviation="0.25" result="effect1_foregroundBlur_4_149"/>
</filter>
<filter id="filter6_f_4_149" x="486.5" y="349" width="11" height="7" filterUnits="userSpaceOnUse" color-interpolation-filters="sRGB">
<feFlood flood-opacity="0" result="BackgroundImageFix"/>
<feBlend mode="normal" in="SourceGraphic" in2="BackgroundImageFix" result="shape"/>
<feGaussianBlur stdDeviation="0.25" result="effect1_foregroundBlur_4_149"/>
</filter>
<filter id="filter7_f_4_149" x="486.5" y="356" width="11" height="7" filterUnits="userSpaceOnUse" color-interpolation-filters="sRGB">
<feFlood flood-opacity="0" result="BackgroundImageFix"/>
<feBlend mode="normal" in="SourceGraphic" in2="BackgroundImageFix" result="shape"/>
<feGaussianBlur stdDeviation="0.25" result="effect1_foregroundBlur_4_149"/>
</filter>
<filter id="filter8_f_4_149" x="497.5" y="349" width="11" height="7" filterUnits="userSpaceOnUse" color-interpolation-filters="sRGB">
<feFlood flood-opacity="0" result="BackgroundImageFix"/>
<feBlend mode="normal" in="SourceGraphic" in2="BackgroundImageFix" result="shape"/>
<feGaussianBlur stdDeviation="0.25" result="effect1_foregroundBlur_4_149"/>
</filter>
<filter id="filter9_f_4_149" x="508.5" y="349" width="11" height="7" filterUnits="userSpaceOnUse" color-interpolation-filters="sRGB">
<feFlood flood-opacity="0" result="BackgroundImageFix"/>
<feBlend mode="normal" in="SourceGraphic" in2="BackgroundImageFix" result="shape"/>
<feGaussianBlur stdDeviation="0.25" result="effect1_foregroundBlur_4_149"/>
</filter>
<filter id="filter10_f_4_149" x="508.5" y="356" width="11" height="7" filterUnits="userSpaceOnUse" color-interpolation-filters="sRGB">
<feFlood flood-opacity="0" result="BackgroundImageFix"/>
<feBlend mode="normal" in="SourceGraphic" in2="BackgroundImageFix" result="shape"/>
<feGaussianBlur stdDeviation="0.25" result="effect1_foregroundBlur_4_149"/>
</filter>
<filter id="filter11_f_4_149" x="497.5" y="356" width="11" height="7" filterUnits="userSpaceOnUse" color-interpolation-filters="sRGB">
<feFlood flood-opacity="0" result="BackgroundImageFix"/>
<feBlend mode="normal" in="SourceGraphic" in2="BackgroundImageFix" result="shape"/>
<feGaussianBlur stdDeviation="0.25" result="effect1_foregroundBlur_4_149"/>
</filter>
<filter id="filter12_f_4_149" x="508.5" y="363" width="11" height="7" filterUnits="userSpaceOnUse" color-interpolation-filters="sRGB">
<feFlood flood-opacity="0" result="BackgroundImageFix"/>
<feBlend mode="normal" in="SourceGraphic" in2="BackgroundImageFix" result="shape"/>
<feGaussianBlur stdDeviation="0.25" result="effect1_foregroundBlur_4_149"/>
</filter>
<filter id="filter13_f_4_149" x="497.5" y="363" width="11" height="7" filterUnits="userSpaceOnUse" color-interpolation-filters="sRGB">
<feFlood flood-opacity="0" result="BackgroundImageFix"/>
<feBlend mode="normal" in="SourceGraphic" in2="BackgroundImageFix" result="shape"/>
<feGaussianBlur stdDeviation="0.25" result="effect1_foregroundBlur_4_149"/>
</filter>
<filter id="filter14_f_4_149" x="508.5" y="370" width="11" height="7" filterUnits="userSpaceOnUse" color-interpolation-filters="sRGB">
<feFlood flood-opacity="0" result="BackgroundImageFix"/>
<feBlend mode="normal" in="SourceGraphic" in2="BackgroundImageFix" result="shape"/>
<feGaussianBlur stdDeviation="0.25" result="effect1_foregroundBlur_4_149"/>
</filter>
<filter id="filter15_f_4_149" x="497.5" y="370" width="11" height="7" filterUnits="userSpaceOnUse" color-interpolation-filters="sRGB">
<feFlood flood-opacity="0" result="BackgroundImageFix"/>
<feBlend mode="normal" in="SourceGraphic" in2="BackgroundImageFix" result="shape"/>
<feGaussianBlur stdDeviation="0.25" result="effect1_foregroundBlur_4_149"/>
</filter>
<filter id="filter16_f_4_149" x="497.5" y="377" width="11" height="7" filterUnits="userSpaceOnUse" color-interpolation-filters="sRGB">
<feFlood flood-opacity="0" result="BackgroundImageFix"/>
<feBlend mode="normal" in="SourceGraphic" in2="BackgroundImageFix" result="shape"/>
<feGaussianBlur stdDeviation="0.25" result="effect1_foregroundBlur_4_149"/>
</filter>
<filter id="filter17_f_4_149" x="497.5" y="384" width="11" height="7" filterUnits="userSpaceOnUse" color-interpolation-filters="sRGB">
<feFlood flood-opacity="0" result="BackgroundImageFix"/>
<feBlend mode="normal" in="SourceGraphic" in2="BackgroundImageFix" result="shape"/>
<feGaussianBlur stdDeviation="0.25" result="effect1_foregroundBlur_4_149"/>
</filter>
<filter id="filter18_f_4_149" x="508.5" y="377" width="11" height="7" filterUnits="userSpaceOnUse" color-interpolation-filters="sRGB">
<feFlood flood-opacity="0" result="BackgroundImageFix"/>
<feBlend mode="normal" in="SourceGraphic" in2="BackgroundImageFix" result="shape"/>
<feGaussianBlur stdDeviation="0.25" result="effect1_foregroundBlur_4_149"/>
</filter>
<filter id="filter19_f_4_149" x="489.5" y="319.5" width="11" height="7" filterUnits="userSpaceOnUse" color-interpolation-filters="sRGB">
<feFlood flood-opacity="0" result="BackgroundImageFix"/>
<feBlend mode="normal" in="SourceGraphic" in2="BackgroundImageFix" result="shape"/>
<feGaussianBlur stdDeviation="0.25" result="effect1_foregroundBlur_4_149"/>
</filter>
<filter id="filter20_f_4_149" x="483.5" y="326.5" width="11" height="7" filterUnits="userSpaceOnUse" color-interpolation-filters="sRGB">
<feFlood flood-opacity="0" result="BackgroundImageFix"/>
<feBlend mode="normal" in="SourceGraphic" in2="BackgroundImageFix" result="shape"/>
<feGaussianBlur stdDeviation="0.25" result="effect1_foregroundBlur_4_149"/>
</filter>
<filter id="filter21_f_4_149" x="494.5" y="326.5" width="11" height="7" filterUnits="userSpaceOnUse" color-interpolation-filters="sRGB">
<feFlood flood-opacity="0" result="BackgroundImageFix"/>
<feBlend mode="normal" in="SourceGraphic" in2="BackgroundImageFix" result="shape"/>
<feGaussianBlur stdDeviation="0.25" result="effect1_foregroundBlur_4_149"/>
</filter>
<filter id="filter22_f_4_149" x="478.5" y="333.5" width="11" height="7" filterUnits="userSpaceOnUse" color-interpolation-filters="sRGB">
<feFlood flood-opacity="0" result="BackgroundImageFix"/>
<feBlend mode="normal" in="SourceGraphic" in2="BackgroundImageFix" result="shape"/>
<feGaussianBlur stdDeviation="0.25" result="effect1_foregroundBlur_4_149"/>
</filter>
<filter id="filter23_f_4_149" x="489.5" y="333.5" width="11" height="7" filterUnits="userSpaceOnUse" color-interpolation-filters="sRGB">
<feFlood flood-opacity="0" result="BackgroundImageFix"/>
<feBlend mode="normal" in="SourceGraphic" in2="BackgroundImageFix" result="shape"/>
<feGaussianBlur stdDeviation="0.25" result="effect1_foregroundBlur_4_149"/>
</filter>
<filter id="filter24_f_4_149" x="500.5" y="333.5" width="11" height="7" filterUnits="userSpaceOnUse" color-interpolation-filters="sRGB">
<feFlood flood-opacity="0" result="BackgroundImageFix"/>
<feBlend mode="normal" in="SourceGraphic" in2="BackgroundImageFix" result="shape"/>
<feGaussianBlur stdDeviation="0.25" result="effect1_foregroundBlur_4_149"/>
</filter>
<filter id="filter25_f_4_149" x="478.5" y="340.5" width="11" height="7" filterUnits="userSpaceOnUse" color-interpolation-filters="sRGB">
<feFlood flood-opacity="0" result="BackgroundImageFix"/>
<feBlend mode="normal" in="SourceGraphic" in2="BackgroundImageFix" result="shape"/>
<feGaussianBlur stdDeviation="0.25" result="effect1_foregroundBlur_4_149"/>
</filter>
<filter id="filter26_f_4_149" x="478.5" y="347.5" width="11" height="7" filterUnits="userSpaceOnUse" color-interpolation-filters="sRGB">
<feFlood flood-opacity="0" result="BackgroundImageFix"/>
<feBlend mode="normal" in="SourceGraphic" in2="BackgroundImageFix" result="shape"/>
<feGaussianBlur stdDeviation="0.25" result="effect1_foregroundBlur_4_149"/>
</filter>
<filter id="filter27_f_4_149" x="489.5" y="340.5" width="11" height="7" filterUnits="userSpaceOnUse" color-interpolation-filters="sRGB">
<feFlood flood-opacity="0" result="BackgroundImageFix"/>
<feBlend mode="normal" in="SourceGraphic" in2="BackgroundImageFix" result="shape"/>
<feGaussianBlur stdDeviation="0.25" result="effect1_foregroundBlur_4_149"/>
</filter>
<filter id="filter28_f_4_149" x="500.5" y="340.5" width="11" height="7" filterUnits="userSpaceOnUse" color-interpolation-filters="sRGB">
<feFlood flood-opacity="0" result="BackgroundImageFix"/>
<feBlend mode="normal" in="SourceGraphic" in2="BackgroundImageFix" result="shape"/>
<feGaussianBlur stdDeviation="0.25" result="effect1_foregroundBlur_4_149"/>
</filter>
<filter id="filter29_f_4_149" x="500.5" y="347.5" width="11" height="7" filterUnits="userSpaceOnUse" color-interpolation-filters="sRGB">
<feFlood flood-opacity="0" result="BackgroundImageFix"/>
<feBlend mode="normal" in="SourceGraphic" in2="BackgroundImageFix" result="shape"/>
<feGaussianBlur stdDeviation="0.25" result="effect1_foregroundBlur_4_149"/>
</filter>
<filter id="filter30_f_4_149" x="489.5" y="347.5" width="11" height="7" filterUnits="userSpaceOnUse" color-interpolation-filters="sRGB">
<feFlood flood-opacity="0" result="BackgroundImageFix"/>
<feBlend mode="normal" in="SourceGraphic" in2="BackgroundImageFix" result="shape"/>
<feGaussianBlur stdDeviation="0.25" result="effect1_foregroundBlur_4_149"/>
</filter>
<filter id="filter31_f_4_149" x="500.5" y="354.5" width="11" height="7" filterUnits="userSpaceOnUse" color-interpolation-filters="sRGB">
<feFlood flood-opacity="0" result="BackgroundImageFix"/>
<feBlend mode="normal" in="SourceGraphic" in2="BackgroundImageFix" result="shape"/>
<feGaussianBlur stdDeviation="0.25" result="effect1_foregroundBlur_4_149"/>
</filter>
<filter id="filter32_f_4_149" x="489.5" y="354.5" width="11" height="7" filterUnits="userSpaceOnUse" color-interpolation-filters="sRGB">
<feFlood flood-opacity="0" result="BackgroundImageFix"/>
<feBlend mode="normal" in="SourceGraphic" in2="BackgroundImageFix" result="shape"/>
<feGaussianBlur stdDeviation="0.25" result="effect1_foregroundBlur_4_149"/>
</filter>
<filter id="filter33_f_4_149" x="500.5" y="361.5" width="11" height="7" filterUnits="userSpaceOnUse" color-interpolation-filters="sRGB">
<feFlood flood-opacity="0" result="BackgroundImageFix"/>
<feBlend mode="normal" in="SourceGraphic" in2="BackgroundImageFix" result="shape"/>
<feGaussianBlur stdDeviation="0.25" result="effect1_foregroundBlur_4_149"/>
</filter>
<filter id="filter34_f_4_149" x="489.5" y="361.5" width="11" height="7" filterUnits="userSpaceOnUse" color-interpolation-filters="sRGB">
<feFlood flood-opacity="0" result="BackgroundImageFix"/>
<feBlend mode="normal" in="SourceGraphic" in2="BackgroundImageFix" result="shape"/>
<feGaussianBlur stdDeviation="0.25" result="effect1_foregroundBlur_4_149"/>
</filter>
<filter id="filter35_f_4_149" x="489.5" y="368.5" width="11" height="7" filterUnits="userSpaceOnUse" color-interpolation-filters="sRGB">
<feFlood flood-opacity="0" result="BackgroundImageFix"/>
<feBlend mode="normal" in="SourceGraphic" in2="BackgroundImageFix" result="shape"/>
<feGaussianBlur stdDeviation="0.25" result="effect1_foregroundBlur_4_149"/>
</filter>
<filter id="filter36_f_4_149" x="489.5" y="375.5" width="11" height="7" filterUnits="userSpaceOnUse" color-interpolation-filters="sRGB">
<feFlood flood-opacity="0" result="BackgroundImageFix"/>
<feBlend mode="normal" in="SourceGraphic" in2="BackgroundImageFix" result="shape"/>
<feGaussianBlur stdDeviation="0.25" result="effect1_foregroundBlur_4_149"/>
</filter>
<filter id="filter37_f_4_149" x="500.5" y="368.5" width="11" height="7" filterUnits="userSpaceOnUse" color-interpolation-filters="sRGB">
<feFlood flood-opacity="0" result="BackgroundImageFix"/>
<feBlend mode="normal" in="SourceGraphic" in2="BackgroundImageFix" result="shape"/>
<feGaussianBlur stdDeviation="0.25" result="effect1_foregroundBlur_4_149"/>
</filter>
</defs>
</svg>
