<svg xmlns="http://www.w3.org/2000/svg" xmlns:xlink="http://www.w3.org/1999/xlink" x="0px" y="0px"
	 width="595.28px" height="593.97px" viewBox="0 0 595.28 593.97" enable-background="new 0 0 595.28 593.97" xml:space="preserve">
<path fill="#D9D9D8" d="M370.099,310.859l-0.046-25.835c-0.012-6.261-5.47-14.433-12.19-18.254l-7.061-4.014l0.047,25.837
	c0.011,6.26,5.469,14.432,12.19,18.253L370.099,310.859z"/>
<path fill="#D9D9D8" d="M371.198,291.314c0.566,0.123,0.993,0.627,0.993,1.231v1.859c0,0.603-0.421,1.105-0.985,1.23
	L371.198,291.314z M371.188,285.899c0.572,0.118,1.003,0.625,1.003,1.232v1.86c0,0.604-0.427,1.109-0.995,1.231L371.188,285.899z
	 M373.455,287.666v-0.534c0-0.563,0.369-1.04,0.878-1.2C374.001,286.503,373.706,287.084,373.455,287.666 M370.559,280.458h0.374
	c0.695,0,1.259,0.564,1.259,1.26v1.86c0,0.608-0.432,1.115-1.005,1.233l-0.001-0.417
	C371.184,283.141,370.963,281.813,370.559,280.458 M374.714,280.458h4.024c0.104,0,0.206,0.014,0.303,0.036
	c-1.543,1.213-2.925,2.724-4.021,4.344h-0.307c-0.695,0-1.259-0.564-1.259-1.26v-1.86
	C373.455,281.022,374.019,280.458,374.714,280.458 M368.054,275.044h2.879c0.695,0,1.259,0.563,1.259,1.259v1.86
	c0,0.695-0.563,1.259-1.259,1.259h-0.717C369.684,277.958,368.949,276.478,368.054,275.044 M374.714,275.044h4.024
	c0.695,0,1.26,0.563,1.26,1.259v1.86c0,0.695-0.564,1.259-1.26,1.259h-4.024c-0.695,0-1.259-0.563-1.259-1.259v-1.86
	C373.455,275.607,374.019,275.044,374.714,275.044 M366.908,269.629h4.024c0.695,0,1.259,0.564,1.259,1.26v1.86
	c0,0.695-0.563,1.259-1.259,1.259h-3.56c-0.531-0.771-1.108-1.523-1.725-2.247v-0.872
	C365.648,270.194,366.213,269.629,366.908,269.629 M374.714,269.629h4.024c0.695,0,1.26,0.564,1.26,1.26v1.86
	c0,0.695-0.564,1.259-1.26,1.259h-4.024c-0.695,0-1.259-0.563-1.259-1.259v-1.86C373.455,270.194,374.019,269.629,374.714,269.629
	 M359.102,264.215h4.024c0.695,0,1.259,0.563,1.259,1.26v1.859c0,0.696-0.563,1.259-1.259,1.259h-0.645
	c-1.104-0.934-2.274-1.764-3.487-2.453l-1.152-0.655C357.842,264.779,358.406,264.215,359.102,264.215 M366.908,264.215h4.024
	c0.695,0,1.259,0.563,1.259,1.26v1.859c0,0.696-0.563,1.259-1.259,1.259h-4.024c-0.695,0-1.26-0.563-1.26-1.259v-1.859
	C365.648,264.779,366.213,264.215,366.908,264.215 M374.714,264.215h4.024c0.695,0,1.26,0.563,1.26,1.26v1.859
	c0,0.696-0.564,1.259-1.26,1.259h-4.024c-0.695,0-1.259-0.563-1.259-1.259v-1.859C373.455,264.779,374.019,264.215,374.714,264.215
	 M359.102,258.801h4.024c0.695,0,1.259,0.563,1.259,1.259v1.861c0,0.694-0.563,1.259-1.259,1.259h-4.024
	c-0.695,0-1.26-0.564-1.26-1.259v-1.861C357.842,259.365,358.406,258.801,359.102,258.801 M366.908,258.801h4.024
	c0.695,0,1.259,0.563,1.259,1.259v1.861c0,0.694-0.563,1.259-1.259,1.259h-4.024c-0.695,0-1.26-0.564-1.26-1.259v-1.861
	C365.648,259.365,366.213,258.801,366.908,258.801 M374.714,258.801h4.024c0.695,0,1.26,0.563,1.26,1.259v1.861
	c0,0.694-0.564,1.259-1.26,1.259h-4.024c-0.695,0-1.259-0.564-1.259-1.259v-1.861C373.455,259.365,374.019,258.801,374.714,258.801
	 M362.766,253.261h4.025c0.695,0,1.259,0.563,1.259,1.259v1.861c0,0.695-0.563,1.259-1.259,1.259h-4.025
	c-0.695,0-1.258-0.563-1.258-1.259v-1.861C361.508,253.825,362.07,253.261,362.766,253.261 M370.545,253.261h4.024
	c0.695,0,1.26,0.563,1.26,1.259v1.861c0,0.695-0.564,1.259-1.26,1.259h-4.024c-0.695,0-1.259-0.563-1.259-1.259v-1.861
	C369.286,253.825,369.85,253.261,370.545,253.261 M366.908,248.057h4.024c0.695,0,1.259,0.563,1.259,1.26v1.86
	c0,0.695-0.563,1.259-1.259,1.259h-4.024c-0.695,0-1.26-0.563-1.26-1.259v-1.86C365.648,248.621,366.213,248.057,366.908,248.057"/>
<path fill="#D9D9D8" d="M373.048,311.446l0.032-18.096c0.008-4.386,3.83-10.11,8.539-12.786l4.944-2.811l-0.032,18.096
	c-0.008,4.385-3.831,10.109-8.538,12.786L373.048,311.446z"/>
<path fill="#D9D9D8" d="M370.324,343.895v-30.603c0-1.825,2.738-1.825,2.738,0v30.603
	C373.063,345.719,370.324,345.719,370.324,343.895"/>
<path fill="#D9D9D8" d="M369.156,335.574l-13.211-5.563c-3.2-1.349-5.771-5.132-5.741-8.45l0.033-3.487l13.211,5.564
	c3.201,1.348,5.771,5.131,5.74,8.45L369.156,335.574z"/>
<path fill="#D9D9D8" d="M374.199,327.115l13.212-5.563c3.199-1.348,5.771-5.131,5.739-8.45l-0.03-3.484l-13.212,5.562
	c-3.201,1.348-5.771,5.131-5.741,8.45L374.199,327.115z"/>
<path fill="#4A8C40" d="M363.688,303.963l-0.046-25.836c-0.012-6.261-5.47-14.433-12.19-18.255l-7.061-4.013l0.047,25.837
	c0.011,6.26,5.469,14.433,12.19,18.253L363.688,303.963z"/>
<path fill="#F99F34" d="M364.787,284.417c0.566,0.123,0.992,0.628,0.992,1.232v1.859c0,0.603-0.421,1.104-0.984,1.23
	L364.787,284.417z M364.777,279.002c0.572,0.118,1.002,0.625,1.002,1.232v1.86c0,0.605-0.426,1.11-0.994,1.231L364.777,279.002z
	 M367.044,280.769v-0.534c0-0.563,0.369-1.039,0.878-1.201C367.59,279.607,367.295,280.189,367.044,280.769 M364.147,273.562h0.374
	c0.695,0,1.258,0.563,1.258,1.259v1.86c0,0.608-0.431,1.116-1.004,1.233l-0.001-0.417
	C364.772,276.246,364.552,274.917,364.147,273.562 M368.303,273.562h4.024c0.104,0,0.206,0.013,0.303,0.037
	c-1.543,1.211-2.925,2.723-4.021,4.341h-0.307c-0.695,0-1.259-0.563-1.259-1.259v-1.86
	C367.044,274.125,367.607,273.562,368.303,273.562 M361.643,268.148h2.879c0.695,0,1.258,0.563,1.258,1.259v1.86
	c0,0.695-0.563,1.26-1.258,1.26h-0.717C363.271,271.062,362.538,269.582,361.643,268.148 M368.303,268.148h4.024
	c0.695,0,1.26,0.563,1.26,1.259v1.86c0,0.695-0.564,1.26-1.26,1.26h-4.024c-0.695,0-1.259-0.564-1.259-1.26v-1.86
	C367.044,268.711,367.607,268.148,368.303,268.148 M360.496,262.734h4.025c0.695,0,1.258,0.563,1.258,1.258v1.861
	c0,0.695-0.563,1.259-1.258,1.259h-3.56c-0.531-0.771-1.108-1.523-1.725-2.247v-0.873
	C359.237,263.296,359.801,262.734,360.496,262.734 M368.303,262.734h4.024c0.695,0,1.26,0.563,1.26,1.258v1.861
	c0,0.695-0.564,1.259-1.26,1.259h-4.024c-0.695,0-1.259-0.563-1.259-1.259v-1.861C367.044,263.296,367.607,262.734,368.303,262.734
	 M352.69,257.319h4.024c0.695,0,1.259,0.564,1.259,1.26v1.859c0,0.696-0.563,1.26-1.259,1.26h-0.645
	c-1.104-0.936-2.274-1.766-3.487-2.454l-1.152-0.655C351.431,257.883,351.995,257.319,352.69,257.319 M360.496,257.319h4.025
	c0.695,0,1.258,0.564,1.258,1.26v1.859c0,0.696-0.563,1.26-1.258,1.26h-4.025c-0.695,0-1.259-0.563-1.259-1.26v-1.859
	C359.237,257.883,359.801,257.319,360.496,257.319 M368.303,257.319h4.024c0.695,0,1.26,0.564,1.26,1.26v1.859
	c0,0.696-0.564,1.26-1.26,1.26h-4.024c-0.695,0-1.259-0.563-1.259-1.26v-1.859C367.044,257.883,367.607,257.319,368.303,257.319
	 M352.69,251.905h4.024c0.695,0,1.259,0.564,1.259,1.259v1.861c0,0.695-0.563,1.259-1.259,1.259h-4.024
	c-0.695,0-1.26-0.563-1.26-1.259v-1.861C351.431,252.469,351.995,251.905,352.69,251.905 M360.496,251.905h4.025
	c0.695,0,1.258,0.564,1.258,1.259v1.861c0,0.695-0.563,1.259-1.258,1.259h-4.025c-0.695,0-1.259-0.563-1.259-1.259v-1.861
	C359.237,252.469,359.801,251.905,360.496,251.905 M368.303,251.905h4.024c0.695,0,1.26,0.564,1.26,1.259v1.861
	c0,0.695-0.564,1.259-1.26,1.259h-4.024c-0.695,0-1.259-0.563-1.259-1.259v-1.861C367.044,252.469,367.607,251.905,368.303,251.905
	 M356.354,246.365h4.025c0.694,0,1.259,0.564,1.259,1.26v1.859c0,0.695-0.564,1.26-1.259,1.26h-4.025
	c-0.695,0-1.258-0.564-1.258-1.26v-1.859C355.097,246.929,355.659,246.365,356.354,246.365 M364.133,246.365h4.025
	c0.695,0,1.26,0.564,1.26,1.26v1.859c0,0.695-0.564,1.26-1.26,1.26h-4.025c-0.695,0-1.258-0.564-1.258-1.26v-1.859
	C362.875,246.929,363.438,246.365,364.133,246.365 M360.496,241.161h4.025c0.695,0,1.258,0.563,1.258,1.26v1.859
	c0,0.696-0.563,1.26-1.258,1.26h-4.025c-0.695,0-1.259-0.563-1.259-1.26v-1.859C359.237,241.724,359.801,241.161,360.496,241.161"/>
<path fill="#4A8C40" d="M366.637,304.549l0.031-18.096c0.008-4.385,3.831-10.109,8.54-12.785l4.943-2.813l-0.031,18.097
	c-0.009,4.386-3.832,10.109-8.539,12.786L366.637,304.549z"/>
<path fill="#4A8C40" d="M363.913,336.999v-30.604c0-1.825,2.738-1.825,2.738,0v30.604
	C366.651,338.823,363.913,338.823,363.913,336.999"/>
<path fill="#4A8C40" d="M362.745,328.676l-13.211-5.563c-3.201-1.348-5.771-5.132-5.741-8.45l0.032-3.486l13.212,5.563
	c3.2,1.349,5.771,5.132,5.739,8.451L362.745,328.676z"/>
<path fill="#4A8C40" d="M367.788,320.218l13.211-5.563c3.2-1.348,5.771-5.13,5.74-8.449l-0.031-3.486l-13.212,5.563
	c-3.2,1.348-5.771,5.131-5.74,8.45L367.788,320.218z"/>
<path fill="#D9D9D8" d="M314.528,335.785l-10.413-6.037c-2.523-1.463-4.55-5.568-4.526-9.172l0.025-3.783l10.415,6.038
	c2.522,1.462,4.549,5.569,4.524,9.171L314.528,335.785z"/>
<path fill="#D9D9D8" d="M317.269,335.785l10.413-6.037c2.523-1.463,4.55-5.568,4.526-9.172l-0.025-3.783l-10.414,6.038
	c-2.523,1.462-4.549,5.569-4.525,9.171L317.269,335.785z"/>
<path fill="#D9D9D8" d="M315.96,277.006c3.186,2.719,5.205,6.763,5.205,11.279c0,4.516-2.02,8.56-5.205,11.278
	c-3.186-2.719-5.204-6.763-5.204-11.278C310.756,283.769,312.774,279.725,315.96,277.006"/>
<path fill="#D9D9D8" d="M314.528,323.042l-10.413-6.036c-2.523-1.463-4.55-5.569-4.526-9.171l0.025-3.784l10.415,6.037
	c2.522,1.463,4.549,5.569,4.524,9.172L314.528,323.042z"/>
<path fill="#D9D9D8" d="M317.269,323.042l10.413-6.036c2.523-1.463,4.55-5.569,4.526-9.171l-0.025-3.784l-10.414,6.037
	c-2.523,1.463-4.549,5.569-4.525,9.172L317.269,323.042z"/>
<path fill="#D9D9D8" d="M314.528,310.301l-10.413-6.036c-2.523-1.464-4.55-5.569-4.526-9.171l0.025-3.784l10.415,6.037
	c2.522,1.463,4.549,5.568,4.524,9.172L314.528,310.301z"/>
<path fill="#D9D9D8" d="M317.269,310.301l10.413-6.036c2.523-1.464,4.55-5.569,4.526-9.171l-0.025-3.784l-10.414,6.037
	c-2.523,1.463-4.549,5.568-4.525,9.172L317.269,310.301z"/>
<path fill="#D9D9D8" d="M311.438,280.187v-22.781c0-1.367,2.051-1.367,2.051,0v19.816c-0.727,0.809-1.55,1.799-2.019,3.249
	C311.449,280.384,311.438,280.29,311.438,280.187 M318.066,276.73v-19.324c0-1.367,2.051-1.367,2.051,0v22.142
	C319.597,278.408,318.989,277.588,318.066,276.73"/>
<path fill="#D9D9D8" d="M299.781,289.238v-19.263c0-1.367,2.052-1.367,2.052,0v20.415L299.781,289.238z M305.416,292.551v-30.042
	c0-1.367,2.051-1.367,2.051,0v30.86c0,0.114-0.015,0.219-0.04,0.313L305.416,292.551z M329.723,290.449v-20.474
	c0-1.367,2.052-1.367,2.052,0v19.383l-2.05,1.153L329.723,290.449z M324.089,293.37v-30.86c0-1.367,2.051-1.367,2.051,0v30.163
	l-1.977,1.112C324.115,293.665,324.089,293.526,324.089,293.37"/>
<path fill="#D9D9D8" d="M314.395,359.909v-22.479c0-1.825,2.738-1.825,2.738,0v22.479
	C317.133,361.734,314.395,361.734,314.395,359.909"/>
<path fill="#F99F34" d="M308.117,328.888l-10.413-6.037c-2.524-1.463-4.55-5.568-4.526-9.171l0.025-3.783l10.414,6.037
	c2.523,1.463,4.549,5.568,4.524,9.171L308.117,328.888z"/>
<path fill="#F99F34" d="M310.857,328.888l10.413-6.037c2.523-1.463,4.549-5.568,4.525-9.171l-0.025-3.783l-10.413,6.037
	c-2.523,1.463-4.549,5.568-4.525,9.171L310.857,328.888z"/>
<path fill="#F99F34" d="M309.549,270.11c3.186,2.719,5.205,6.763,5.205,11.279c0,4.516-2.02,8.561-5.205,11.279
	c-3.186-2.719-5.205-6.764-5.205-11.279C304.344,276.873,306.363,272.829,309.549,270.11"/>
<path fill="#F99F34" d="M308.117,316.146l-10.413-6.036c-2.524-1.463-4.55-5.569-4.526-9.172l0.025-3.782l10.414,6.037
	c2.523,1.463,4.549,5.568,4.524,9.171L308.117,316.146z"/>
<path fill="#F99F34" d="M310.857,316.146l10.413-6.036c2.523-1.463,4.549-5.569,4.525-9.172l-0.025-3.782l-10.413,6.037
	c-2.523,1.463-4.549,5.568-4.525,9.171L310.857,316.146z"/>
<path fill="#F99F34" d="M308.117,303.405l-10.413-6.036c-2.524-1.464-4.55-5.568-4.526-9.172l0.025-3.783l10.414,6.038
	c2.523,1.462,4.549,5.568,4.524,9.171L308.117,303.405z"/>
<path fill="#F99F34" d="M310.857,303.405l10.413-6.036c2.523-1.464,4.549-5.568,4.525-9.172l-0.025-3.783l-10.413,6.038
	c-2.523,1.462-4.549,5.568-4.525,9.171L310.857,303.405z"/>
<path fill="#F99F34" d="M305.027,273.291v-22.78c0-1.367,2.05-1.367,2.05,0v19.815c-0.726,0.809-1.55,1.799-2.019,3.249
	C305.038,273.488,305.027,273.393,305.027,273.291 M311.655,269.833V250.51c0-1.367,2.051-1.367,2.051,0v22.141
	C313.185,271.511,312.578,270.693,311.655,269.833"/>
<path fill="#F99F34" d="M293.37,282.339v-19.26c0-1.368,2.051-1.368,2.051,0v20.415L293.37,282.339z M299.004,285.656v-30.042
	c0-1.367,2.052-1.367,2.052,0v30.859c0,0.114-0.015,0.218-0.04,0.313L299.004,285.656z M323.312,283.552V263.08
	c0-1.368,2.051-1.368,2.051,0v19.381l-2.05,1.153L323.312,283.552z M317.678,286.473v-30.859c0-1.367,2.051-1.367,2.051,0v30.162
	l-1.977,1.112C317.704,286.768,317.678,286.629,317.678,286.473"/>
<path fill="#F99F34" d="M307.983,353.013v-22.48c0-1.826,2.737-1.826,2.737,0v22.48
	C310.721,354.838,307.983,354.838,307.983,353.013"/>
<path fill="#D9D9D8" d="M417.194,294.002c-1.916,2.244-4.767,3.668-7.949,3.668s-6.033-1.424-7.949-3.668
	c1.916-2.245,4.767-3.668,7.949-3.668S415.278,291.757,417.194,294.002"/>
<path fill="#D9D9D8" d="M417.978,293.95c0-5.881,4.767-10.647,10.647-10.647s10.648,4.767,10.648,10.647
	s-4.768,10.647-10.648,10.647S417.978,299.831,417.978,293.95"/>
<path fill="#D9D9D8" d="M455.893,294.002c-1.915,2.244-4.766,3.668-7.948,3.668s-6.033-1.424-7.949-3.668
	c1.916-2.245,4.767-3.668,7.949-3.668S453.978,291.757,455.893,294.002"/>
<path fill="#D9D9D8" d="M428.595,305.402c2.245,1.916,3.668,4.767,3.668,7.949s-1.423,6.032-3.668,7.95
	c-2.245-1.918-3.669-4.768-3.669-7.95S426.35,307.318,428.595,305.402"/>
<path fill="#D9D9D8" d="M428.595,266.704c2.245,1.916,3.668,4.767,3.668,7.949s-1.423,6.033-3.668,7.948
	c-2.245-1.915-3.669-4.766-3.669-7.948S426.35,268.62,428.595,266.704"/>
<path fill="#D9D9D8" d="M420.533,302.063c0.232,2.942-0.776,5.964-3.026,8.215c-2.25,2.25-5.272,3.26-8.215,3.027
	c-0.233-2.942,0.775-5.965,3.026-8.215C414.568,302.839,417.591,301.832,420.533,302.063"/>
<path fill="#D9D9D8" d="M447.897,274.699c0.232,2.942-0.776,5.965-3.026,8.215c-2.25,2.251-5.273,3.26-8.215,3.027
	c-0.232-2.942,0.776-5.965,3.026-8.215C441.934,275.475,444.955,274.466,447.897,274.699"/>
<path fill="#D9D9D8" d="M436.656,302.063c2.941-0.231,5.965,0.776,8.214,3.027c2.251,2.25,3.261,5.272,3.027,8.215
	c-2.942,0.232-5.964-0.777-8.215-3.027C437.433,308.027,436.424,305.005,436.656,302.063"/>
<path fill="#D9D9D8" d="M409.292,274.699c2.941-0.232,5.965,0.776,8.215,3.027c2.25,2.25,3.259,5.272,3.026,8.215
	c-2.942,0.232-5.965-0.776-8.215-3.027C410.067,280.664,409.059,277.641,409.292,274.699"/>
<path fill="#D9D9D8" d="M418.101,298.457c-0.887,2.815-2.954,5.239-5.884,6.481c-2.93,1.244-6.11,1.048-8.75-0.27
	c0.887-2.814,2.954-5.239,5.883-6.482C412.28,296.943,415.46,297.138,418.101,298.457"/>
<path fill="#D9D9D8" d="M453.723,283.335c-0.887,2.815-2.954,5.239-5.884,6.483c-2.93,1.243-6.109,1.047-8.75-0.271
	c0.886-2.814,2.954-5.239,5.884-6.482C447.901,281.822,451.082,282.018,453.723,283.335"/>
<path fill="#D9D9D8" d="M433.049,304.496c2.815,0.887,5.239,2.954,6.482,5.884c1.244,2.931,1.048,6.109-0.271,8.751
	c-2.814-0.887-5.239-2.954-6.483-5.884C431.534,310.316,431.731,307.137,433.049,304.496"/>
<path fill="#D9D9D8" d="M417.928,268.875c2.815,0.887,5.239,2.953,6.483,5.883c1.243,2.93,1.047,6.11-0.271,8.751
	c-2.815-0.887-5.24-2.955-6.483-5.884C416.413,274.695,416.61,271.515,417.928,268.875"/>
<path fill="#D9D9D8" d="M424.324,304.572c1.364,2.617,1.615,5.794,0.424,8.744c-1.192,2.951-3.58,5.061-6.38,5.996
	c-1.363-2.617-1.615-5.792-0.423-8.744C419.138,307.617,421.525,305.508,424.324,304.572"/>
<path fill="#D9D9D8" d="M438.82,268.692c1.364,2.617,1.616,5.793,0.424,8.743c-1.191,2.951-3.58,5.062-6.379,5.997
	c-1.364-2.618-1.615-5.794-0.423-8.745C433.634,271.737,436.021,269.627,438.82,268.692"/>
<path fill="#D9D9D8" d="M439.165,298.273c2.617-1.364,5.794-1.616,8.744-0.424c2.951,1.192,5.061,3.58,5.996,6.38
	c-2.617,1.361-5.793,1.614-8.744,0.422C442.211,303.459,440.101,301.072,439.165,298.273"/>
<path fill="#D9D9D8" d="M403.284,283.776c2.617-1.364,5.793-1.615,8.743-0.423c2.952,1.191,5.062,3.579,5.997,6.379
	c-2.617,1.363-5.793,1.615-8.744,0.423C406.329,288.963,404.22,286.576,403.284,283.776"/>
<path fill="#D9D9D8" d="M447.789,342.039c0.332,4.197-1.108,8.51-4.318,11.721c-3.213,3.211-7.523,4.65-11.723,4.319
	c-0.331-4.198,1.108-8.511,4.32-11.722C439.279,343.147,443.592,341.707,447.789,342.039"/>
<path fill="#D9D9D8" d="M409.547,327.556c4.197-0.332,8.51,1.107,11.721,4.318s4.651,7.522,4.319,11.721
	c-4.198,0.332-8.51-1.107-11.722-4.319C410.654,336.065,409.215,331.753,409.547,327.556"/>
<path fill="#D9D9D8" d="M427.343,364.636v-39.848c0-1.636,2.455-1.636,2.455,0v39.848
	C429.798,366.271,427.343,366.271,427.343,364.636"/>
<path fill="#F99F34" d="M411.078,287.423c-1.916,2.245-4.767,3.669-7.949,3.669c-3.182,0-6.032-1.424-7.948-3.669
	c1.916-2.244,4.767-3.667,7.948-3.667C406.312,283.756,409.162,285.179,411.078,287.423"/>
<path fill="#59562F" d="M411.861,287.372c0-5.881,4.768-10.647,10.648-10.647c5.88,0,10.647,4.767,10.647,10.647
	s-4.768,10.647-10.647,10.647C416.629,298.019,411.861,293.252,411.861,287.372"/>
<path fill="#F99F34" d="M449.777,287.423c-1.916,2.245-4.767,3.669-7.949,3.669s-6.032-1.424-7.949-3.669
	c1.917-2.244,4.767-3.667,7.949-3.667S447.861,285.179,449.777,287.423"/>
<path fill="#F99F34" d="M422.479,298.824c2.245,1.916,3.669,4.767,3.669,7.949s-1.424,6.033-3.669,7.949
	c-2.245-1.916-3.668-4.767-3.668-7.949S420.233,300.74,422.479,298.824"/>
<path fill="#F99F34" d="M422.479,260.125c2.245,1.916,3.669,4.767,3.669,7.949s-1.424,6.033-3.669,7.948
	c-2.245-1.915-3.668-4.766-3.668-7.948S420.233,262.042,422.479,260.125"/>
<path fill="#F99F34" d="M414.417,295.485c0.232,2.942-0.775,5.964-3.026,8.215c-2.25,2.251-5.272,3.259-8.215,3.027
	c-0.232-2.942,0.776-5.965,3.026-8.215C408.453,296.261,411.476,295.252,414.417,295.485"/>
<path fill="#F99F34" d="M441.781,268.121c0.232,2.943-0.775,5.965-3.025,8.215c-2.251,2.251-5.273,3.26-8.215,3.027
	c-0.233-2.942,0.775-5.964,3.025-8.215C435.817,268.898,438.84,267.888,441.781,268.121"/>
<path fill="#F99F34" d="M430.541,295.485c2.941-0.232,5.964,0.776,8.215,3.027c2.25,2.251,3.259,5.272,3.025,8.215
	c-2.941,0.231-5.964-0.776-8.215-3.027C431.316,301.449,430.308,298.427,430.541,295.485"/>
<path fill="#F99F34" d="M403.176,268.121c2.942-0.232,5.965,0.777,8.215,3.027c2.251,2.251,3.26,5.272,3.026,8.215
	c-2.941,0.232-5.964-0.776-8.215-3.027C403.952,274.085,402.943,271.064,403.176,268.121"/>
<path fill="#F99F34" d="M411.985,291.878c-0.887,2.815-2.955,5.238-5.885,6.482c-2.929,1.243-6.109,1.047-8.749-0.271
	c0.886-2.815,2.953-5.239,5.882-6.483C406.165,290.365,409.344,290.56,411.985,291.878"/>
<path fill="#F99F34" d="M447.606,276.757c-0.887,2.815-2.954,5.238-5.884,6.482c-2.93,1.243-6.109,1.047-8.75-0.271
	c0.886-2.815,2.955-5.238,5.885-6.482C441.786,275.244,444.966,275.44,447.606,276.757"/>
<path fill="#F99F34" d="M426.934,297.917c2.814,0.888,5.239,2.955,6.481,5.884c1.244,2.93,1.048,6.109-0.27,8.75
	c-2.815-0.886-5.24-2.954-6.483-5.884C425.418,303.738,425.615,300.559,426.934,297.917"/>
<path fill="#F99F34" d="M411.813,262.295c2.814,0.887,5.239,2.954,6.482,5.885c1.243,2.929,1.047,6.108-0.271,8.749
	c-2.815-0.886-5.239-2.953-6.483-5.883C410.298,268.116,410.494,264.937,411.813,262.295"/>
<path fill="#F99F34" d="M418.208,297.994c1.364,2.617,1.616,5.794,0.424,8.744c-1.192,2.951-3.58,5.061-6.379,5.996
	c-1.363-2.617-1.616-5.793-0.424-8.744S415.409,298.929,418.208,297.994"/>
<path fill="#F99F34" d="M432.705,262.113c1.363,2.618,1.615,5.794,0.424,8.745c-1.192,2.951-3.58,5.061-6.38,5.995
	c-1.364-2.616-1.615-5.792-0.423-8.743C427.518,265.159,429.905,263.048,432.705,262.113"/>
<path fill="#F99F34" d="M433.049,291.694c2.618-1.363,5.794-1.615,8.745-0.423c2.95,1.192,5.06,3.579,5.995,6.378
	c-2.617,1.364-5.793,1.616-8.744,0.425C436.095,296.881,433.984,294.494,433.049,291.694"/>
<path fill="#F99F34" d="M397.168,277.198c2.617-1.363,5.793-1.616,8.744-0.423c2.951,1.192,5.061,3.579,5.997,6.378
	c-2.618,1.364-5.794,1.616-8.745,0.424C400.214,282.384,398.104,279.997,397.168,277.198"/>
<path fill="#4A8C40" d="M441.673,335.459c0.332,4.198-1.107,8.511-4.318,11.722c-3.212,3.211-7.523,4.65-11.722,4.318
	c-0.332-4.197,1.108-8.51,4.319-11.721S437.476,335.128,441.673,335.459"/>
<path fill="#4A8C40" d="M403.431,320.977c4.198-0.331,8.51,1.108,11.721,4.319c3.212,3.211,4.651,7.522,4.32,11.721
	c-4.198,0.332-8.511-1.108-11.723-4.319C404.539,329.486,403.099,325.175,403.431,320.977"/>
<path fill="#4A8C40" d="M421.228,358.058V318.21c0-1.636,2.454-1.636,2.454,0v39.848
	C423.682,359.694,421.228,359.694,421.228,358.058"/>
<path fill="#D81F26" d="M366.338,28.056c-0.021,0-0.039,0-0.06,0c-182.646,0-330.706,148.055-330.706,330.694h173.37
	c0-86.892,70.441-157.33,157.336-157.33c0.021,0,0.039,0.001,0.06,0.001V28.056z"/>
<path fill="#F26522" d="M366.338,54.226C198.149,54.229,61.809,190.566,61.809,358.75h159.65
	c0-80.013,64.863-144.877,144.879-144.88V54.226z"/>
<path fill="#FEE600" d="M366.338,80.833C212.843,80.836,88.416,205.261,88.416,358.75h133.042
	c0-80.015,64.863-144.876,144.879-144.879V80.833z"/>
<path fill="#63BC46" d="M366.338,107.442c-138.799,0.003-251.314,112.516-251.314,251.308h106.435
	c0-80.015,64.863-144.876,144.879-144.879V107.442z"/>
<path fill="#2189CA" d="M366.338,134.049c-124.104,0.004-224.705,100.599-224.705,224.7h79.825
	c0-80.015,64.863-144.876,144.879-144.879V134.049z"/>
<path fill="#3B54A4" d="M366.338,160.658c-109.406,0.003-198.095,88.688-198.095,198.092h53.215
	c0-80.015,64.863-144.876,144.879-144.879V160.658z"/>
<path fill="#753090" d="M366.338,187.263c-94.711,0.003-171.49,76.781-171.49,171.486h26.61
	c0-80.014,64.863-144.877,144.879-144.879V187.263z"/>
<path fill="#D9D9D8" d="M490.267,435.383 M490.267,435.383c-8.559,6.524-16.788,13.681-24.605,21.498
	c-19.011,19.016-34.16,40.424-45.498,63.25c8.547-6.518,16.771-13.655,24.582-21.462
	C463.773,479.642,478.929,458.223,490.267,435.383"/>
<path fill="#D9D9D8" d="M153.17,350.156L153.17,350.156c-41.482,0-80.522,10.476-114.617,28.927
	c11.819,54.911,42.344,102.854,84.554,136.886c13.692-33.546,34.124-64.986,61.354-92.208c21.19-21.195,44.939-38.257,70.238-51.252
	C223.841,358.167,189.443,350.156,153.17,350.156"/>
<path fill="#D9D9D8" d="M446.359,373.198h-0.667c-67.651,0.083-135.263,25.887-186.886,77.511
	c-30.502,30.502-51.989,66.604-64.503,104.988v0.002c2.427,0.857,4.868,1.676,7.329,2.453l0.351,0.108
	c3.018,0.946,6.063,1.833,9.127,2.664c0.619,0.165,1.236,0.317,1.856,0.479c2.589,0.681,5.198,1.324,7.821,1.919
	c0.976,0.215,1.955,0.425,2.93,0.631c1.219,0.261,2.446,0.491,3.671,0.734c10.918-35.495,29.493-69.254,55.915-98.727
	c49.679-55.414,117.414-84.942,186.321-87.771c-3.964-1.699-7.963-3.266-12.003-4.74
	C453.874,373.286,450.11,373.204,446.359,373.198"/>
<path fill="#D9D9D8" d="M481.053,383.471L481.053,383.471c-64.519,5.59-126.955,35.542-172.282,88.729
	c-24.74,29.031-41.835,62.003-51.508,96.463c1.361,0.091,2.719,0.194,4.086,0.268c1.43,0.071,2.856,0.145,4.283,0.194
	c2.001,0.066,4.018,0.108,6.031,0.133c1.001,0.01,2,0.021,2.998,0.024h1.472c0.283,0,0.563-0.003,0.845-0.006
	c0.874-0.013,1.748-0.024,2.616-0.043c2.422-0.054,4.837-0.152,7.259-0.279c10.427-31.658,27.016-61.873,49.976-88.809
	c42.128-49.436,98.496-79.517,157.904-89.403C490.235,388.157,485.672,385.741,481.053,383.471"/>
<path fill="#D9D9D8" d="M505.069,398.025 M505.069,398.025c-54.88,14.537-105.524,46.718-142.608,95.37
	c-16.819,22.069-29.619,45.935-38.561,70.71c15.394-3.223,30.523-7.957,45.17-14.221c8.661-21.377,20.248-41.971,34.906-61.204
	c26.566-34.845,61.787-67.25,98.835-84.785L505.069,398.025z"/>
<path fill="#D9D9D8" d="M374.697,358.804L374.697,358.804c-2.173,0-4.347,0.012-6.514,0.072c-0.304,0.01-0.606,0.024-0.909,0.031
	c-4.517,0.139-9.02,0.406-13.523,0.795c-0.474,0.036-0.946,0.066-1.414,0.109c-1.948,0.183-3.891,0.399-5.833,0.628
	c-1.001,0.118-2.009,0.233-3.01,0.367c-1.84,0.237-3.679,0.491-5.513,0.771c-1.086,0.164-2.172,0.353-3.258,0.534
	c-3.363,0.559-6.726,1.196-10.069,1.9c-0.979,0.206-1.961,0.389-2.933,0.606c-1.584,0.353-3.155,0.753-4.728,1.135
	c-1.366,0.334-2.731,0.674-4.097,1.032c-1.512,0.399-3.023,0.813-4.528,1.244c-1.469,0.419-2.938,0.856-4.4,1.306
	c-1.396,0.428-2.799,0.844-4.188,1.298c-2.186,0.71-4.364,1.464-6.531,2.24c-1.487,0.528-2.962,1.087-4.442,1.645
	c-1.84,0.704-3.678,1.408-5.506,2.155c-1.202,0.49-2.397,1.007-3.593,1.518c-1.699,0.727-3.387,1.469-5.069,2.233
	c-1.133,0.521-2.271,1.037-3.398,1.572c-2.052,0.974-4.084,1.979-6.108,3.009c-0.712,0.365-1.438,0.711-2.149,1.082
	c-2.66,1.389-5.297,2.846-7.918,4.339c-0.896,0.511-1.776,1.045-2.663,1.566c-1.853,1.092-3.688,2.202-5.516,3.344
	c-0.951,0.595-1.899,1.196-2.84,1.803c-1.915,1.232-3.81,2.5-5.693,3.794c-0.733,0.504-1.473,0.994-2.2,1.505
	c-2.564,1.803-5.103,3.653-7.608,5.566c-0.555,0.424-1.101,0.867-1.652,1.298c-1.987,1.548-3.956,3.12-5.904,4.734
	c-0.811,0.667-1.612,1.354-2.418,2.033c-1.756,1.493-3.493,3.025-5.214,4.57c-0.74,0.668-1.479,1.323-2.212,1.997
	c-2.383,2.203-4.749,4.449-7.063,6.761c-29.291,29.289-49.466,64.238-60.542,101.325v0.006c2.066,1.335,4.157,2.634,6.266,3.909
	c1.474,0.892,2.968,1.754,4.46,2.609c0.557,0.325,1.109,0.649,1.668,0.965c1.946,1.099,3.903,2.168,5.883,3.211l0.214,0.115
	c2.085,1.105,4.189,2.174,6.312,3.217c11.91-38.116,32.927-73.996,63.124-104.194c49.855-49.859,115.203-74.759,180.545-74.759
	c8.459,0,16.91,0.416,25.336,1.251c-7.362-1.973-14.798-3.588-22.275-4.855c-0.31-0.049-0.619-0.104-0.929-0.158
	c-2.337-0.382-4.68-0.734-7.029-1.057c-0.321-0.042-0.648-0.078-0.971-0.121c-7.234-0.952-14.513-1.572-21.796-1.863
	c-0.346-0.012-0.697-0.036-1.044-0.048c-2.203-0.08-4.4-0.122-6.598-0.141C376.038,358.804,375.371,358.804,374.697,358.804"/>
<path fill="#DBE027" d="M403.775,501.535c8.547-6.52,16.771-13.656,24.582-21.462c19.027-19.027,34.184-40.446,45.521-63.284
	c-8.558,6.521-16.789,13.678-24.606,21.496C430.264,457.301,415.113,478.708,403.775,501.535"/>
<path fill="#4A8C40" d="M238.312,353.912c-30.862-14.342-65.256-22.353-101.528-22.353c-41.487,0-80.524,10.476-114.622,28.926
	c11.822,54.911,42.35,102.854,84.559,136.886c13.691-33.545,34.125-64.986,61.349-92.207
	C189.264,383.968,213.013,366.908,238.312,353.912"/>
<path fill="#77C044" d="M453.235,359.593c-3.963-1.699-7.965-3.266-11.999-4.74c-71.57-3.113-144.162,22.603-198.818,77.259
	c-30.505,30.505-51.99,66.606-64.505,104.99c2.428,0.855,4.871,1.676,7.332,2.452l0.351,0.109c3.018,0.947,6.063,1.833,9.127,2.664
	c0.618,0.164,1.237,0.316,1.855,0.48c2.592,0.679,5.199,1.323,7.821,1.916c0.977,0.22,1.955,0.426,2.931,0.633
	c1.217,0.261,2.445,0.49,3.669,0.734c10.92-35.495,29.498-69.253,55.913-98.727C316.594,391.951,384.329,362.422,453.235,359.593"/>
<path fill="#94BC3E" d="M478.346,372.146c-4.498-2.587-9.062-5.002-13.68-7.272c-64.52,5.59-126.956,35.543-172.284,88.73
	c-24.739,29.03-41.835,62-51.508,96.463c1.361,0.091,2.722,0.194,4.089,0.267c1.426,0.073,2.852,0.146,4.279,0.194
	c2.004,0.067,4.018,0.112,6.035,0.133c1.772,0.02,3.543,0.037,5.315,0.02c0.872-0.014,1.749-0.025,2.615-0.04
	c2.417-0.058,4.84-0.154,7.256-0.282c10.43-31.658,27.017-61.87,49.978-88.806C362.569,412.113,418.938,382.032,478.346,372.146"/>
<path fill="#BED632" d="M346.073,474.798c-16.819,22.068-29.62,45.935-38.56,70.71c15.393-3.223,30.522-7.957,45.169-14.22
	c8.661-21.378,20.248-41.972,34.906-61.206c26.565-34.843,61.787-67.25,98.835-84.785l2.258-5.869
	C433.799,393.965,383.158,426.145,346.073,474.798"/>
<path fill="#72A140" d="M420.958,348.456c-7.361-1.973-14.796-3.587-22.273-4.856c-0.311-0.047-0.62-0.102-0.93-0.157
	c-2.337-0.382-4.68-0.733-7.028-1.056c-0.321-0.042-0.65-0.079-0.971-0.121c-7.235-0.953-14.514-1.572-21.797-1.864
	c-0.346-0.012-0.697-0.036-1.044-0.048c-2.203-0.079-4.4-0.121-6.597-0.14c-0.668-0.007-1.336-0.007-2.009-0.007
	c-2.173,0-4.347,0.013-6.513,0.074c-0.304,0.006-0.607,0.023-0.91,0.03c-4.517,0.14-9.021,0.406-13.523,0.795
	c-0.474,0.036-0.946,0.066-1.414,0.109c-1.949,0.182-3.891,0.4-5.833,0.624c-1.002,0.123-2.009,0.237-3.011,0.371
	c-1.839,0.236-3.678,0.492-5.511,0.771c-1.087,0.164-2.173,0.352-3.259,0.534c-3.363,0.559-6.726,1.195-10.071,1.899
	c-0.976,0.206-1.959,0.389-2.931,0.607c-1.584,0.352-3.155,0.752-4.728,1.135c-1.366,0.333-2.73,0.674-4.098,1.032
	c-1.511,0.399-3.021,0.813-4.526,1.244c-1.47,0.418-2.938,0.856-4.401,1.305c-1.396,0.425-2.798,0.844-4.188,1.299
	c-2.185,0.71-4.364,1.463-6.531,2.24c-1.485,0.527-2.965,1.086-4.44,1.645c-1.841,0.703-3.68,1.408-5.507,2.155
	c-1.203,0.491-2.398,1.007-3.595,1.517c-1.697,0.729-3.384,1.469-5.065,2.233c-1.138,0.522-2.272,1.038-3.404,1.572
	c-2.047,0.971-4.083,1.979-6.106,3.011c-0.714,0.364-1.436,0.71-2.146,1.08c-2.664,1.39-5.302,2.847-7.922,4.34
	c-0.891,0.51-1.778,1.044-2.664,1.565c-1.849,1.093-3.689,2.203-5.515,3.345c-0.95,0.595-1.896,1.195-2.841,1.803
	c-1.914,1.232-3.811,2.5-5.693,3.793c-0.734,0.504-1.472,0.996-2.201,1.506c-2.563,1.802-5.101,3.652-7.606,5.565
	c-0.558,0.425-1.101,0.868-1.654,1.298c-1.985,1.55-3.956,3.12-5.904,4.735c-0.811,0.667-1.613,1.353-2.414,2.032
	c-1.755,1.494-3.493,3.023-5.218,4.572c-0.736,0.666-1.479,1.322-2.212,1.996c-2.384,2.203-4.745,4.449-7.063,6.758
	c-29.288,29.295-49.467,64.243-60.542,101.333c2.066,1.336,4.158,2.635,6.268,3.91c1.472,0.892,2.967,1.753,4.46,2.609
	c0.555,0.321,1.109,0.649,1.667,0.965c1.945,1.099,3.907,2.167,5.883,3.211l0.215,0.115c2.088,1.105,4.188,2.173,6.311,3.217
	c11.911-38.116,32.932-73.999,63.125-104.195C271.391,365.651,347.45,341.178,420.958,348.456"/>
<path fill="#595A5C" d="M385.265,39.532c0,0.853-0.195,1.479-0.587,1.879c-0.39,0.4-0.968,0.6-1.734,0.6h-0.59v3.42H381.8v-8.277
	h1.132c0.808,0,1.398,0.19,1.772,0.571C385.077,38.107,385.265,38.709,385.265,39.532z M382.354,41.502h0.556
	c0.649,0,1.11-0.153,1.382-0.458s0.407-0.81,0.407-1.511c0-0.668-0.141-1.147-0.421-1.436c-0.282-0.289-0.717-0.433-1.306-0.433
	h-0.618V41.502z M389.685,45.432l-0.73-3.001h-2.009l-0.721,3.001h-0.576l1.992-8.277h0.572l2.037,8.277H389.685z M388.824,41.87
	l-0.73-3.085c-0.075-0.347-0.134-0.676-0.176-0.985c-0.033,0.328-0.087,0.656-0.158,0.985l-0.708,3.085H388.824z M394.577,37.862
	c-0.317-0.204-0.678-0.306-1.081-0.306c-0.624,0-1.119,0.33-1.487,0.988c-0.368,0.659-0.552,1.571-0.552,2.737
	c0,0.759,0.085,1.419,0.255,1.982s0.413,0.994,0.73,1.296c0.317,0.302,0.685,0.453,1.104,0.453c0.431,0,0.801-0.078,1.11-0.232
	v0.509c-0.295,0.17-0.682,0.254-1.16,0.254c-0.525,0-0.984-0.17-1.38-0.509c-0.395-0.34-0.698-0.831-0.914-1.475
	c-0.215-0.643-0.322-1.407-0.322-2.29c0-1.321,0.234-2.359,0.705-3.114c0.469-0.754,1.11-1.132,1.922-1.132
	c0.506,0,0.947,0.117,1.324,0.351L394.577,37.862L394.577,37.862z M397.403,45.432h-0.556v-7.746H395.2v-0.532h3.85v0.532h-1.646
	V45.432z M400.051,37.154h1.585c0.649,0,1.148,0.166,1.498,0.498c0.349,0.332,0.523,0.823,0.523,1.472
	c0,1.121-0.409,1.763-1.229,1.925v0.045c0.472,0.099,0.823,0.309,1.053,0.631c0.23,0.323,0.346,0.773,0.346,1.351
	c0,0.74-0.164,1.317-0.492,1.733c-0.329,0.415-0.79,0.623-1.382,0.623h-1.902V37.154z M400.605,40.84h1.042
	c0.517,0,0.886-0.142,1.107-0.428c0.22-0.285,0.33-0.718,0.33-1.299c0-0.468-0.122-0.826-0.365-1.075
	c-0.243-0.25-0.604-0.374-1.084-0.374h-1.03V40.84z M400.605,41.349v3.573h1.274c0.913,0,1.37-0.619,1.37-1.857
	c0-0.551-0.135-0.975-0.402-1.271s-0.644-0.445-1.127-0.445H400.605z M409.683,41.281c0,1.37-0.204,2.423-0.614,3.159
	c-0.409,0.736-1.001,1.104-1.775,1.104c-0.78,0-1.373-0.371-1.777-1.112c-0.403-0.741-0.605-1.795-0.605-3.162
	c0-1.426,0.199-2.489,0.6-3.188s1.001-1.047,1.8-1.047c0.771,0,1.359,0.367,1.765,1.101
	C409.479,38.871,409.683,39.919,409.683,41.281z M405.487,41.281c0,1.231,0.154,2.16,0.461,2.789
	c0.309,0.628,0.757,0.943,1.345,0.943c0.593,0,1.044-0.312,1.351-0.935c0.308-0.623,0.462-1.555,0.462-2.797
	c0-1.227-0.151-2.152-0.453-2.777c-0.302-0.625-0.749-0.937-1.343-0.937c-0.607,0-1.063,0.316-1.367,0.949
	C405.639,39.148,405.487,40.07,405.487,41.281z M414.682,39.532c0,0.853-0.195,1.479-0.586,1.879s-0.969,0.6-1.735,0.6h-0.589v3.42
	h-0.554v-8.277h1.132c0.808,0,1.398,0.19,1.771,0.571C414.495,38.107,414.682,38.709,414.682,39.532z M411.771,41.502h0.555
	c0.649,0,1.11-0.153,1.382-0.458c0.272-0.306,0.407-0.81,0.407-1.511c0-0.668-0.14-1.147-0.421-1.436s-0.717-0.433-1.306-0.433
	h-0.617V41.502z M415.972,37.154h0.543v5.786c0,0.128-0.001,0.256-0.003,0.382c-0.002,0.127-0.02,0.517-0.054,1.169h0.046
	l3.108-7.337h0.718v8.277h-0.543v-5.939c0-0.476,0.022-0.97,0.067-1.483h-0.045l-3.131,7.422h-0.707V37.154z M423.517,45.432h-0.557
	v-7.746h-1.646v-0.532h3.85v0.532h-1.646V45.432z M429.164,45.432h-3v-8.277h3v0.532h-2.446v3.143h2.311v0.532h-2.311v3.538h2.446
	V45.432z M434.081,45.432h-0.555v-7.746h-1.625l-0.221,2.695c-0.162,1.963-0.296,3.199-0.402,3.709
	c-0.105,0.509-0.25,0.874-0.433,1.093c-0.184,0.219-0.454,0.328-0.813,0.328c-0.174,0-0.315-0.034-0.425-0.102v-0.521
	c0.087,0.061,0.217,0.091,0.391,0.091c0.125,0,0.23-0.025,0.314-0.073c0.085-0.049,0.162-0.145,0.231-0.286s0.132-0.345,0.188-0.609
	c0.055-0.264,0.107-0.611,0.158-1.042s0.226-2.369,0.524-5.814h2.666V45.432z M435.893,37.154h0.543v5.786
	c0,0.128-0.001,0.256-0.003,0.382c-0.002,0.127-0.021,0.517-0.054,1.169h0.045l3.108-7.337h0.72v8.277h-0.544v-5.939
	c0-0.476,0.022-0.97,0.068-1.483h-0.046l-3.131,7.422h-0.707V37.154z M441.455,42.589v-0.578h2.321v0.578H441.455z M448.113,45.432
	l-0.729-3.001h-2.011l-0.719,3.001h-0.578l1.994-8.277h0.571l2.038,8.277H448.113z M447.253,41.87l-0.73-3.085
	c-0.075-0.347-0.134-0.676-0.175-0.985c-0.035,0.328-0.088,0.656-0.159,0.985l-0.708,3.085H447.253z M453.759,47.521h-0.532v-2.089
	h-3.958v2.089h-0.532v-2.622h0.499c0.444-1.354,0.761-2.619,0.948-3.793c0.187-1.174,0.28-2.491,0.28-3.952h2.587v7.745h0.708
	V47.521z M452.496,44.899v-7.213h-1.472c-0.084,2.661-0.489,5.066-1.218,7.213H452.496z M458.503,43.11
	c0,0.725-0.192,1.293-0.575,1.704s-0.91,0.617-1.582,0.617h-1.449v-8.277h0.556v3.674h0.883c0.739,0,1.286,0.184,1.639,0.552
	C458.326,41.749,458.503,42.325,458.503,43.11z M455.452,44.922h0.916c0.506,0,0.894-0.156,1.161-0.467
	c0.269-0.311,0.401-0.759,0.401-1.344c0-0.608-0.126-1.055-0.379-1.342c-0.253-0.287-0.65-0.43-1.194-0.43h-0.905V44.922z
	 M466.154,41.281c0,1.363-0.187,2.414-0.563,3.154s-0.918,1.109-1.628,1.109c-0.698,0-1.236-0.356-1.613-1.07
	s-0.57-1.751-0.577-3.114h-1.37v4.071h-0.556v-8.277h0.556v3.674h1.37c0.063-2.529,0.798-3.793,2.202-3.793
	c0.701,0,1.24,0.364,1.616,1.092C465.968,38.856,466.154,39.907,466.154,41.281z M462.351,41.281c0,1.231,0.138,2.16,0.413,2.789
	s0.676,0.943,1.2,0.943c0.528,0,0.929-0.316,1.2-0.948c0.272-0.632,0.407-1.56,0.407-2.783c0-1.234-0.135-2.162-0.404-2.783
	c-0.27-0.621-0.667-0.931-1.191-0.931c-0.536,0-0.941,0.314-1.215,0.942C462.487,39.139,462.351,40.063,462.351,41.281z
	 M467.687,37.154h1.584c0.65,0,1.149,0.166,1.498,0.498c0.35,0.332,0.524,0.823,0.524,1.472c0,1.121-0.41,1.763-1.229,1.925v0.045
	c0.472,0.099,0.822,0.309,1.053,0.631c0.229,0.323,0.346,0.773,0.346,1.351c0,0.74-0.164,1.317-0.493,1.733
	c-0.329,0.415-0.789,0.623-1.381,0.623h-1.902V37.154z M468.241,40.84h1.042c0.517,0,0.886-0.142,1.106-0.428
	c0.221-0.285,0.331-0.718,0.331-1.299c0-0.468-0.122-0.826-0.365-1.075c-0.243-0.25-0.604-0.374-1.085-0.374h-1.029V40.84z
	 M468.241,41.349v3.573h1.274c0.913,0,1.37-0.619,1.37-1.857c0-0.551-0.135-0.975-0.402-1.271s-0.645-0.445-1.127-0.445H468.241z
	 M475.954,45.432l-0.73-3.001h-2.01l-0.719,3.001h-0.578l1.993-8.277h0.571l2.038,8.277H475.954z M475.093,41.87l-0.729-3.085
	c-0.076-0.347-0.135-0.676-0.176-0.985c-0.034,0.328-0.087,0.656-0.159,0.985l-0.707,3.085H475.093z M481.424,45.432h-0.555v-4.071
	h-2.888v4.071h-0.555v-8.277h0.555v3.674h2.888v-3.674h0.555V45.432z M484.611,45.432h-0.555v-7.746h-1.648v-0.532h3.852v0.532
	h-1.648V45.432z M490.865,43.11c0,0.725-0.191,1.293-0.574,1.704s-0.911,0.617-1.583,0.617h-1.449v-8.277h0.555v3.674h0.884
	c0.74,0,1.286,0.184,1.639,0.552C490.689,41.749,490.865,42.325,490.865,43.11z M487.813,44.922h0.918
	c0.506,0,0.893-0.156,1.16-0.467c0.268-0.311,0.402-0.759,0.402-1.344c0-0.608-0.127-1.055-0.38-1.342
	c-0.253-0.287-0.65-0.43-1.194-0.43h-0.906V44.922z M492.717,45.432h-0.555v-8.277h0.555V45.432z"/>
<path fill="#595A5C" d="M385.797,71.88h-0.555v-7.745h-2.889v7.745H381.8v-8.277h3.997V71.88z M391.074,65.981
	c0,0.853-0.196,1.48-0.586,1.88c-0.391,0.4-0.969,0.6-1.735,0.6h-0.59v3.419h-0.554v-8.277h1.132c0.808,0,1.398,0.191,1.772,0.572
	C390.887,64.556,391.074,65.159,391.074,65.981z M388.163,67.951h0.556c0.649,0,1.109-0.153,1.382-0.458
	c0.271-0.306,0.407-0.81,0.407-1.512c0-0.668-0.141-1.146-0.422-1.435s-0.716-0.433-1.306-0.433h-0.617V67.951z M392.363,63.603
	h0.543v5.786c0,0.128,0,0.256-0.003,0.383c-0.001,0.126-0.02,0.516-0.054,1.169h0.046l3.108-7.338h0.719v8.277h-0.544v-5.939
	c0-0.476,0.022-0.97,0.068-1.483h-0.046l-3.131,7.422h-0.707V63.603z M401.985,71.88h-0.555v-7.745h-1.625l-0.221,2.695
	c-0.163,1.963-0.296,3.2-0.402,3.708c-0.105,0.51-0.25,0.874-0.434,1.093c-0.183,0.219-0.453,0.329-0.813,0.329
	c-0.173,0-0.314-0.034-0.424-0.102v-0.521c0.087,0.06,0.218,0.09,0.391,0.09c0.125,0,0.229-0.024,0.314-0.073
	c0.085-0.049,0.162-0.145,0.232-0.286c0.069-0.142,0.132-0.345,0.187-0.609s0.107-0.611,0.158-1.042
	c0.051-0.431,0.226-2.369,0.524-5.815h2.666V71.88z M403.796,63.603h0.543v5.786c0,0.128,0,0.256-0.003,0.383
	c-0.001,0.126-0.02,0.516-0.053,1.169h0.045l3.108-7.338h0.719v8.277h-0.544v-5.939c0-0.476,0.023-0.97,0.068-1.483h-0.045
	l-3.131,7.422h-0.708V63.603z M413.962,71.88h-0.555v-7.745h-2.888v7.745h-0.555v-8.277h3.997V71.88z M418.905,71.88l-0.73-3h-2.01
	l-0.72,3h-0.577l1.992-8.277h0.572l2.039,8.277H418.905z M418.045,68.319l-0.731-3.085c-0.075-0.347-0.134-0.676-0.175-0.985
	c-0.034,0.329-0.087,0.657-0.159,0.985l-0.707,3.085H418.045z M421.753,71.88h-0.555v-7.745h-1.647v-0.532h3.851v0.532h-1.648V71.88
	z M427.401,71.88H424.4v-8.277h3.001v0.532h-2.445v3.143h2.31v0.532h-2.31v3.539h2.445V71.88z M432.318,71.88h-0.555v-7.745h-1.625
	l-0.221,2.695c-0.162,1.963-0.297,3.2-0.401,3.708c-0.106,0.51-0.25,0.874-0.434,1.093c-0.183,0.219-0.453,0.329-0.812,0.329
	c-0.175,0-0.315-0.034-0.425-0.102v-0.521c0.086,0.06,0.216,0.09,0.39,0.09c0.125,0,0.229-0.024,0.314-0.073
	c0.085-0.049,0.162-0.145,0.232-0.286c0.07-0.142,0.132-0.345,0.187-0.609c0.056-0.264,0.108-0.611,0.159-1.042
	c0.051-0.431,0.226-2.369,0.523-5.815h2.666V71.88z M434.13,63.603h0.543v5.786c0,0.128-0.001,0.256-0.003,0.383
	s-0.02,0.516-0.054,1.169h0.046l3.107-7.338h0.719v8.277h-0.543v-5.939c0-0.476,0.023-0.97,0.068-1.483h-0.045l-3.132,7.422h-0.707
	V63.603z M442.161,68.705c0-0.978,0.147-1.911,0.441-2.8c0.294-0.889,0.708-1.656,1.239-2.302h0.453
	c-0.506,0.748-0.889,1.558-1.148,2.432c-0.261,0.874-0.391,1.76-0.391,2.658c0,0.917,0.137,1.821,0.41,2.712
	c0.273,0.891,0.646,1.661,1.118,2.31h-0.442c-0.539-0.63-0.954-1.379-1.245-2.248C442.307,70.599,442.161,69.678,442.161,68.705z
	 M449.676,71.88h-0.556v-4.07h-2.887v4.07h-0.555v-8.277h0.555v3.675h2.887v-3.675h0.556V71.88z M454.619,71.88l-0.73-3h-2.01
	l-0.72,3h-0.577l1.992-8.277h0.572l2.039,8.277H454.619z M453.758,68.319l-0.73-3.085c-0.075-0.347-0.134-0.676-0.175-0.985
	c-0.034,0.329-0.087,0.657-0.158,0.985l-0.708,3.085H453.758z M457.467,71.88h-0.555v-7.745h-1.647v-0.532h3.851v0.532h-1.648V71.88
	z M461.621,68.263l-1.541,3.618h-0.628l1.647-3.697c-0.415-0.109-0.739-0.36-0.974-0.75c-0.234-0.39-0.351-0.875-0.351-1.452
	c0-1.585,0.716-2.378,2.146-2.378h1.347v8.277h-0.56v-3.606L461.621,68.263z M462.708,64.113h-0.702
	c-0.589,0-1.011,0.146-1.266,0.436c-0.255,0.291-0.382,0.759-0.382,1.405c0,0.626,0.118,1.087,0.356,1.381
	c0.237,0.294,0.617,0.441,1.138,0.441h0.855V64.113z M467.07,63.603h0.555V67.6l2.23-3.997h0.601l-2.259,3.997l2.327,4.28h-0.623
	l-2.276-4.235v4.235h-0.555v-4.235l-2.27,4.235h-0.629l2.332-4.28l-2.265-3.997h0.606l2.225,3.997V63.603z M471.432,63.603h0.544
	v5.786c0,0.128-0.001,0.256-0.003,0.383s-0.021,0.516-0.054,1.169h0.045l3.108-7.338h0.72v8.277h-0.544v-5.939
	c0-0.476,0.022-0.97,0.068-1.483h-0.046l-3.131,7.422h-0.708V63.603z M478.977,71.88h-0.555v-7.745h-1.648v-0.532h3.851v0.532
	h-1.647V71.88z M484.625,71.88h-3.001v-8.277h3.001v0.532h-2.446v3.143h2.311v0.532h-2.311v3.539h2.446V71.88z M489.542,71.88
	h-0.556v-7.745h-1.624l-0.222,2.695c-0.162,1.963-0.296,3.2-0.401,3.708c-0.105,0.51-0.25,0.874-0.434,1.093
	c-0.183,0.219-0.453,0.329-0.812,0.329c-0.174,0-0.315-0.034-0.425-0.102v-0.521c0.087,0.06,0.217,0.09,0.391,0.09
	c0.124,0,0.229-0.024,0.313-0.073c0.085-0.049,0.163-0.145,0.233-0.286c0.069-0.142,0.132-0.345,0.186-0.609
	c0.056-0.264,0.108-0.611,0.159-1.042c0.051-0.431,0.226-2.369,0.523-5.815h2.667V71.88z M491.353,63.603h0.543v5.786
	c0,0.128-0.001,0.256-0.002,0.383c-0.002,0.126-0.021,0.516-0.055,1.169h0.046l3.108-7.338h0.719v8.277h-0.543v-5.939
	c0-0.476,0.022-0.97,0.067-1.483h-0.045l-3.131,7.422h-0.708V63.603z M499.226,68.705c0,0.974-0.145,1.896-0.433,2.766
	c-0.29,0.87-0.706,1.618-1.249,2.245h-0.442c0.487-0.683,0.864-1.466,1.13-2.349s0.399-1.774,0.399-2.673
	c0-0.902-0.13-1.788-0.391-2.658c-0.261-0.87-0.644-1.681-1.149-2.432h0.453c0.54,0.642,0.955,1.41,1.246,2.304
	C499.08,66.802,499.226,67.734,499.226,68.705z"/>
<g>
	<path fill="#595A5C" d="M385.796,98.329h-0.555v-7.745h-2.888v7.745h-0.555v-8.277h3.997V98.329z"/>
	<path fill="#595A5C" d="M392.103,94.179c0,1.37-0.205,2.423-0.614,3.159c-0.409,0.736-1.001,1.104-1.775,1.104
		c-0.781,0-1.374-0.371-1.777-1.113c-0.404-0.742-0.605-1.795-0.605-3.162c0-1.427,0.199-2.489,0.6-3.188s1-1.047,1.801-1.047
		c0.77,0,1.357,0.367,1.764,1.101C391.899,91.768,392.103,92.816,392.103,94.179z M387.907,94.179c0,1.23,0.153,2.16,0.461,2.788
		s0.756,0.943,1.345,0.943c0.593,0,1.043-0.312,1.351-0.934c0.308-0.623,0.462-1.555,0.462-2.797c0-1.227-0.151-2.152-0.453-2.777
		c-0.302-0.625-0.749-0.937-1.342-0.937c-0.608,0-1.063,0.316-1.367,0.948C388.059,92.045,387.907,92.967,387.907,94.179z"/>
	<path fill="#595A5C" d="M397.091,98.329h-0.555v-7.745h-1.625l-0.221,2.695c-0.162,1.963-0.296,3.199-0.402,3.708
		c-0.105,0.509-0.25,0.874-0.433,1.093c-0.184,0.219-0.454,0.328-0.813,0.328c-0.174,0-0.315-0.034-0.425-0.102v-0.521
		c0.087,0.061,0.217,0.09,0.391,0.09c0.125,0,0.229-0.024,0.314-0.073c0.085-0.049,0.162-0.145,0.232-0.286
		c0.069-0.142,0.132-0.344,0.187-0.608s0.107-0.612,0.158-1.042s0.226-2.369,0.524-5.814h2.666V98.329z"/>
	<path fill="#595A5C" d="M398.903,90.051h0.543v5.786c0,0.128-0.001,0.256-0.003,0.382s-0.02,0.516-0.054,1.169h0.046l3.108-7.337
		h0.719v8.277h-0.544v-5.939c0-0.476,0.022-0.97,0.068-1.483h-0.046l-3.131,7.423h-0.707V90.051z"/>
	<path fill="#595A5C" d="M407.412,90.453c-0.623,0-1.118,0.329-1.486,0.988s-0.552,1.571-0.552,2.738
		c0,0.758,0.085,1.419,0.255,1.981s0.413,0.995,0.73,1.296c0.316,0.302,0.685,0.453,1.104,0.453c0.431,0,0.801-0.077,1.11-0.232
		v0.509c-0.295,0.17-0.682,0.255-1.161,0.255c-0.524,0-0.984-0.17-1.379-0.51c-0.395-0.339-0.699-0.831-0.914-1.475
		s-0.322-1.407-0.322-2.291c0-1.321,0.234-2.359,0.704-3.114c0.471-0.755,1.111-1.132,1.923-1.132c0.506,0,0.947,0.117,1.324,0.351
		l-0.255,0.487C408.177,90.555,407.816,90.453,407.412,90.453z"/>
	<path fill="#595A5C" d="M413.074,98.329l-0.73-3.001h-2.01l-0.72,3.001h-0.577l1.993-8.277h0.571l2.039,8.277H413.074z
		 M412.213,94.768l-0.729-3.086c-0.076-0.347-0.135-0.676-0.176-0.985c-0.034,0.329-0.087,0.657-0.158,0.985l-0.708,3.086H412.213z"
		/>
	<path fill="#595A5C" d="M417.57,98.329h-0.578l-1.239-3.805l-1.438,3.805h-0.561l1.732-4.394l-1.489-3.884h0.583l1.229,3.442
		l1.194-3.442h0.566l-1.461,4.008L417.57,98.329z"/>
	<path fill="#595A5C" d="M421.726,98.329l-0.73-3.001h-2.01l-0.72,3.001h-0.577l1.993-8.277h0.571l2.039,8.277H421.726z
		 M420.864,94.768l-0.729-3.086c-0.076-0.347-0.135-0.676-0.176-0.985c-0.034,0.329-0.087,0.657-0.158,0.985l-0.708,3.086H420.864z"
		/>
	<path fill="#595A5C" d="M426.662,92.429c0,0.853-0.195,1.479-0.586,1.879c-0.391,0.4-0.97,0.6-1.735,0.6h-0.589v3.42h-0.555v-8.277
		h1.132c0.808,0,1.398,0.19,1.772,0.572C426.475,91.004,426.662,91.606,426.662,92.429z M423.752,94.399h0.555
		c0.649,0,1.109-0.153,1.382-0.458c0.271-0.306,0.407-0.81,0.407-1.512c0-0.668-0.141-1.146-0.422-1.436
		c-0.281-0.289-0.716-0.433-1.305-0.433h-0.617V94.399z"/>
	<path fill="#595A5C" d="M427.953,90.051h0.543v5.786c0,0.128-0.001,0.256-0.003,0.382s-0.02,0.516-0.054,1.169h0.046l3.108-7.337
		h0.719v8.277h-0.544v-5.939c0-0.476,0.022-0.97,0.068-1.483h-0.046l-3.131,7.423h-0.707V90.051z"/>
	<path fill="#595A5C" d="M438.297,100.417h-0.532v-2.089h-3.958v2.089h-0.532v-2.621h0.498c0.445-1.355,0.762-2.62,0.948-3.793
		c0.188-1.174,0.28-2.491,0.28-3.952h2.588v7.745h0.708V100.417z M437.034,97.796v-7.213h-1.473
		c-0.083,2.661-0.488,5.065-1.217,7.213H437.034z"/>
	<path fill="#595A5C" d="M443.041,96.007c0,0.725-0.191,1.293-0.575,1.704c-0.383,0.412-0.91,0.617-1.582,0.617h-1.449v-8.277h0.555
		v3.674h0.883c0.74,0,1.286,0.184,1.64,0.552C442.864,94.646,443.041,95.222,443.041,96.007z M439.989,97.819h0.917
		c0.506,0,0.893-0.155,1.161-0.467c0.268-0.312,0.401-0.76,0.401-1.345c0-0.608-0.126-1.055-0.379-1.342
		c-0.253-0.287-0.651-0.43-1.195-0.43h-0.905V97.819z M444.893,98.329h-0.556v-8.277h0.556V98.329z"/>
	<path fill="#595A5C" d="M451.222,90.453c-0.623,0-1.118,0.329-1.486,0.988s-0.552,1.571-0.552,2.738
		c0,0.758,0.085,1.419,0.255,1.981s0.413,0.995,0.73,1.296c0.316,0.302,0.685,0.453,1.104,0.453c0.431,0,0.801-0.077,1.11-0.232
		v0.509c-0.295,0.17-0.682,0.255-1.161,0.255c-0.524,0-0.984-0.17-1.379-0.51c-0.395-0.339-0.699-0.831-0.914-1.475
		s-0.322-1.407-0.322-2.291c0-1.321,0.234-2.359,0.704-3.114c0.471-0.755,1.111-1.132,1.923-1.132c0.506,0,0.947,0.117,1.324,0.351
		l-0.255,0.487C451.986,90.555,451.626,90.453,451.222,90.453z"/>
	<path fill="#595A5C" d="M458.157,89.932h0.555v1.019c0.793,0,1.413,0.272,1.86,0.815s0.671,1.285,0.671,2.225
		c0,0.978-0.225,1.751-0.674,2.321s-1.068,0.855-1.857,0.855v1.274h-0.555v-1.274c-0.521,0-0.972-0.133-1.354-0.399
		c-0.381-0.266-0.673-0.641-0.874-1.124c-0.202-0.483-0.303-1.034-0.303-1.653c0-0.578,0.103-1.099,0.309-1.563
		c0.205-0.464,0.5-0.827,0.883-1.087c0.383-0.26,0.829-0.391,1.339-0.391V89.932z M458.157,91.466c-0.63,0-1.112,0.221-1.446,0.663
		c-0.334,0.442-0.501,1.063-0.501,1.863c0,0.853,0.166,1.511,0.498,1.973s0.815,0.693,1.449,0.693V91.466z M458.712,96.658
		c0.635,0,1.117-0.231,1.449-0.693c0.333-0.462,0.499-1.12,0.499-1.973c0-1.684-0.649-2.525-1.948-2.525V96.658z"/>
	<path fill="#595A5C" d="M466.214,92.429c0,0.853-0.195,1.479-0.586,1.879c-0.391,0.4-0.97,0.6-1.735,0.6h-0.589v3.42h-0.555v-8.277
		h1.132c0.808,0,1.398,0.19,1.772,0.572C466.026,91.004,466.214,91.606,466.214,92.429z M463.304,94.399h0.555
		c0.649,0,1.109-0.153,1.382-0.458c0.271-0.306,0.407-0.81,0.407-1.512c0-0.668-0.141-1.146-0.422-1.436
		c-0.281-0.289-0.716-0.433-1.305-0.433h-0.617V94.399z"/>
	<path fill="#595A5C" d="M470.636,98.329l-0.73-3.001h-2.01l-0.72,3.001h-0.577l1.993-8.277h0.571l2.039,8.277H470.636z
		 M469.774,94.768l-0.729-3.086c-0.076-0.347-0.135-0.676-0.176-0.985c-0.034,0.329-0.087,0.657-0.158,0.985l-0.708,3.086H469.774z"
		/>
	<path fill="#595A5C" d="M474.994,90.051v0.532h-2.332v7.745h-0.555v-8.277H474.994z"/>
	<path fill="#595A5C" d="M478.714,98.329l-2.202-7.536h-0.045c0.037,0.792,0.057,1.294,0.057,1.506v6.03h-0.532v-8.277h0.82
		l1.857,6.33c0.166,0.559,0.273,1.034,0.322,1.427h0.046c0.037-0.279,0.154-0.751,0.351-1.416l1.84-6.341h0.85v8.277h-0.555v-5.984
		c0-0.234,0.019-0.748,0.057-1.54h-0.045l-2.191,7.524H478.714z"/>
	<path fill="#595A5C" d="M486.89,98.329h-3v-8.277h3v0.532h-2.445v3.142h2.31v0.532h-2.31v3.539h2.445V98.329z"/>
	<path fill="#595A5C" d="M492.349,98.329h-0.555v-4.071h-2.888v4.071h-0.555v-8.277h0.555v3.674h2.888v-3.674h0.555V98.329z"/>
	<path fill="#595A5C" d="M495.535,98.329h-0.555v-7.745h-1.647v-0.532h3.851v0.532h-1.648V98.329z"/>
	<path fill="#595A5C" d="M501.316,98.329l-0.73-3.001h-2.01l-0.72,3.001h-0.577l1.993-8.277h0.571l2.039,8.277H501.316z
		 M500.455,94.768l-0.729-3.086c-0.076-0.347-0.135-0.676-0.176-0.985c-0.034,0.329-0.087,0.657-0.158,0.985l-0.708,3.086H500.455z"
		/>
	<path fill="#595A5C" d="M505.512,98.329l-2.202-7.536h-0.045c0.037,0.792,0.057,1.294,0.057,1.506v6.03h-0.532v-8.277h0.82
		l1.857,6.33c0.166,0.559,0.273,1.034,0.322,1.427h0.046c0.037-0.279,0.154-0.751,0.351-1.416l1.84-6.341h0.85v8.277h-0.555v-5.984
		c0-0.234,0.019-0.748,0.057-1.54h-0.045l-2.191,7.524H505.512z"/>
	<path fill="#595A5C" d="M510.688,90.051h0.543v5.786c0,0.128-0.001,0.256-0.003,0.382s-0.02,0.516-0.054,1.169h0.046l3.108-7.337
		h0.719v8.277h-0.544v-5.939c0-0.476,0.022-0.97,0.068-1.483h-0.046l-3.131,7.423h-0.707V90.051z"/>
	<path fill="#595A5C" d="M519.038,90.051h1.585c0.649,0,1.148,0.166,1.497,0.498c0.35,0.332,0.524,0.823,0.524,1.472
		c0,1.121-0.41,1.763-1.229,1.925v0.045c0.472,0.098,0.822,0.309,1.053,0.631s0.346,0.773,0.346,1.35
		c0,0.74-0.164,1.317-0.493,1.733c-0.328,0.415-0.789,0.623-1.381,0.623h-1.902V90.051z M519.593,93.737h1.042
		c0.517,0,0.886-0.143,1.106-0.427c0.221-0.285,0.331-0.718,0.331-1.299c0-0.468-0.121-0.827-0.365-1.076
		c-0.243-0.249-0.604-0.374-1.084-0.374h-1.03V93.737z M519.593,94.247v3.572h1.273c0.914,0,1.37-0.619,1.37-1.857
		c0-0.551-0.134-0.975-0.401-1.271c-0.269-0.296-0.644-0.444-1.127-0.444H519.593z"/>
	<path fill="#595A5C" d="M524.173,90.051h0.543v5.786c0,0.128-0.001,0.256-0.003,0.382s-0.02,0.516-0.054,1.169h0.046l3.108-7.337
		h0.719v8.277h-0.544v-5.939c0-0.476,0.022-0.97,0.068-1.483h-0.046l-3.131,7.423h-0.707V90.051z"/>
	<path fill="#595A5C" d="M531.719,98.329h-0.555v-7.745h-1.647v-0.532h3.851v0.532h-1.648V98.329z"/>
	<path fill="#595A5C" d="M537.5,98.329l-0.73-3.001h-2.01l-0.72,3.001h-0.577l1.993-8.277h0.571l2.039,8.277H537.5z M536.639,94.768
		l-0.729-3.086c-0.076-0.347-0.135-0.676-0.176-0.985c-0.034,0.329-0.087,0.657-0.158,0.985l-0.708,3.086H536.639z"/>
	<path fill="#595A5C" d="M541.695,98.329l-2.202-7.536h-0.045c0.037,0.792,0.057,1.294,0.057,1.506v6.03h-0.532v-8.277h0.82
		l1.857,6.33c0.166,0.559,0.273,1.034,0.322,1.427h0.046c0.037-0.279,0.154-0.751,0.351-1.416l1.84-6.341h0.85v8.277h-0.555v-5.984
		c0-0.234,0.019-0.748,0.057-1.54h-0.045l-2.191,7.524H541.695z"/>
	<path fill="#595A5C" d="M546.871,90.051h0.543v5.786c0,0.128-0.001,0.256-0.003,0.382s-0.02,0.516-0.054,1.169h0.046l3.108-7.337
		h0.719v8.277h-0.544v-5.939c0-0.476,0.022-0.97,0.068-1.483h-0.046l-3.131,7.423h-0.707V90.051z"/>
	<path fill="#595A5C" d="M557.039,98.329h-0.555v-4.071h-2.888v4.071h-0.555v-8.277h0.555v3.674h2.888v-3.674h0.555V98.329z"/>
	<path fill="#595A5C" d="M563.346,94.179c0,1.37-0.205,2.423-0.614,3.159c-0.409,0.736-1.001,1.104-1.775,1.104
		c-0.781,0-1.374-0.371-1.777-1.113c-0.404-0.742-0.605-1.795-0.605-3.162c0-1.427,0.199-2.489,0.6-3.188s1-1.047,1.801-1.047
		c0.77,0,1.357,0.367,1.764,1.101C563.143,91.768,563.346,92.816,563.346,94.179z M559.15,94.179c0,1.23,0.153,2.16,0.461,2.788
		s0.756,0.943,1.345,0.943c0.593,0,1.043-0.312,1.351-0.934c0.308-0.623,0.462-1.555,0.462-2.797c0-1.227-0.151-2.152-0.453-2.777
		c-0.302-0.625-0.749-0.937-1.342-0.937c-0.608,0-1.063,0.316-1.367,0.948C559.302,92.045,559.15,92.967,559.15,94.179z"/>
	<path fill="#595A5C" d="M564.881,90.051h1.585c0.649,0,1.148,0.166,1.497,0.498c0.35,0.332,0.524,0.823,0.524,1.472
		c0,1.121-0.41,1.763-1.229,1.925v0.045c0.472,0.098,0.822,0.309,1.053,0.631s0.346,0.773,0.346,1.35
		c0,0.74-0.164,1.317-0.493,1.733c-0.328,0.415-0.789,0.623-1.381,0.623h-1.902V90.051z M565.436,93.737h1.042
		c0.517,0,0.886-0.143,1.106-0.427c0.221-0.285,0.331-0.718,0.331-1.299c0-0.468-0.121-0.827-0.365-1.076
		c-0.243-0.249-0.604-0.374-1.084-0.374h-1.03V93.737z M565.436,94.247v3.572h1.273c0.914,0,1.37-0.619,1.37-1.857
		c0-0.551-0.134-0.975-0.401-1.271c-0.269-0.296-0.644-0.444-1.127-0.444H565.436z"/>
</g>
<g>
	<path fill="#595A5C" d="M384.93,124.778l-0.73-3.001h-2.01l-0.72,3.001h-0.577l1.993-8.277h0.571l2.039,8.277H384.93z
		 M384.068,121.216l-0.729-3.085c-0.076-0.348-0.135-0.676-0.176-0.985c-0.034,0.328-0.087,0.656-0.158,0.985l-0.708,3.085H384.068z
		"/>
	<path fill="#595A5C" d="M389.125,124.778l-2.202-7.536h-0.045c0.037,0.793,0.057,1.295,0.057,1.506v6.03h-0.532V116.5h0.82
		l1.857,6.33c0.166,0.559,0.273,1.034,0.322,1.427h0.046c0.037-0.279,0.154-0.751,0.351-1.416l1.84-6.341h0.85v8.277h-0.555v-5.984
		c0-0.234,0.019-0.747,0.057-1.54h-0.045l-2.191,7.524H389.125z"/>
	<path fill="#595A5C" d="M394.301,116.5h0.543v5.786c0,0.128-0.001,0.256-0.003,0.382c-0.002,0.127-0.02,0.517-0.054,1.17h0.046
		l3.108-7.338h0.719v8.277h-0.544v-5.939c0-0.476,0.022-0.97,0.068-1.483h-0.046l-3.131,7.423h-0.707V116.5z"/>
	<path fill="#595A5C" d="M404.469,124.778h-0.555v-4.071h-2.888v4.071h-0.555V116.5h0.555v3.674h2.888V116.5h0.555V124.778z"/>
	<path fill="#595A5C" d="M410.775,120.627c0,1.37-0.205,2.424-0.614,3.159c-0.409,0.736-1.001,1.104-1.775,1.104
		c-0.781,0-1.374-0.371-1.777-1.112c-0.404-0.742-0.605-1.796-0.605-3.162c0-1.427,0.199-2.489,0.6-3.188s1-1.048,1.801-1.048
		c0.77,0,1.357,0.367,1.764,1.102C410.572,118.216,410.775,119.265,410.775,120.627z M406.58,120.627c0,1.23,0.153,2.16,0.461,2.789
		c0.308,0.628,0.756,0.942,1.345,0.942c0.593,0,1.043-0.312,1.351-0.935c0.308-0.622,0.462-1.555,0.462-2.797
		c0-1.227-0.151-2.152-0.453-2.776c-0.302-0.625-0.749-0.938-1.342-0.938c-0.608,0-1.063,0.316-1.367,0.948
		C406.731,118.495,406.58,119.417,406.58,120.627z"/>
	<path fill="#595A5C" d="M412.865,120.498l2.344-3.997h0.601l-2.367,3.997l2.554,4.28h-0.64l-2.491-4.235v4.235h-0.555V116.5h0.555
		V120.498z"/>
	<path fill="#595A5C" d="M416.902,116.5h0.543v5.786c0,0.128-0.001,0.256-0.003,0.382c-0.002,0.127-0.02,0.517-0.054,1.17h0.046
		l3.108-7.338h0.719v8.277h-0.544v-5.939c0-0.476,0.022-0.97,0.068-1.483h-0.046l-3.131,7.423h-0.707V116.5z"/>
	<path fill="#595A5C" d="M425.411,116.902c-0.623,0-1.118,0.33-1.486,0.988c-0.368,0.659-0.552,1.571-0.552,2.737
		c0,0.759,0.085,1.42,0.255,1.981c0.17,0.563,0.413,0.995,0.73,1.297c0.316,0.302,0.685,0.453,1.104,0.453
		c0.431,0,0.801-0.077,1.11-0.232v0.51c-0.295,0.17-0.682,0.255-1.161,0.255c-0.524,0-0.984-0.17-1.379-0.51
		s-0.699-0.831-0.914-1.475s-0.322-1.407-0.322-2.29c0-1.321,0.234-2.359,0.704-3.114c0.471-0.755,1.111-1.133,1.923-1.133
		c0.506,0,0.947,0.117,1.324,0.352l-0.255,0.487C426.176,117.004,425.815,116.902,425.411,116.902z"/>
	<path fill="#595A5C" d="M431.396,124.778h-0.555v-7.745h-1.625l-0.221,2.694c-0.162,1.963-0.296,3.199-0.402,3.709
		c-0.105,0.51-0.25,0.874-0.433,1.093c-0.184,0.219-0.454,0.328-0.813,0.328c-0.174,0-0.315-0.034-0.425-0.102v-0.521
		c0.087,0.061,0.217,0.091,0.391,0.091c0.125,0,0.229-0.024,0.314-0.073s0.162-0.145,0.232-0.286
		c0.069-0.142,0.132-0.345,0.187-0.608c0.055-0.265,0.107-0.611,0.158-1.042s0.226-2.368,0.524-5.814h2.666V124.778z"/>
	<path fill="#595A5C" d="M437.703,120.627c0,1.37-0.205,2.424-0.614,3.159c-0.409,0.736-1.001,1.104-1.775,1.104
		c-0.781,0-1.374-0.371-1.777-1.112c-0.404-0.742-0.605-1.796-0.605-3.162c0-1.427,0.199-2.489,0.6-3.188s1-1.048,1.801-1.048
		c0.77,0,1.357,0.367,1.764,1.102C437.5,118.216,437.703,119.265,437.703,120.627z M433.508,120.627c0,1.23,0.153,2.16,0.461,2.789
		c0.308,0.628,0.756,0.942,1.345,0.942c0.593,0,1.043-0.312,1.351-0.935c0.308-0.622,0.462-1.555,0.462-2.797
		c0-1.227-0.151-2.152-0.453-2.776c-0.302-0.625-0.749-0.938-1.342-0.938c-0.608,0-1.063,0.316-1.367,0.948
		C433.659,118.495,433.508,119.417,433.508,120.627z"/>
	<path fill="#595A5C" d="M440.613,124.778h-0.555v-7.745h-1.647V116.5h3.851v0.532h-1.648V124.778z"/>
	<path fill="#595A5C" d="M446.87,122.457c0,0.725-0.191,1.293-0.575,1.704c-0.383,0.411-0.91,0.617-1.582,0.617h-1.449V116.5h0.555
		v3.674h0.883c0.74,0,1.286,0.185,1.64,0.553C446.693,121.095,446.87,121.671,446.87,122.457z M443.818,124.268h0.917
		c0.506,0,0.893-0.155,1.161-0.467c0.268-0.312,0.401-0.76,0.401-1.345c0-0.607-0.126-1.055-0.379-1.342s-0.651-0.431-1.195-0.431
		h-0.905V124.268z M448.722,124.778h-0.556V116.5h0.556V124.778z"/>
</g>
<g>
	<path fill="#595A5C" d="M384.822,151.227h-0.578l-1.239-3.805l-1.438,3.805h-0.561l1.732-4.394l-1.489-3.884h0.583l1.229,3.442
		l1.194-3.442h0.566l-1.461,4.009L384.822,151.227z"/>
	<path fill="#595A5C" d="M388.847,151.227h-3v-8.277h3v0.532h-2.445v3.142h2.31v0.532h-2.31v3.539h2.445V151.227z"/>
	<path fill="#595A5C" d="M393.762,151.227h-0.555v-7.745h-1.625l-0.221,2.694c-0.162,1.963-0.296,3.199-0.402,3.709
		c-0.105,0.51-0.25,0.874-0.433,1.093c-0.184,0.219-0.454,0.328-0.813,0.328c-0.174,0-0.315-0.034-0.425-0.102v-0.521
		c0.087,0.061,0.217,0.091,0.391,0.091c0.125,0,0.229-0.024,0.314-0.073s0.162-0.145,0.232-0.286
		c0.069-0.142,0.132-0.345,0.187-0.608c0.055-0.265,0.107-0.611,0.158-1.042s0.226-2.368,0.524-5.814h2.666V151.227z"/>
	<path fill="#595A5C" d="M398.705,151.227l-0.73-3.001h-2.01l-0.72,3.001h-0.577l1.993-8.277h0.571l2.039,8.277H398.705z
		 M397.844,147.666l-0.729-3.085c-0.076-0.348-0.135-0.676-0.176-0.985c-0.034,0.328-0.087,0.656-0.158,0.985l-0.708,3.085H397.844z
		"/>
	<path fill="#595A5C" d="M401.553,151.227h-0.555v-7.745h-1.647v-0.532h3.851v0.532h-1.648V151.227z"/>
	<path fill="#595A5C" d="M408.2,151.227h-0.555v-4.071h-2.888v4.071h-0.555v-8.277h0.555v3.674h2.888v-3.674h0.555V151.227z"/>
	<path fill="#595A5C" d="M413.618,148.906c0,0.725-0.191,1.293-0.575,1.704c-0.383,0.411-0.91,0.617-1.582,0.617h-1.449v-8.277
		h0.555v3.674h0.883c0.74,0,1.286,0.185,1.64,0.553C413.441,147.544,413.618,148.121,413.618,148.906z M410.566,150.717h0.917
		c0.506,0,0.893-0.155,1.161-0.467c0.268-0.312,0.401-0.76,0.401-1.345c0-0.607-0.126-1.055-0.379-1.342s-0.651-0.431-1.195-0.431
		h-0.905V150.717z M415.47,151.227h-0.556v-8.277h0.556V151.227z"/>
	<path fill="#595A5C" d="M420.281,151.227h-3v-8.277h3v0.532h-2.445v3.142h2.31v0.532h-2.31v3.539h2.445V151.227z"/>
	<path fill="#595A5C" d="M424.478,146.947l2.344-3.997h0.601l-2.367,3.997l2.554,4.28h-0.64l-2.491-4.235v4.235h-0.555v-8.277h0.555
		V146.947z"/>
	<path fill="#595A5C" d="M433.01,147.077c0,1.37-0.205,2.424-0.614,3.159c-0.409,0.736-1.001,1.104-1.775,1.104
		c-0.781,0-1.374-0.371-1.777-1.112c-0.404-0.742-0.605-1.796-0.605-3.162c0-1.427,0.199-2.489,0.6-3.188s1-1.048,1.801-1.048
		c0.77,0,1.357,0.367,1.764,1.102C432.807,144.666,433.01,145.714,433.01,147.077z M428.814,147.077c0,1.23,0.153,2.16,0.461,2.789
		c0.308,0.628,0.756,0.942,1.345,0.942c0.593,0,1.043-0.312,1.351-0.935c0.308-0.622,0.462-1.555,0.462-2.797
		c0-1.227-0.151-2.152-0.453-2.776c-0.302-0.625-0.749-0.938-1.342-0.938c-0.608,0-1.063,0.316-1.367,0.948
		C428.966,144.944,428.814,145.866,428.814,147.077z"/>
	<path fill="#595A5C" d="M437.268,151.227l-2.202-7.536h-0.045c0.037,0.793,0.057,1.295,0.057,1.506v6.03h-0.532v-8.277h0.82
		l1.857,6.33c0.166,0.559,0.273,1.034,0.322,1.427h0.046c0.037-0.279,0.154-0.751,0.351-1.416l1.84-6.341h0.85v8.277h-0.555v-5.984
		c0-0.234,0.019-0.747,0.057-1.54h-0.045l-2.191,7.524H437.268z"/>
	<path fill="#595A5C" d="M446.44,151.227h-0.555v-7.745h-2.888v7.745h-0.555v-8.277h3.997V151.227z"/>
	<path fill="#595A5C" d="M451.705,151.227h-0.555v-7.745h-1.625l-0.221,2.694c-0.162,1.963-0.296,3.199-0.402,3.709
		c-0.105,0.51-0.25,0.874-0.433,1.093c-0.184,0.219-0.454,0.328-0.813,0.328c-0.174,0-0.315-0.034-0.425-0.102v-0.521
		c0.087,0.061,0.217,0.091,0.391,0.091c0.125,0,0.229-0.024,0.314-0.073s0.162-0.145,0.232-0.286
		c0.069-0.142,0.132-0.345,0.187-0.608c0.055-0.265,0.107-0.611,0.158-1.042s0.226-2.368,0.524-5.814h2.666V151.227z"/>
	<path fill="#595A5C" d="M456.518,151.227h-3v-8.277h3v0.532h-2.445v3.142h2.31v0.532h-2.31v3.539h2.445V151.227z"/>
	<path fill="#595A5C" d="M458.534,146.947l2.344-3.997h0.601l-2.367,3.997l2.554,4.28h-0.64l-2.491-4.235v4.235h-0.555v-8.277h0.555
		V146.947z"/>
	<path fill="#595A5C" d="M464.909,143.351c-0.623,0-1.118,0.33-1.486,0.988c-0.368,0.659-0.552,1.571-0.552,2.737
		c0,0.759,0.085,1.42,0.255,1.981c0.17,0.563,0.413,0.995,0.73,1.297c0.316,0.302,0.685,0.453,1.104,0.453
		c0.431,0,0.801-0.077,1.11-0.232v0.51c-0.295,0.17-0.682,0.255-1.161,0.255c-0.524,0-0.984-0.17-1.379-0.51
		s-0.699-0.831-0.914-1.475s-0.322-1.407-0.322-2.29c0-1.321,0.234-2.359,0.704-3.114c0.471-0.755,1.111-1.133,1.923-1.133
		c0.506,0,0.947,0.117,1.324,0.352l-0.255,0.487C465.674,143.454,465.313,143.351,464.909,143.351z"/>
	<path fill="#595A5C" d="M471.047,148.906c0,0.725-0.191,1.293-0.575,1.704c-0.383,0.411-0.91,0.617-1.582,0.617h-1.449v-8.277
		h0.555v3.674h0.883c0.74,0,1.286,0.185,1.64,0.553C470.87,147.544,471.047,148.121,471.047,148.906z M467.995,150.717h0.917
		c0.506,0,0.893-0.155,1.161-0.467c0.268-0.312,0.401-0.76,0.401-1.345c0-0.607-0.126-1.055-0.379-1.342s-0.651-0.431-1.195-0.431
		h-0.905V150.717z M472.898,151.227h-0.556v-8.277h0.556V151.227z"/>
</g>
<g>
	<path fill="#595A5C" d="M384.137,169.8c-0.623,0-1.118,0.33-1.486,0.988c-0.368,0.659-0.552,1.571-0.552,2.737
		c0,0.759,0.085,1.42,0.255,1.981c0.17,0.563,0.413,0.995,0.73,1.297c0.316,0.302,0.685,0.453,1.104,0.453
		c0.431,0,0.801-0.077,1.11-0.232v0.51c-0.295,0.17-0.682,0.255-1.161,0.255c-0.524,0-0.984-0.17-1.379-0.51
		s-0.699-0.831-0.914-1.475s-0.322-1.407-0.322-2.29c0-1.321,0.234-2.359,0.704-3.114c0.471-0.755,1.111-1.133,1.923-1.133
		c0.506,0,0.947,0.117,1.324,0.352l-0.255,0.487C384.901,169.903,384.541,169.8,384.137,169.8z"/>
	<path fill="#595A5C" d="M388.043,177.676h-0.555v-7.745h-1.647v-0.532h3.851v0.532h-1.648V177.676z"/>
	<path fill="#595A5C" d="M390.693,169.399h0.543v5.786c0,0.128-0.001,0.256-0.003,0.382c-0.002,0.127-0.02,0.517-0.054,1.17h0.046
		l3.108-7.338h0.719v8.277h-0.544v-5.939c0-0.476,0.022-0.97,0.068-1.483h-0.046l-3.131,7.423h-0.707V169.399z"/>
	<path fill="#595A5C" d="M399.587,177.676l-2.202-7.536h-0.045c0.037,0.793,0.057,1.295,0.057,1.506v6.03h-0.532v-8.277h0.82
		l1.857,6.33c0.166,0.559,0.273,1.034,0.322,1.427h0.046c0.037-0.279,0.154-0.751,0.351-1.416l1.84-6.341h0.85v8.277h-0.555v-5.984
		c0-0.234,0.019-0.747,0.057-1.54h-0.045l-2.191,7.524H399.587z"/>
	<path fill="#595A5C" d="M405.629,175.253l-1.772-5.854h0.577l1.257,4.24c0.042,0.147,0.106,0.419,0.193,0.815h0.051
		c0.045-0.32,0.098-0.593,0.158-0.815l1.07-4.24h0.577l-1.846,6.907c-0.14,0.524-0.313,0.903-0.521,1.135
		c-0.208,0.232-0.478,0.349-0.81,0.349c-0.182,0-0.348-0.038-0.498-0.113v-0.521c0.166,0.067,0.328,0.102,0.486,0.102
		c0.188,0,0.348-0.084,0.476-0.252s0.247-0.446,0.356-0.835L405.629,175.253z"/>
	<path fill="#595A5C" d="M412.1,177.676h-0.555v-7.745h-1.625l-0.221,2.694c-0.162,1.963-0.296,3.199-0.402,3.709
		c-0.105,0.51-0.25,0.874-0.433,1.093c-0.184,0.219-0.454,0.328-0.813,0.328c-0.174,0-0.315-0.034-0.425-0.102v-0.521
		c0.087,0.061,0.217,0.091,0.391,0.091c0.125,0,0.229-0.024,0.314-0.073s0.162-0.145,0.232-0.286
		c0.069-0.142,0.132-0.345,0.187-0.608c0.055-0.265,0.107-0.611,0.158-1.042s0.226-2.368,0.524-5.814h2.666V177.676z"/>
	<path fill="#595A5C" d="M415.418,174.058l-1.54,3.618h-0.629l1.647-3.697c-0.415-0.109-0.739-0.359-0.974-0.75
		c-0.233-0.391-0.351-0.875-0.351-1.452c0-1.586,0.715-2.378,2.146-2.378h1.348v8.277h-0.561v-3.606L415.418,174.058z
		 M416.505,169.909h-0.702c-0.589,0-1.011,0.145-1.266,0.436s-0.382,0.759-0.382,1.404c0,0.626,0.119,1.087,0.356,1.381
		c0.238,0.295,0.617,0.442,1.139,0.442h0.854V169.909z"/>
	<path fill="#595A5C" d="M420.253,177.676h-0.555v-7.745h-1.647v-0.532h3.851v0.532h-1.648V177.676z"/>
	<path fill="#595A5C" d="M427.398,173.526c0,1.37-0.205,2.424-0.614,3.159c-0.409,0.736-1.001,1.104-1.775,1.104
		c-0.781,0-1.374-0.371-1.777-1.112c-0.404-0.742-0.605-1.796-0.605-3.162c0-1.427,0.199-2.489,0.6-3.188s1-1.048,1.801-1.048
		c0.77,0,1.357,0.367,1.764,1.102C427.195,171.115,427.398,172.164,427.398,173.526z M423.203,173.526
		c0,1.23,0.153,2.16,0.461,2.789c0.308,0.628,0.756,0.942,1.345,0.942c0.593,0,1.043-0.312,1.351-0.935
		c0.308-0.622,0.462-1.555,0.462-2.797c0-1.227-0.151-2.152-0.453-2.776c-0.302-0.625-0.749-0.938-1.342-0.938
		c-0.608,0-1.063,0.316-1.367,0.948C423.354,171.393,423.203,172.315,423.203,173.526z"/>
	<path fill="#595A5C" d="M432.398,171.777c0,0.853-0.195,1.479-0.586,1.88c-0.391,0.399-0.97,0.6-1.735,0.6h-0.589v3.42h-0.555
		v-8.277h1.132c0.808,0,1.398,0.19,1.772,0.571C432.211,170.352,432.398,170.954,432.398,171.777z M429.488,173.747h0.555
		c0.649,0,1.109-0.152,1.382-0.458c0.271-0.306,0.407-0.81,0.407-1.512c0-0.668-0.141-1.146-0.422-1.436s-0.716-0.433-1.305-0.433
		h-0.617V173.747z"/>
	<path fill="#595A5C" d="M437.296,175.355c0,0.725-0.191,1.293-0.575,1.704c-0.383,0.411-0.91,0.617-1.582,0.617h-1.449v-8.277
		h0.555v3.674h0.883c0.74,0,1.286,0.185,1.64,0.553C437.119,173.994,437.296,174.57,437.296,175.355z M434.244,177.167h0.917
		c0.506,0,0.893-0.155,1.161-0.467c0.268-0.312,0.401-0.76,0.401-1.345c0-0.607-0.126-1.055-0.379-1.342s-0.651-0.431-1.195-0.431
		h-0.905V177.167z M439.147,177.676h-0.556v-8.277h0.556V177.676z"/>
	<path fill="#595A5C" d="M446.604,171.777c0,0.853-0.195,1.479-0.586,1.88c-0.391,0.399-0.97,0.6-1.735,0.6h-0.589v3.42h-0.555
		v-8.277h1.132c0.808,0,1.398,0.19,1.772,0.571C446.416,170.352,446.604,170.954,446.604,171.777z M443.693,173.747h0.555
		c0.649,0,1.109-0.152,1.382-0.458c0.271-0.306,0.407-0.81,0.407-1.512c0-0.668-0.141-1.146-0.422-1.436s-0.716-0.433-1.305-0.433
		h-0.617V173.747z"/>
	<path fill="#595A5C" d="M452.39,173.526c0,1.37-0.205,2.424-0.614,3.159c-0.409,0.736-1.001,1.104-1.775,1.104
		c-0.781,0-1.374-0.371-1.777-1.112c-0.404-0.742-0.605-1.796-0.605-3.162c0-1.427,0.199-2.489,0.6-3.188s1-1.048,1.801-1.048
		c0.77,0,1.357,0.367,1.764,1.102C452.187,171.115,452.39,172.164,452.39,173.526z M448.194,173.526c0,1.23,0.153,2.16,0.461,2.789
		c0.308,0.628,0.756,0.942,1.345,0.942c0.593,0,1.043-0.312,1.351-0.935c0.308-0.622,0.462-1.555,0.462-2.797
		c0-1.227-0.151-2.152-0.453-2.776c-0.302-0.625-0.749-0.938-1.342-0.938c-0.608,0-1.063,0.316-1.367,0.948
		C448.346,171.393,448.194,172.315,448.194,173.526z"/>
	<path fill="#595A5C" d="M456.263,169.8c-0.623,0-1.118,0.33-1.486,0.988c-0.368,0.659-0.552,1.571-0.552,2.737
		c0,0.759,0.085,1.42,0.255,1.981c0.17,0.563,0.413,0.995,0.73,1.297c0.316,0.302,0.685,0.453,1.104,0.453
		c0.431,0,0.801-0.077,1.11-0.232v0.51c-0.295,0.17-0.682,0.255-1.161,0.255c-0.524,0-0.984-0.17-1.379-0.51
		s-0.699-0.831-0.914-1.475s-0.322-1.407-0.322-2.29c0-1.321,0.234-2.359,0.704-3.114c0.471-0.755,1.111-1.133,1.923-1.133
		c0.506,0,0.947,0.117,1.324,0.352l-0.255,0.487C457.027,169.903,456.667,169.8,456.263,169.8z"/>
	<path fill="#595A5C" d="M460.169,177.676h-0.555v-7.745h-1.647v-0.532h3.851v0.532h-1.648V177.676z"/>
	<path fill="#595A5C" d="M465.95,177.676l-0.73-3.001h-2.01l-0.72,3.001h-0.577l1.993-8.277h0.571l2.039,8.277H465.95z
		 M465.089,174.115l-0.729-3.085c-0.076-0.348-0.135-0.676-0.176-0.985c-0.034,0.328-0.087,0.656-0.158,0.985l-0.708,3.085H465.089z
		"/>
</g>
<path fill="#595A5C" d="M381.8,195.849h0.543v5.786c0,0.128-0.001,0.256-0.003,0.382c-0.001,0.127-0.02,0.517-0.054,1.169h0.045
	l3.109-7.337h0.719v8.277h-0.544v-5.939c0-0.476,0.023-0.971,0.068-1.483h-0.045l-3.131,7.423H381.8V195.849z M390.691,204.126
	l-2.202-7.536h-0.045c0.037,0.793,0.057,1.295,0.057,1.506v6.03h-0.532v-8.277h0.82l1.857,6.33c0.166,0.559,0.273,1.034,0.322,1.427
	h0.046c0.038-0.28,0.154-0.752,0.351-1.416l1.84-6.341h0.85v8.277H393.5v-5.984c0-0.234,0.019-0.748,0.056-1.54h-0.045l-2.191,7.524
	H390.691z M398.588,204.126l-2.202-7.536h-0.045c0.037,0.793,0.057,1.295,0.057,1.506v6.03h-0.532v-8.277h0.82l1.857,6.33
	c0.166,0.559,0.273,1.034,0.322,1.427h0.046c0.038-0.28,0.154-0.752,0.351-1.416l1.84-6.341h0.85v8.277h-0.555v-5.984
	c0-0.234,0.019-0.748,0.057-1.54h-0.045l-2.191,7.524H398.588z M404.628,201.703l-1.772-5.854h0.577l1.258,4.24
	c0.041,0.147,0.104,0.419,0.191,0.815h0.051c0.046-0.32,0.099-0.593,0.159-0.815l1.07-4.24h0.577l-1.846,6.907
	c-0.14,0.524-0.313,0.903-0.521,1.135c-0.208,0.232-0.478,0.349-0.811,0.349c-0.18,0-0.347-0.038-0.498-0.113v-0.521
	c0.166,0.067,0.329,0.102,0.487,0.102c0.188,0,0.347-0.084,0.476-0.252s0.247-0.446,0.356-0.835L404.628,201.703z M411.643,204.126
	h-0.555v-4.071H408.2v4.071h-0.555v-8.277h0.555v3.675h2.888v-3.675h0.555V204.126z M417.95,199.976c0,1.37-0.204,2.423-0.614,3.159
	c-0.409,0.736-1.001,1.104-1.775,1.104c-0.78,0-1.373-0.371-1.777-1.112c-0.403-0.742-0.605-1.796-0.605-3.162
	c0-1.427,0.2-2.489,0.6-3.188c0.4-0.697,1.001-1.047,1.801-1.047c0.771,0,1.358,0.367,1.764,1.101
	C417.747,197.565,417.95,198.614,417.95,199.976z M413.755,199.976c0,1.23,0.154,2.16,0.462,2.789
	c0.307,0.628,0.756,0.942,1.344,0.942c0.594,0,1.043-0.312,1.351-0.935s0.462-1.555,0.462-2.797c0-1.227-0.151-2.152-0.453-2.777
	s-0.749-0.937-1.342-0.937c-0.607,0-1.063,0.316-1.367,0.948C413.907,197.843,413.755,198.764,413.755,199.976z M420.039,199.846
	l2.344-3.997h0.601l-2.367,3.997l2.555,4.28h-0.641l-2.491-4.235v4.235h-0.554v-8.277h0.554V199.846z M428.572,199.976
	c0,1.37-0.205,2.423-0.615,3.159c-0.409,0.736-1.001,1.104-1.774,1.104c-0.781,0-1.374-0.371-1.777-1.112
	c-0.404-0.742-0.606-1.796-0.606-3.162c0-1.427,0.2-2.489,0.601-3.188c0.399-0.697,0.999-1.047,1.8-1.047
	c0.771,0,1.358,0.367,1.764,1.101C428.369,197.565,428.572,198.614,428.572,199.976z M424.377,199.976
	c0,1.23,0.152,2.16,0.461,2.789c0.308,0.628,0.755,0.942,1.345,0.942c0.592,0,1.042-0.312,1.351-0.935
	c0.308-0.623,0.462-1.555,0.462-2.797c0-1.227-0.151-2.152-0.454-2.777c-0.302-0.625-0.749-0.937-1.342-0.937
	c-0.607,0-1.063,0.316-1.367,0.948C424.528,197.843,424.377,198.764,424.377,199.976z M433.571,198.227
	c0,0.853-0.195,1.479-0.586,1.879c-0.391,0.4-0.97,0.601-1.735,0.601h-0.589v3.42h-0.555v-8.277h1.132
	c0.809,0,1.398,0.19,1.772,0.571C433.385,196.802,433.571,197.404,433.571,198.227z M430.661,200.197h0.555
	c0.649,0,1.109-0.152,1.382-0.458c0.271-0.307,0.407-0.81,0.407-1.512c0-0.669-0.141-1.146-0.422-1.436s-0.717-0.433-1.305-0.433
	h-0.617V200.197z M438.325,198.227c0,0.853-0.195,1.479-0.586,1.879c-0.391,0.4-0.97,0.601-1.735,0.601h-0.589v3.42h-0.556v-8.277
	h1.134c0.807,0,1.398,0.19,1.771,0.571C438.138,196.802,438.325,197.404,438.325,198.227z M435.415,200.197h0.556
	c0.648,0,1.108-0.152,1.381-0.458c0.271-0.307,0.407-0.81,0.407-1.512c0-0.669-0.141-1.146-0.421-1.436
	c-0.281-0.289-0.717-0.433-1.305-0.433h-0.618V200.197z M442.615,204.126h-3.001v-8.277h3.001v0.532h-2.446v3.143h2.31v0.531h-2.31
	v3.539h2.446V204.126z M444.634,199.846l2.344-3.997h0.601l-2.367,3.997l2.554,4.28h-0.64l-2.491-4.235v4.235h-0.556v-8.277h0.556
	V199.846z M450.046,204.126h-0.555v-7.745h-1.647v-0.532h3.85v0.532h-1.647V204.126z M457.189,199.976
	c0,1.37-0.205,2.423-0.614,3.159c-0.41,0.736-1.002,1.104-1.775,1.104c-0.781,0-1.373-0.371-1.778-1.112
	c-0.403-0.742-0.604-1.796-0.604-3.162c0-1.427,0.199-2.489,0.599-3.188c0.4-0.697,1.001-1.047,1.801-1.047
	c0.771,0,1.358,0.367,1.764,1.101C456.985,197.565,457.189,198.614,457.189,199.976z M452.993,199.976
	c0,1.23,0.155,2.16,0.462,2.789c0.308,0.628,0.756,0.942,1.345,0.942c0.593,0,1.043-0.312,1.351-0.935s0.461-1.555,0.461-2.797
	c0-1.227-0.15-2.152-0.452-2.777s-0.749-0.937-1.343-0.937c-0.607,0-1.063,0.316-1.367,0.948
	C453.146,197.843,452.993,198.764,452.993,199.976z M462.188,198.227c0,0.853-0.195,1.479-0.587,1.879
	c-0.39,0.4-0.969,0.601-1.734,0.601h-0.589v3.42h-0.555v-8.277h1.132c0.808,0,1.398,0.19,1.772,0.571
	C462.002,196.802,462.188,197.404,462.188,198.227z M459.278,200.197h0.555c0.649,0,1.11-0.152,1.382-0.458
	c0.271-0.307,0.407-0.81,0.407-1.512c0-0.669-0.141-1.146-0.422-1.436s-0.716-0.433-1.305-0.433h-0.617V200.197z M467.084,201.805
	c0,0.725-0.191,1.293-0.575,1.704c-0.383,0.411-0.909,0.617-1.582,0.617h-1.449v-8.277h0.555v3.675h0.884
	c0.739,0,1.285,0.184,1.639,0.552C466.907,200.444,467.084,201.02,467.084,201.805z M464.032,203.617h0.917
	c0.506,0,0.893-0.156,1.161-0.467c0.269-0.312,0.401-0.76,0.401-1.345c0-0.607-0.126-1.055-0.379-1.342s-0.651-0.431-1.194-0.431
	h-0.906V203.617z M468.936,204.126h-0.555v-8.277h0.555V204.126z M472.61,200.951c0-0.979,0.147-1.912,0.441-2.801
	c0.295-0.889,0.708-1.655,1.241-2.301h0.452c-0.506,0.747-0.889,1.558-1.149,2.432c-0.26,0.874-0.391,1.76-0.391,2.658
	c0,0.917,0.137,1.821,0.41,2.712c0.274,0.891,0.646,1.66,1.118,2.31h-0.44c-0.541-0.63-0.956-1.379-1.246-2.248
	C472.756,202.845,472.61,201.923,472.61,200.951z M476.129,195.849h0.543v5.786c0,0.128-0.001,0.256-0.003,0.382
	c-0.002,0.127-0.02,0.517-0.054,1.169h0.045l3.108-7.337h0.719v8.277h-0.543v-5.939c0-0.476,0.022-0.971,0.067-1.483h-0.045
	l-3.131,7.423h-0.707V195.849z M485.021,204.126l-2.203-7.536h-0.046c0.039,0.793,0.058,1.295,0.058,1.506v6.03h-0.532v-8.277h0.82
	l1.857,6.33c0.166,0.559,0.273,1.034,0.323,1.427h0.045c0.037-0.28,0.154-0.752,0.352-1.416l1.84-6.341h0.85v8.277h-0.556v-5.984
	c0-0.234,0.019-0.748,0.058-1.54h-0.046l-2.19,7.524H485.021z M492.917,204.126l-2.203-7.536h-0.045
	c0.038,0.793,0.056,1.295,0.056,1.506v6.03h-0.532v-8.277h0.821l1.857,6.33c0.166,0.559,0.273,1.034,0.323,1.427h0.045
	c0.037-0.28,0.155-0.752,0.351-1.416l1.841-6.341h0.85v8.277h-0.556v-5.984c0-0.234,0.019-0.748,0.058-1.54h-0.046l-2.191,7.524
	H492.917z M498.956,201.703l-1.772-5.854h0.578l1.256,4.24c0.042,0.147,0.106,0.419,0.193,0.815h0.051
	c0.045-0.32,0.098-0.593,0.158-0.815l1.07-4.24h0.577l-1.846,6.907c-0.14,0.524-0.313,0.903-0.521,1.135
	c-0.206,0.232-0.477,0.349-0.809,0.349c-0.182,0-0.348-0.038-0.499-0.113v-0.521c0.167,0.067,0.329,0.102,0.487,0.102
	c0.188,0,0.348-0.084,0.476-0.252c0.129-0.168,0.248-0.446,0.357-0.835L498.956,201.703z M505.972,204.126h-0.556v-4.071h-2.887
	v4.071h-0.555v-8.277h0.555v3.675h2.887v-3.675h0.556V204.126z M512.279,199.976c0,1.37-0.205,2.423-0.614,3.159
	c-0.41,0.736-1.002,1.104-1.775,1.104c-0.781,0-1.374-0.371-1.778-1.112c-0.403-0.742-0.605-1.796-0.605-3.162
	c0-1.427,0.2-2.489,0.601-3.188c0.4-0.697,1-1.047,1.801-1.047c0.77,0,1.357,0.367,1.764,1.101
	C512.076,197.565,512.279,198.614,512.279,199.976z M508.084,199.976c0,1.23,0.153,2.16,0.461,2.789
	c0.308,0.628,0.756,0.942,1.345,0.942c0.593,0,1.042-0.312,1.351-0.935c0.308-0.623,0.461-1.555,0.461-2.797
	c0-1.227-0.15-2.152-0.453-2.777c-0.302-0.625-0.749-0.937-1.341-0.937c-0.608,0-1.063,0.316-1.367,0.948
	C508.235,197.843,508.084,198.764,508.084,199.976z M516.536,204.126l-2.202-7.536h-0.045c0.037,0.793,0.057,1.295,0.057,1.506v6.03
	h-0.532v-8.277h0.82l1.856,6.33c0.167,0.559,0.274,1.034,0.324,1.427h0.045c0.037-0.28,0.154-0.752,0.352-1.416l1.84-6.341h0.85
	v8.277h-0.556v-5.984c0-0.234,0.019-0.748,0.057-1.54h-0.045l-2.191,7.524H516.536z M526.205,199.976
	c0,1.37-0.205,2.423-0.614,3.159s-1.001,1.104-1.774,1.104c-0.782,0-1.375-0.371-1.778-1.112c-0.404-0.742-0.605-1.796-0.605-3.162
	c0-1.427,0.199-2.489,0.601-3.188c0.398-0.697,0.999-1.047,1.8-1.047c0.771,0,1.357,0.367,1.764,1.101
	C526.002,197.565,526.205,198.614,526.205,199.976z M522.01,199.976c0,1.23,0.153,2.16,0.462,2.789
	c0.307,0.628,0.755,0.942,1.345,0.942c0.592,0,1.042-0.312,1.35-0.935s0.462-1.555,0.462-2.797c0-1.227-0.151-2.152-0.453-2.777
	s-0.749-0.937-1.342-0.937c-0.607,0-1.063,0.316-1.367,0.948C522.162,197.843,522.01,198.764,522.01,199.976z M531.912,206.215
	h-0.532v-2.089h-3.957v2.089h-0.532v-2.621h0.498c0.445-1.355,0.761-2.62,0.948-3.794c0.187-1.174,0.279-2.49,0.279-3.951h2.588
	v7.745h0.708V206.215z M530.649,203.594v-7.213h-1.473c-0.083,2.66-0.488,5.065-1.217,7.213H530.649z M533.916,201.703l-1.772-5.854
	h0.578l1.257,4.24c0.041,0.147,0.105,0.419,0.193,0.815h0.05c0.046-0.32,0.099-0.593,0.158-0.815l1.07-4.24h0.578l-1.846,6.907
	c-0.141,0.524-0.313,0.903-0.521,1.135c-0.207,0.232-0.477,0.349-0.81,0.349c-0.181,0-0.347-0.038-0.498-0.113v-0.521
	c0.166,0.067,0.328,0.102,0.487,0.102c0.188,0,0.347-0.084,0.476-0.252c0.127-0.168,0.247-0.446,0.356-0.835L533.916,201.703z
	 M540.389,204.126h-0.556v-7.745h-1.624l-0.222,2.694c-0.161,1.963-0.296,3.199-0.401,3.709c-0.106,0.51-0.251,0.874-0.434,1.093
	c-0.184,0.219-0.454,0.328-0.813,0.328c-0.174,0-0.315-0.034-0.425-0.103v-0.521c0.087,0.061,0.217,0.091,0.392,0.091
	c0.124,0,0.229-0.024,0.313-0.073c0.085-0.05,0.162-0.145,0.232-0.286c0.069-0.142,0.132-0.345,0.187-0.608
	c0.055-0.265,0.107-0.612,0.159-1.042c0.051-0.431,0.226-2.369,0.523-5.814h2.667V204.126z M543.704,200.508l-1.54,3.618h-0.627
	l1.646-3.697c-0.415-0.109-0.74-0.359-0.975-0.75c-0.233-0.391-0.351-0.875-0.351-1.452c0-1.586,0.716-2.378,2.146-2.378h1.348
	v8.277h-0.562v-3.607L543.704,200.508z M544.791,196.359h-0.701c-0.589,0-1.012,0.145-1.266,0.436
	c-0.255,0.29-0.382,0.759-0.382,1.404c0,0.626,0.118,1.087,0.356,1.381c0.237,0.295,0.617,0.442,1.138,0.442h0.854V196.359z
	 M548.537,204.126h-0.555v-7.745h-1.648v-0.532h3.851v0.532h-1.647V204.126z M555.68,199.976c0,1.37-0.203,2.423-0.614,3.159
	c-0.409,0.736-1.001,1.104-1.774,1.104c-0.781,0-1.374-0.371-1.778-1.112c-0.403-0.742-0.605-1.796-0.605-3.162
	c0-1.427,0.2-2.489,0.601-3.188c0.4-0.697,1-1.047,1.801-1.047c0.77,0,1.357,0.367,1.763,1.101
	C555.478,197.565,555.68,198.614,555.68,199.976z M551.485,199.976c0,1.23,0.153,2.16,0.46,2.789
	c0.309,0.628,0.757,0.942,1.346,0.942c0.593,0,1.043-0.312,1.35-0.935c0.309-0.623,0.462-1.555,0.462-2.797
	c0-1.227-0.15-2.152-0.453-2.777c-0.302-0.625-0.749-0.937-1.341-0.937c-0.608,0-1.063,0.316-1.368,0.948
	C551.637,197.843,551.485,198.764,551.485,199.976z M560.68,198.227c0,0.853-0.195,1.479-0.586,1.879
	c-0.392,0.4-0.969,0.601-1.735,0.601h-0.589v3.42h-0.555v-8.277h1.132c0.809,0,1.398,0.19,1.771,0.571
	C560.492,196.802,560.68,197.404,560.68,198.227z M557.77,200.197h0.555c0.648,0,1.11-0.152,1.381-0.458
	c0.272-0.307,0.408-0.81,0.408-1.512c0-0.669-0.141-1.146-0.422-1.436s-0.716-0.433-1.305-0.433h-0.617V200.197z M565.575,201.805
	c0,0.725-0.191,1.293-0.574,1.704c-0.384,0.411-0.911,0.617-1.583,0.617h-1.449v-8.277h0.555v3.675h0.883
	c0.74,0,1.286,0.184,1.64,0.552C565.398,200.444,565.575,201.02,565.575,201.805z M562.523,203.617h0.917
	c0.507,0,0.893-0.156,1.161-0.467c0.268-0.312,0.401-0.76,0.401-1.345c0-0.607-0.126-1.055-0.379-1.342s-0.651-0.431-1.194-0.431
	h-0.906V203.617z M567.427,204.126h-0.555v-8.277h0.555V204.126z M570.943,200.951c0,0.973-0.145,1.896-0.434,2.765
	c-0.288,0.871-0.704,1.619-1.248,2.245h-0.442c0.487-0.684,0.864-1.466,1.131-2.35c0.266-0.883,0.398-1.773,0.398-2.672
	c0-0.902-0.13-1.788-0.391-2.658s-0.644-1.681-1.149-2.432h0.453c0.539,0.642,0.955,1.409,1.245,2.304
	C570.798,199.047,570.943,199.98,570.943,200.951z"/>
<path fill="#753090" d="M73.78,76.874V48.567c0-8.952-4.312-13.823-13.105-13.823H56.75v7.665l-0.086,0.32h3.849
	c2.802,0,4.482,1.439,4.482,5.437v29.108c0,3.999-1.68,5.438-4.482,5.438h-4.961V46.88l-8.784,32.762v11.054h13.906
	C69.468,90.696,73.78,85.825,73.78,76.874"/>
<polygon fill="#B4B437" points="30.378,34.744 30.378,42.729 47.879,42.729 35.013,90.696 43.804,90.696 56.75,42.409 56.75,34.744
	"/>
<g>
	<path fill="#595A5C" d="M82.931,52.411h0.555v1.019c0.792,0,1.413,0.272,1.86,0.815s0.671,1.285,0.671,2.225
		c0,0.978-0.225,1.751-0.674,2.321s-1.068,0.855-1.857,0.855v1.274h-0.555v-1.274c-0.521,0-0.972-0.133-1.353-0.399
		s-0.673-0.641-0.875-1.124C80.501,57.64,80.4,57.089,80.4,56.47c0-0.578,0.103-1.099,0.309-1.563
		c0.206-0.464,0.5-0.827,0.883-1.087c0.383-0.26,0.83-0.391,1.339-0.391V52.411z M82.931,53.945c-0.63,0-1.112,0.221-1.446,0.663
		c-0.334,0.442-0.501,1.063-0.501,1.863c0,0.853,0.166,1.511,0.499,1.973c0.332,0.462,0.815,0.693,1.449,0.693V53.945z
		 M83.486,59.137c0.634,0,1.117-0.231,1.449-0.693s0.498-1.12,0.498-1.973c0-1.684-0.649-2.525-1.947-2.525V59.137z"/>
	<path fill="#595A5C" d="M92.018,56.657c0,1.37-0.205,2.423-0.614,3.159c-0.41,0.736-1.001,1.104-1.775,1.104
		c-0.781,0-1.374-0.371-1.778-1.113s-0.606-1.795-0.606-3.162c0-1.427,0.2-2.489,0.6-3.188s1-1.047,1.801-1.047
		c0.77,0,1.357,0.367,1.763,1.101C91.815,54.246,92.018,55.294,92.018,56.657z M87.823,56.657c0,1.23,0.154,2.16,0.461,2.788
		s0.756,0.943,1.345,0.943c0.592,0,1.042-0.312,1.35-0.934c0.308-0.623,0.461-1.555,0.461-2.797c0-1.227-0.151-2.152-0.453-2.777
		c-0.302-0.625-0.75-0.937-1.342-0.937c-0.608,0-1.064,0.316-1.368,0.948C87.975,54.523,87.823,55.445,87.823,56.657z"/>
	<path fill="#595A5C" d="M97.018,54.908c0,0.853-0.195,1.479-0.586,1.879c-0.391,0.4-0.969,0.6-1.735,0.6h-0.589v3.42h-0.555V52.53
		h1.132c0.808,0,1.398,0.19,1.772,0.572C96.831,53.483,97.018,54.085,97.018,54.908z M94.107,56.878h0.555
		c0.649,0,1.11-0.153,1.381-0.458c0.272-0.306,0.408-0.81,0.408-1.512c0-0.668-0.141-1.146-0.422-1.436
		c-0.281-0.289-0.716-0.433-1.305-0.433h-0.617V56.878z"/>
	<path fill="#595A5C" d="M101.032,60.807l-2.203-7.536h-0.045c0.038,0.792,0.057,1.294,0.057,1.506v6.03h-0.532V52.53h0.821
		l1.857,6.33c0.166,0.559,0.273,1.034,0.323,1.427h0.045c0.038-0.279,0.154-0.751,0.351-1.416l1.84-6.341h0.849v8.277h-0.555v-5.984
		c0-0.234,0.019-0.748,0.057-1.54h-0.045l-2.191,7.524H101.032z"/>
	<path fill="#595A5C" d="M107.073,58.384l-1.772-5.854h0.578l1.257,4.241c0.042,0.147,0.105,0.419,0.192,0.815h0.051
		c0.045-0.321,0.098-0.592,0.159-0.815l1.07-4.241h0.577l-1.846,6.907c-0.14,0.524-0.313,0.903-0.521,1.135
		c-0.208,0.232-0.478,0.348-0.81,0.348c-0.181,0-0.347-0.038-0.498-0.113v-0.521c0.166,0.068,0.329,0.102,0.487,0.102
		c0.189,0,0.347-0.084,0.476-0.252s0.247-0.446,0.357-0.835L107.073,58.384z"/>
	<path fill="#595A5C" d="M113.544,60.807h-0.555v-7.745h-1.625l-0.221,2.695c-0.162,1.963-0.296,3.199-0.402,3.708
		c-0.106,0.509-0.25,0.874-0.433,1.093s-0.454,0.328-0.813,0.328c-0.174,0-0.315-0.034-0.425-0.102v-0.521
		c0.087,0.061,0.217,0.09,0.391,0.09c0.125,0,0.229-0.024,0.314-0.073c0.085-0.049,0.162-0.145,0.232-0.286s0.132-0.344,0.187-0.608
		s0.107-0.612,0.158-1.042c0.051-0.43,0.226-2.369,0.524-5.814h2.667V60.807z"/>
	<path fill="#595A5C" d="M118.487,60.807l-0.73-3.001h-2.01l-0.719,3.001h-0.578l1.993-8.277h0.572l2.038,8.277H118.487z
		 M117.626,57.246l-0.73-3.086c-0.076-0.347-0.134-0.676-0.175-0.985c-0.034,0.329-0.087,0.657-0.159,0.985l-0.708,3.086H117.626z"
		/>
</g>
<path fill="#595A5C" d="M80.905,72.308l2.57-7.746h-3.352V64.03h3.912v0.464l-2.553,7.813H80.905z M89.45,68.09
	c0,2.812-0.877,4.218-2.633,4.218h-1.472V64.03h1.506c0.853,0,1.5,0.345,1.939,1.033C89.23,65.752,89.45,66.761,89.45,68.09z
	 M88.867,68.124c0-1.166-0.172-2.055-0.516-2.667c-0.343-0.611-0.851-0.917-1.523-0.917H85.9v7.258h0.883
	c0.717,0,1.244-0.313,1.58-0.94C88.699,70.232,88.867,69.32,88.867,68.124z M92.555,69.465v-0.578h2.321v0.578H92.555z
	 M102.26,72.308h-0.555v-7.746h-2.888v7.746h-0.555V64.03h3.998V72.308z M107.537,66.408c0,0.853-0.195,1.479-0.586,1.88
	c-0.391,0.4-0.969,0.6-1.735,0.6h-0.588v3.42h-0.556V64.03h1.132c0.808,0,1.399,0.19,1.772,0.571
	C107.35,64.983,107.537,65.585,107.537,66.408z M104.627,68.378h0.554c0.649,0,1.11-0.153,1.381-0.459
	c0.272-0.305,0.408-0.809,0.408-1.511c0-0.668-0.141-1.146-0.422-1.436c-0.281-0.289-0.716-0.433-1.305-0.433h-0.617V68.378z
	 M111.827,72.308h-3.001V64.03h3.001v0.532h-2.446v3.143h2.311v0.532h-2.311v3.539h2.446V72.308z M117.287,72.308h-0.555v-7.746
	h-2.888v7.746h-0.555V64.03h3.997V72.308z M122.23,72.308l-0.73-3h-2.01l-0.719,3h-0.578l1.993-8.277h0.571l2.039,8.277H122.23z
	 M121.37,68.747l-0.73-3.086c-0.076-0.347-0.135-0.675-0.176-0.985c-0.034,0.328-0.087,0.657-0.159,0.985l-0.708,3.086H121.37z
	 M127.168,66.408c0,0.853-0.196,1.479-0.586,1.88c-0.391,0.4-0.969,0.6-1.735,0.6h-0.589v3.42h-0.555V64.03h1.132
	c0.808,0,1.399,0.19,1.772,0.571C126.981,64.983,127.168,65.585,127.168,66.408z M124.257,68.378h0.555
	c0.649,0,1.109-0.153,1.381-0.459c0.272-0.305,0.407-0.809,0.407-1.511c0-0.668-0.141-1.146-0.421-1.436
	c-0.281-0.289-0.716-0.433-1.305-0.433h-0.618V68.378z M131.588,72.308l-0.73-3h-2.01l-0.719,3h-0.578l1.993-8.277h0.572
	l2.038,8.277H131.588z M130.727,68.747l-0.73-3.086c-0.075-0.347-0.134-0.675-0.175-0.985c-0.034,0.328-0.087,0.657-0.159,0.985
	l-0.708,3.086H130.727z M134.436,72.308h-0.555v-7.746h-1.647V64.03h3.85v0.532h-1.647V72.308z M140.215,72.308l-0.73-3h-2.01
	l-0.719,3h-0.578l1.993-8.277h0.572l2.038,8.277H140.215z M139.354,68.747l-0.73-3.086c-0.075-0.347-0.134-0.675-0.175-0.985
	c-0.034,0.328-0.087,0.657-0.158,0.985l-0.708,3.086H139.354z"/>
</svg>
