<?xml version="1.0" encoding="utf-8"?>
<!-- Generator: Adobe Illustrator 16.0.0, SVG Export Plug-In . SVG Version: 6.00 Build 0)  -->
<!DOCTYPE svg PUBLIC "-//W3C//DTD SVG 1.1//EN" "http://www.w3.org/Graphics/SVG/1.1/DTD/svg11.dtd">
<svg version="1.1" id="Layer_1" xmlns="http://www.w3.org/2000/svg" xmlns:xlink="http://www.w3.org/1999/xlink" x="0px" y="0px"
	 width="305.051px" height="107.07px" viewBox="0 0 305.051 107.07" enable-background="new 0 0 305.051 107.07"
	 xml:space="preserve">
<path fill="#67BD47" d="M288.305,38.569c0,0.748,0.19,1.447,0.572,2.098c0.381,0.65,0.901,1.162,1.561,1.536
	s1.365,0.561,2.119,0.561c0.763,0,1.47-0.188,2.123-0.564c0.651-0.376,1.17-0.885,1.554-1.526c0.383-0.643,0.575-1.343,0.575-2.104
	c0-0.752-0.19-1.451-0.571-2.095c-0.382-0.644-0.897-1.155-1.549-1.533c-0.65-0.378-1.361-0.567-2.132-0.567
	c-0.762,0-1.47,0.188-2.123,0.564c-0.651,0.376-1.17,0.885-1.554,1.527C288.497,37.107,288.305,37.809,288.305,38.569
	 M287.614,38.569c0-0.865,0.219-1.675,0.657-2.432c0.438-0.756,1.041-1.353,1.808-1.79c0.767-0.436,1.593-0.654,2.478-0.654
	c0.876,0,1.698,0.216,2.464,0.648c0.768,0.432,1.371,1.027,1.814,1.783c0.443,0.757,0.664,1.572,0.664,2.445
	c0,0.852-0.213,1.651-0.639,2.399c-0.425,0.748-1.021,1.347-1.787,1.796c-0.767,0.45-1.605,0.675-2.517,0.675
	c-0.907,0-1.744-0.224-2.51-0.672c-0.767-0.447-1.364-1.045-1.791-1.793C287.829,40.228,287.614,39.426,287.614,38.569
	 M294.561,37.39c0,0.346-0.093,0.651-0.278,0.917c-0.187,0.266-0.449,0.464-0.785,0.593l1.563,2.563h-1.104l-1.36-2.296h-0.888
	v2.296h-0.971v-5.778h1.715c0.727,0,1.26,0.141,1.6,0.422C294.391,36.387,294.561,36.814,294.561,37.39 M291.708,38.369h0.711
	c0.35,0,0.632-0.09,0.844-0.269c0.213-0.18,0.318-0.408,0.318-0.684c0-0.325-0.094-0.557-0.281-0.697
	c-0.189-0.141-0.487-0.211-0.895-0.211h-0.697V38.369z M276.491,70.6c-0.888-0.834-1.33-2.126-1.33-3.876V48.436h9.86v-5.498h-9.86
	v-7.599h-4.541l-2.504,7.228l-5.071,2.657v3.212h4.727v18.411c0,7.249,3.486,10.874,10.457,10.874c1.377,0,2.708-0.119,3.991-0.356
	c1.284-0.235,2.332-0.529,3.146-0.88v-5.468c-1.795,0.557-3.59,0.834-5.385,0.834C278.542,71.851,277.378,71.434,276.491,70.6
	 M249.85,36.806c0.72,0.711,1.748,1.066,3.083,1.066c1.294,0,2.301-0.355,3.021-1.066c0.72-0.71,1.08-1.683,1.08-2.919
	c0-1.297-0.36-2.296-1.08-2.996c-0.721-0.7-1.728-1.051-3.021-1.051c-1.335,0-2.363,0.351-3.083,1.051s-1.08,1.699-1.08,2.996
	C248.77,35.123,249.13,36.096,249.85,36.806 M256.564,42.938h-7.356v34.165h7.356V42.938z M243.321,42.938h-8.451v-2.224
	c0-2.039,0.379-3.568,1.143-4.587c0.761-1.02,1.977-1.53,3.646-1.53c1.648,0,3.381,0.289,5.196,0.865l1.941-5.498
	c-2.505-0.844-5.052-1.268-7.638-1.268c-3.945,0-6.877,0.973-8.797,2.92c-1.922,1.946-2.881,4.938-2.881,8.974v2.224l-5.697,2.224
	v3.398h5.697v28.667h7.389V48.436h8.451V42.938z M197.895,70.908c-0.918-0.834-1.377-2.012-1.377-3.536
	c0-2.101,0.787-3.66,2.363-4.681c1.575-1.019,4.096-1.59,7.562-1.714l4.444-0.186v2.966c0,2.657-0.81,4.722-2.426,6.194
	c-1.618,1.472-3.763,2.207-6.433,2.207C200.19,72.159,198.813,71.742,197.895,70.908 M218.243,77.103V54.089
	c0-4.057-1.121-7.032-3.364-8.927c-2.244-1.894-5.568-2.842-9.972-2.842c-1.982,0-4.09,0.253-6.324,0.757
	c-2.233,0.505-4.288,1.241-6.166,2.209l2.379,5.189c1.503-0.7,3.068-1.307,4.695-1.822c1.629-0.515,3.328-0.772,5.104-0.772
	c2.17,0,3.771,0.541,4.805,1.622c1.033,1.081,1.551,2.714,1.551,4.896v1.823l-5.98,0.185c-5.426,0.165-9.465,1.144-12.115,2.936
	c-2.65,1.791-3.976,4.447-3.976,7.97c0,3.315,0.954,5.879,2.864,7.69c1.91,1.813,4.565,2.72,7.968,2.72
	c2.649,0,4.821-0.376,6.512-1.128c1.69-0.751,3.37-2.167,5.04-4.247h0.25l1.473,4.757H218.243z M185.931,29.037h-7.357v48.066h7.357
	V29.037z M166.047,49.996c1.335,1.452,2.024,3.589,2.065,6.41h-15.715c0.271-2.8,1.111-4.932,2.52-6.394
	c1.41-1.462,3.283-2.193,5.619-2.193C162.874,47.818,164.711,48.544,166.047,49.996 M168.176,77.195
	c1.836-0.35,3.651-0.946,5.446-1.792v-5.899c-2.024,0.885-3.918,1.519-5.682,1.899s-3.668,0.571-5.713,0.571
	c-3.109,0-5.521-0.89-7.232-2.672c-1.711-1.781-2.619-4.33-2.724-7.646h23.073v-3.924c0-4.798-1.326-8.566-3.977-11.305
	c-2.65-2.739-6.26-4.109-10.832-4.109c-4.925,0-8.796,1.596-11.613,4.788c-2.818,3.193-4.227,7.579-4.227,13.159
	c0,5.438,1.519,9.705,4.555,12.805c3.037,3.1,7.249,4.649,12.632,4.649C164.241,77.721,166.339,77.544,168.176,77.195
	 M141.904,31.94h-7.513v18.472H113.29V31.94h-7.482v45.162h7.482V56.745h21.101v20.357h7.513V31.94z"/>
<path fill="#67BD47" d="M52.484,95.969c23.228,0,42.058-18.58,42.058-41.5s-18.83-41.5-42.058-41.5s-42.058,18.58-42.058,41.5
	S29.256,95.969,52.484,95.969"/>
<path fill="#FFFFFF" d="M82.442,39.65c-2.615-1.818-6.129-2.838-9.942-2.615c-3.852,0.225-7.246,1.678-9.634,3.824
	c-0.08,0.072-0.011,0.206,0.096,0.191c7.287-0.983,12.943-0.845,12.943-0.845c-4.663,0.397-8.896,0.963-12.391,1.521
	c-0.094,0.015-0.118,0.143-0.037,0.193c2.555,1.614,5.863,2.508,9.443,2.299c3.813-0.224,7.184-1.646,9.569-3.756
	C82.736,40.243,82.713,39.838,82.442,39.65"/>
<path fill="#FFFFFF" d="M82.539,56.211c-2.642-1.778-6.171-2.745-9.981-2.464c-3.847,0.284-7.219,1.788-9.574,3.97
	c-0.079,0.073-0.008,0.206,0.098,0.19c7.272-1.096,12.929-1.041,12.929-1.041c-4.656,0.467-8.88,1.097-12.366,1.707
	c-0.094,0.017-0.116,0.145-0.034,0.193c2.579,1.576,5.9,2.419,9.476,2.156c3.809-0.281,7.159-1.754,9.512-3.901
	C82.842,56.8,82.813,56.395,82.539,56.211"/>
<path fill="#FFFFFF" d="M61.882,41.435l-3.217,2.693c-1.697,1.421-2.677,3.52-2.677,5.732v25.523h6.606V41.767
	C62.594,41.399,62.164,41.199,61.882,41.435"/>
<path fill="#FFFFFF" d="M54.833,55.087c0-7.509-3.777-11.264-11.33-11.264c-2.142,0-4.017,0.409-5.623,1.224
	c-1.607,0.816-2.861,1.965-3.763,3.449h-0.423c0.225-2.003,0.338-3.885,0.338-5.646v-7.278c0-2.239-1.048-4.35-2.833-5.702
	l-3.185-2.414c-0.248-0.188-0.605-0.011-0.605,0.301v47.381h6.623V59.87c0-3.856,0.653-6.605,1.96-8.246
	c1.305-1.641,3.349-2.46,6.129-2.46c2.104,0,3.641,0.583,4.608,1.751c0.969,1.168,1.452,2.938,1.452,5.312v18.911h6.652V55.087z"/>
</svg>
